<?xml version="1.0" encoding="iso-8859-1"?>
<!-- Generator: Adobe Illustrator 22.0.0, SVG Export Plug-In . SVG Version: 6.00 Build 0)  -->
<svg xmlns="http://www.w3.org/2000/svg" xmlns:xlink="http://www.w3.org/1999/xlink" version="1.1" x="0px" y="0px" viewBox="0 0 50 60" style="enable-background:new 0 0 50 60;" xml:space="preserve" width="512" height="512">
<g id="_x34_0-Phone_Browser">
	<path d="M33,10H1c-0.552,0-1-0.447-1-1V3.547C0,1.591,1.591,0,3.546,0h26.907C32.409,0,34,1.591,34,3.547V9   C34,9.553,33.552,10,33,10z M2,8h30V3.547C32,2.694,31.306,2,30.453,2H3.546C2.694,2,2,2.694,2,3.547V8z"/>
	<path d="M30.453,60H3.546C1.591,60,0,58.409,0,56.453V51c0-0.553,0.448-1,1-1h32c0.552,0,1,0.447,1,1v5.453   C34,58.409,32.409,60,30.453,60z M2,52v4.453C2,57.306,2.694,58,3.546,58h26.907C31.306,58,32,57.306,32,56.453V52H2z"/>
	<path d="M17,60c-2.757,0-5-2.243-5-5s2.243-5,5-5s5,2.243,5,5S19.757,60,17,60z M17,52c-1.654,0-3,1.346-3,3s1.346,3,3,3   s3-1.346,3-3S18.654,52,17,52z"/>
	<path d="M17,6h-6c-0.552,0-1-0.447-1-1s0.448-1,1-1h6c0.552,0,1,0.447,1,1S17.552,6,17,6z"/>
	<path d="M23,6h-1c-0.552,0-1-0.447-1-1s0.448-1,1-1h1c0.552,0,1,0.447,1,1S23.552,6,23,6z"/>
	<path d="M33,47c-9.374,0-17-7.626-17-17s7.626-17,17-17s17,7.626,17,17S42.374,47,33,47z M33,15c-8.271,0-15,6.729-15,15   s6.729,15,15,15s15-6.729,15-15S41.271,15,33,15z"/>
	<path d="M33,47c-5.047,0-9-7.468-9-17s3.953-17,9-17s9,7.468,9,17S38.047,47,33,47z M33,15c-3.794,0-7,6.869-7,15s3.206,15,7,15   s7-6.869,7-15S36.794,15,33,15z"/>
	<path d="M49,31H17c-0.552,0-1-0.447-1-1s0.448-1,1-1h32c0.552,0,1,0.447,1,1S49.552,31,49,31z"/>
	<path d="M33,47c-0.552,0-1-0.447-1-1V14c0-0.553,0.448-1,1-1s1,0.447,1,1v32C34,46.553,33.552,47,33,47z"/>
	<path d="M33,25c-4.777,0-9.351-1.606-12.878-4.522c-0.206-0.17-0.334-0.415-0.359-0.681c-0.024-0.266,0.059-0.529,0.231-0.733   C23.237,15.21,27.978,13,33,13s9.763,2.21,13.006,6.063c0.172,0.204,0.255,0.468,0.231,0.733c-0.024,0.266-0.153,0.511-0.359,0.681   C42.351,23.394,37.777,25,33,25z M22.222,19.577C25.266,21.791,29.053,23,33,23s7.734-1.209,10.778-3.423   C40.956,16.656,37.083,15,33,15S25.044,16.656,22.222,19.577z"/>
	<path d="M33,47c-5.023,0-9.764-2.21-13.006-6.063c-0.172-0.204-0.255-0.468-0.231-0.733c0.024-0.266,0.153-0.511,0.359-0.681   C23.649,36.606,28.223,35,33,35c4.777,0,9.351,1.606,12.878,4.522c0.206,0.17,0.334,0.415,0.359,0.681   c0.024,0.266-0.059,0.529-0.231,0.733C42.763,44.79,38.022,47,33,47z M22.222,40.423C25.044,43.344,28.916,45,33,45   c4.083,0,7.956-1.656,10.778-4.577C40.734,38.209,36.947,37,33,37C29.052,37,25.266,38.209,22.222,40.423z"/>
	<path d="M33,52H1c-0.552,0-1-0.447-1-1V9c0-0.553,0.448-1,1-1h32c0.552,0,1,0.447,1,1v5c0,0.553-0.448,1-1,1   c-8.271,0-15,6.729-15,15s6.729,15,15,15c0.552,0,1,0.447,1,1v5C34,51.553,33.552,52,33,52z M2,50h30v-3.029   C23.09,46.451,16,39.038,16,30s7.09-16.451,16-16.971V10H2V50z"/>
	<path d="M12,34H6c-0.552,0-1-0.447-1-1v-6c0-0.553,0.448-1,1-1h6c0.552,0,1,0.447,1,1v6C13,33.553,12.552,34,12,34z M7,32h4v-4H7   V32z"/>
	<path d="M12,22H6c-0.552,0-1-0.447-1-1v-6c0-0.553,0.448-1,1-1h6c0.552,0,1,0.447,1,1v6C13,21.553,12.552,22,12,22z M7,20h4v-4H7   V20z"/>
	<path d="M12,46H6c-0.552,0-1-0.447-1-1v-6c0-0.553,0.448-1,1-1h6c0.552,0,1,0.447,1,1v6C13,45.553,12.552,46,12,46z M7,44h4v-4H7   V44z"/>
</g>

</svg>
