<?xml version="1.0" encoding="iso-8859-1"?>
<!-- Generator: Adobe Illustrator 22.0.0, SVG Export Plug-In . SVG Version: 6.00 Build 0)  -->
<svg xmlns="http://www.w3.org/2000/svg" xmlns:xlink="http://www.w3.org/1999/xlink" version="1.1" x="0px" y="0px" viewBox="0 0 54 60" style="enable-background:new 0 0 54 60;" xml:space="preserve" width="512" height="512">
<g id="_x33_8-Search_Phone">
	<path d="M33,10H1c-0.552,0-1-0.447-1-1V3.547C0,1.591,1.591,0,3.546,0h26.907C32.409,0,34,1.591,34,3.547V9   C34,9.553,33.552,10,33,10z M2,8h30V3.547C32,2.694,31.306,2,30.453,2H3.546C2.694,2,2,2.694,2,3.547V8z"/>
	<path d="M30.453,60H3.546C1.591,60,0,58.409,0,56.453V51c0-0.553,0.448-1,1-1h32c0.552,0,1,0.447,1,1v5.453   C34,58.409,32.409,60,30.453,60z M2,52v4.453C2,57.306,2.694,58,3.546,58h26.907C31.306,58,32,57.306,32,56.453V52H2z"/>
	<path d="M17,60c-2.757,0-5-2.243-5-5s2.243-5,5-5s5,2.243,5,5S19.757,60,17,60z M17,52c-1.654,0-3,1.346-3,3s1.346,3,3,3   s3-1.346,3-3S18.654,52,17,52z"/>
	<path d="M17,6h-6c-0.552,0-1-0.447-1-1s0.448-1,1-1h6c0.552,0,1,0.447,1,1S17.552,6,17,6z"/>
	<path d="M23,6h-1c-0.552,0-1-0.447-1-1s0.448-1,1-1h1c0.552,0,1,0.447,1,1S23.552,6,23,6z"/>
	<path d="M15,17h-5c-0.552,0-1-0.447-1-1s0.448-1,1-1h5c0.552,0,1,0.447,1,1S15.552,17,15,17z"/>
	<path d="M6,17H5c-0.552,0-1-0.447-1-1s0.448-1,1-1h1c0.552,0,1,0.447,1,1S6.552,17,6,17z"/>
	<path d="M10,21H5c-0.552,0-1-0.447-1-1s0.448-1,1-1h5c0.552,0,1,0.447,1,1S10.552,21,10,21z"/>
	<path d="M15,21h-1c-0.552,0-1-0.447-1-1s0.448-1,1-1h1c0.552,0,1,0.447,1,1S15.552,21,15,21z"/>
	<path d="M15,25h-5c-0.552,0-1-0.447-1-1s0.448-1,1-1h5c0.552,0,1,0.447,1,1S15.552,25,15,25z"/>
	<path d="M6,25H5c-0.552,0-1-0.447-1-1s0.448-1,1-1h1c0.552,0,1,0.447,1,1S6.552,25,6,25z"/>
	<path d="M10,29H5c-0.552,0-1-0.447-1-1s0.448-1,1-1h5c0.552,0,1,0.447,1,1S10.552,29,10,29z"/>
	<path d="M15,29h-1c-0.552,0-1-0.447-1-1s0.448-1,1-1h1c0.552,0,1,0.447,1,1S15.552,29,15,29z"/>
	<path d="M15,33h-5c-0.552,0-1-0.447-1-1s0.448-1,1-1h5c0.552,0,1,0.447,1,1S15.552,33,15,33z"/>
	<path d="M6,33H5c-0.552,0-1-0.447-1-1s0.448-1,1-1h1c0.552,0,1,0.447,1,1S6.552,33,6,33z"/>
	<path d="M10,37H5c-0.552,0-1-0.447-1-1s0.448-1,1-1h5c0.552,0,1,0.447,1,1S10.552,37,10,37z"/>
	<path d="M15,37h-1c-0.552,0-1-0.447-1-1s0.448-1,1-1h1c0.552,0,1,0.447,1,1S15.552,37,15,37z"/>
	<path d="M15,41h-5c-0.552,0-1-0.447-1-1s0.448-1,1-1h5c0.552,0,1,0.447,1,1S15.552,41,15,41z"/>
	<path d="M6,41H5c-0.552,0-1-0.447-1-1s0.448-1,1-1h1c0.552,0,1,0.447,1,1S6.552,41,6,41z"/>
	<path d="M10,45H5c-0.552,0-1-0.447-1-1s0.448-1,1-1h5c0.552,0,1,0.447,1,1S10.552,45,10,45z"/>
	<path d="M15,45h-1c-0.552,0-1-0.447-1-1s0.448-1,1-1h1c0.552,0,1,0.447,1,1S15.552,45,15,45z"/>
	<path d="M31,41c-7.168,0-13-5.832-13-13s5.832-13,13-13s13,5.832,13,13S38.168,41,31,41z M31,17c-6.065,0-11,4.935-11,11   s4.935,11,11,11s11-4.935,11-11S37.065,17,31,17z"/>
	<path d="M43.343,42.343c-0.256,0-0.512-0.098-0.707-0.293l-4.293-4.293c-0.391-0.391-0.391-1.023,0-1.414s1.023-0.391,1.414,0   l4.293,4.293c0.391,0.391,0.391,1.023,0,1.414C43.855,42.245,43.599,42.343,43.343,42.343z"/>
	<path d="M51,52c-0.801,0-1.555-0.312-2.122-0.879l-7.657-7.656c-0.391-0.391-0.391-1.023,0-1.414l2.829-2.829   c0.375-0.375,1.039-0.375,1.414,0l7.657,7.657C53.688,47.445,54,48.199,54,49s-0.312,1.555-0.878,2.121l0,0h0l0,0   C52.555,51.688,51.801,52,51,52z M43.343,42.758l6.95,6.949c0.378,0.379,1.037,0.379,1.414,0c0,0,0,0,0,0   c0.39-0.39,0.39-1.024,0-1.414l-6.95-6.95L43.343,42.758z"/>
	<path d="M27.001,22c-0.344,0-0.679-0.178-0.865-0.496c-0.278-0.477-0.117-1.089,0.36-1.367c1.288-0.752,2.802-1.135,4.502-1.137   c0,0,0.001,0,0.001,0c0.552,0,0.999,0.446,1,0.999c0.001,0.552-0.446,1-0.999,1.001c-1.342,0.002-2.519,0.292-3.498,0.863   C27.346,21.956,27.172,22,27.001,22z"/>
	<path d="M23.026,29c-0.545,0-0.991-0.438-1-0.984c-0.026-1.719,0.337-3.197,1.11-4.521c0.278-0.478,0.891-0.638,1.368-0.358   c0.477,0.278,0.637,0.892,0.358,1.368c-0.592,1.013-0.858,2.118-0.837,3.479c0.008,0.553-0.432,1.007-0.984,1.016   C23.037,29,23.031,29,23.026,29z"/>
	<path d="M33,52H1c-0.552,0-1-0.447-1-1V9c0-0.553,0.448-1,1-1h32c0.552,0,1,0.447,1,1v7.18c0,0.294-0.129,0.573-0.354,0.764   c-0.225,0.189-0.521,0.269-0.812,0.223C32.169,17.055,31.569,17,31,17c-6.065,0-11,4.935-11,11s4.935,11,11,11   c0.569,0,1.169-0.055,1.834-0.166c0.29-0.047,0.586,0.033,0.812,0.223C33.871,39.247,34,39.526,34,39.82V51   C34,51.553,33.552,52,33,52z M2,50h30v-9.044C31.658,40.985,31.326,41,31,41c-7.168,0-13-5.832-13-13s5.832-13,13-13   c0.326,0,0.658,0.015,1,0.044V10H2V50z"/>
</g>

</svg>
