<svg id="Capa_1" enable-background="new 0 0 512 512" height="512" viewBox="0 0 512 512" width="512" xmlns="http://www.w3.org/2000/svg"><g><g><path d="m327.12 114h-237.78l44.9 209.01.05-.01h277.71l26.88-93.08z" fill="#bfdbff"/><circle cx="412" cy="144" fill="#dcef6c" r="90"/><g fill="#ecf2f3"><circle cx="412" cy="443" r="45"/><circle cx="160" cy="443" r="45"/></g></g><g><path d="m442 134h-20v-20c0-5.523-4.478-10-10-10s-10 4.477-10 10v20h-20c-5.522 0-10 4.477-10 10s4.478 10 10 10h20v20c0 5.523 4.478 10 10 10s10-4.477 10-10v-20h20c5.522 0 10-4.477 10-10s-4.478-10-10-10z"/><path d="m412 44c-39.915 0-75.886 23.837-91.667 60h-222.914l-17.643-82.101c-.99-4.608-5.063-7.899-9.776-7.899h-60c-5.522 0-10 4.477-10 10s4.478 10 10 10h51.921c8.638 40.237 76.67 356.84 76.967 358.222-20.109 8.411-33.888 28.398-33.888 50.778 0 30.327 24.673 55 55 55 26.911 0 49.354-19.433 54.072-45h143.855c4.718 25.567 27.161 45 54.072 45 30.327 0 55-24.673 55-55s-24.673-55-55-55c-26.911 0-49.354 19.433-54.072 45h-143.855c-4.718-25.567-27.161-45-54.072-45-.519 0-1.037.026-1.555.041l-11.829-55.041h84.384c5.522 0 10-4.477 10-10s-4.478-10-10-10h-88.682l-40.603-189.01h212.3c-1.328 6.554-2.015 13.239-2.015 20.01 0 55.14 44.859 100 100 100 4.243 0 8.46-.281 12.639-.809l-20.16 69.809h-83.479c-5.522 0-10 4.477-10 10s4.478 10 10 10h91c4.454 0 8.372-2.946 9.607-7.226l25.446-88.115c37.726-14.175 64.947-50.43 64.947-93.659 0-55.14-44.859-100-100-100zm0 364c19.299 0 35 15.701 35 35s-15.701 35-35 35-35-15.701-35-35 15.701-35 35-35zm-217 35c0 19.299-15.701 35-35 35s-35-15.701-35-35c0-18.914 15.388-35 35-35 19.299 0 35 15.701 35 35zm217-219c-44.112 0-80-35.888-80-80 0-44.599 36.273-80 80-80 44.112 0 80 35.888 80 80 0 44.748-36.047 80-80 80z"/><circle cx="276" cy="323" r="10"/></g></g></svg>