<?xml version="1.0"?>
<svg xmlns="http://www.w3.org/2000/svg" xmlns:xlink="http://www.w3.org/1999/xlink" version="1.1" id="Layer_1" x="0px" y="0px" viewBox="0 0 512 512" style="enable-background:new 0 0 512 512;" xml:space="preserve" width="512px" height="512px"><g><g>
	<path d="M113.51,362.962h-0.27c-5.523,0-10,4.477-10,10c0,5.523,4.477,10,10,10h0.27c5.523,0,10-4.477,10-10   C123.51,367.439,119.033,362.962,113.51,362.962z" data-original="#000000" class="active-path" data-old_color="#000000" fill="#FF7214"/>
	<path d="M470.92,386.125l-58.228-29.332c46.043-26.482,78.449-71.196,89.639-122.523c0.121-0.424,0.213-0.855,0.277-1.292   c2.641-12.542,4.023-25.471,4.023-38.619c0-13.271-1.396-26.222-4.031-38.719c-0.064-0.41-0.152-0.815-0.266-1.213   c-8.354-38.339-28.465-72.329-56.363-97.983c-0.635-0.774-1.383-1.449-2.221-2.005c-18.935-16.868-41.303-29.955-65.912-38.068   c-0.574-0.249-1.17-0.442-1.781-0.58C358.16,10.087,339.109,7,319.349,7c-19.569,0-38.764,3.031-57.005,8.852   c-0.407,0.105-0.806,0.237-1.196,0.392c-25.636,8.371-49.356,22.269-69.528,41.074c-18.594,17.355-33.234,37.899-43.514,61.06   c-10.641,23.977-16.037,49.54-16.037,75.979c0,13.019,1.367,25.915,4.01,38.498c0.07,0.518,0.179,1.027,0.328,1.527   c5.67,25.921,16.798,50.461,32.757,71.887c-16.744,7.383-32.438,11.009-47.604,11.009c-19.95,0-39.561-6.107-59.954-18.673   c-5.703-3.512-11.467-5.293-17.133-5.293c-10.423,0-24.957,5.859-35.004,33.773C3.451,343.805,0,366.417,0,389.124   c0,21.465,3.048,41.309,8.583,55.878c9.362,24.638,23.631,29.81,33.954,29.81h13.298V495c0,5.523,4.477,10,10,10h38.233   c5.523,0,10-4.477,10-10v-20.188h18.236V495c0,5.523,4.477,10,10,10h38.233c5.523,0,10-4.477,10-10v-20.188h42.523   c0.011,0,0.021,0.002,0.032,0.002c0.01,0,0.02-0.002,0.029-0.002h42.354c0.018,0,0.034,0,0.051,0h41.881V495   c0,5.523,4.478,10,10.001,10h38.234c5.521,0,10-4.477,10-10v-20.188h18.234V495c0,5.523,4.476,10,10,10h38.199   c5.523,0,10-4.477,10-10v-20.188h37.068c10.781,0,19.158-7.082,21.861-18.483C516.131,434.736,501.242,401.372,470.92,386.125z    M428.234,321.406c-11.207,9.618-23.785,17.831-37.518,24.316l-21.379-10.77c-0.316-0.183-0.641-0.344-0.969-0.488l-39.02-19.657   v-46.033l49.441-28.533l49.443,28.533V321.406z M249.391,277.562c-4.1-1.889-8.523-2.847-13.148-2.847   c-8.905,0-17.46,3.458-25.778,8.064v-14.005l49.441-28.533l49.442,28.533v36.365L249.391,277.562z M269.906,222.921v-57.13   l49.442-28.562l49.442,28.562v57.129l-49.443,28.534L269.906,222.921z M448.232,301.026v-32.255l27.916-16.123   C469.603,270.253,460.15,286.607,448.232,301.026z M448.232,87.785c11.822,14.285,21.316,30.563,27.91,48.243l-27.91-16.12V87.785z    M483.775,163.534c1.867,9.994,2.855,20.295,2.855,30.823c0,10.453-0.977,20.75-2.854,30.788l-45.547,26.307l-49.44-28.532v-57.129   l49.441-28.562L483.775,163.534z M428.234,67.413v52.495l-49.443,28.562l-49.441-28.562v-57.13l45.535-26.285   C394.617,43.462,412.666,54.029,428.234,67.413z M319.349,27.001c9.511,0,18.835,0.81,27.917,2.344l-27.919,16.115l-27.933-16.124   C300.574,27.793,309.912,27.001,319.349,27.001z M210.465,67.299c15.867-13.616,33.939-24.008,53.312-30.826l45.571,26.306v57.13   l-49.442,28.562l-49.441-28.562V67.299z M190.466,87.676v32.232l-27.837,16.079C169.136,118.519,178.525,102.151,190.466,87.676z    M152.068,194.357c0-10.41,0.991-20.734,2.899-30.849l45.497-26.28l49.442,28.562v57.129l-49.439,28.532l-45.531-26.298   C153.045,215.057,152.068,204.751,152.068,194.357z M162.551,252.648l27.915,16.124v26.354c-1.075,0.664-2.137,1.301-3.19,1.919   C176.766,283.522,168.452,268.534,162.551,252.648z M94.069,485H75.835v-10.188h18.234V485z M152.304,485v-10.188h18.234V485   H152.304z M204.07,454.812l41.991-76.564l17.771,9.765l-36.65,66.8H204.07z M315.551,454.812h-23.104l22.494-40.982l17.74,9.738   L315.551,454.812z M355.643,485h-18.236v-10.188h18.236V485z M432.076,485h-18.199v-10.188h18.199V485z M491.547,451.712   c-0.734,3.1-1.66,3.1-2.402,3.1H338.359l16.664-30.393c2.654-4.841,0.883-10.918-3.957-13.574l-35.267-19.36   c-2.326-1.276-5.064-1.575-7.608-0.835c-2.547,0.741-4.694,2.464-5.971,4.79l-32.588,59.373h-19.638l36.178-65.941   c2.655-4.84,0.886-10.917-3.951-13.575L246.92,355.9c-2.325-1.278-5.063-1.579-7.611-0.837c-2.548,0.742-4.696,2.466-5.972,4.792   l-52.078,94.956h-16.352c0.784-4.391,1.154-8.777,1.154-13.41c0-16.473-4.944-32.578-14.297-46.572   c-3.069-4.591-9.278-5.825-13.87-2.758c-4.592,3.069-5.826,9.279-2.757,13.871c7.148,10.694,10.925,22.956,10.925,35.459   c0,4.617-0.519,8.938-1.611,13.41H42.537c-7.299,0-12.326-9.198-15.258-16.913c-4.694-12.356-7.279-29.678-7.279-48.774   c0-2.022,0.037-4.011,0.092-5.982c14.945-9.07,33.722-13.203,52.311-11.359c5.492,0.547,10.392-3.468,10.937-8.965   c0.545-5.496-3.469-10.393-8.964-10.938c-18.011-1.785-36.245,1.053-52.284,7.856c4.116-27.844,13.638-46.424,22.382-46.424   c1.907,0,4.143,0.781,6.644,2.321c23.638,14.565,46.68,21.646,70.443,21.646c21.514,0,43.529-5.974,67.095-18.196   c0.471-0.195,14.778-8.46,19.033-11.183c10.125-6.482,20.595-13.185,28.557-13.185c1.738,0,3.301,0.331,4.785,1.015l24.389,11.218   l-11.554,19.243c-2.843,4.735-1.31,10.878,3.425,13.722c1.611,0.968,3.386,1.428,5.138,1.428c3.396,0,6.708-1.73,8.583-4.854   l12.688-21.131l26.255,12.076l0.286,0.144l-12.134,20.162c-2.848,4.732-1.32,10.877,3.412,13.725   c1.613,0.971,3.392,1.433,5.147,1.433c3.393,0,6.701-1.727,8.578-4.845l12.91-21.452l22.07,11.119l-12.5,20.763   c-2.85,4.732-1.322,10.877,3.408,13.726c1.615,0.972,3.393,1.434,5.148,1.434c3.393,0,6.701-1.726,8.578-4.844l13.277-22.055   l93.795,47.25C486.283,416.236,494.045,441.186,491.547,451.712z" data-original="#000000" class="active-path" data-old_color="#000000" fill="#FF7214"/>
</g></g> </svg>
