<?xml version="1.0" encoding="UTF-8"?>
<svg width="1264px" height="184px" viewBox="0 0 1264 184" version="1.1" xmlns="http://www.w3.org/2000/svg" xmlns:xlink="http://www.w3.org/1999/xlink">
    <!-- Generator: Sketch 62 (91390) - https://sketch.com -->
    <title>My School App Logo(Horizontal) Copy</title>
    <desc>Created with Sketch.</desc>
    <defs>
        <linearGradient x1="26.8955928%" y1="-15.8585447%" x2="74.9141862%" y2="71.9950386%" id="linearGradient-1">
            <stop stop-color="#00EFA9" offset="0%"></stop>
            <stop stop-color="#3F56F0" offset="100%"></stop>
        </linearGradient>
        <linearGradient x1="23.035574%" y1="90.7460022%" x2="53.0621211%" y2="40.9158817%" id="linearGradient-2">
            <stop stop-color="#000000" offset="0%"></stop>
            <stop stop-color="#000000" stop-opacity="0" offset="100%"></stop>
        </linearGradient>
        <linearGradient x1="9.41578947%" y1="8.07615002%" x2="66.6505993%" y2="67.3776315%" id="linearGradient-3">
            <stop stop-color="#00EFA9" offset="0%"></stop>
            <stop stop-color="#3F56F0" offset="100%"></stop>
        </linearGradient>
        <linearGradient x1="49.9859813%" y1="-26.1176282%" x2="49.9859813%" y2="96.6578526%" id="linearGradient-4">
            <stop stop-color="#000000" offset="0%"></stop>
            <stop stop-color="#000000" stop-opacity="0" offset="100%"></stop>
        </linearGradient>
        <linearGradient x1="49.9189252%" y1="-26.1497193%" x2="49.9189252%" y2="96.7245389%" id="linearGradient-5">
            <stop stop-color="#000000" offset="0%"></stop>
            <stop stop-color="#000000" stop-opacity="0" offset="100%"></stop>
        </linearGradient>
        <linearGradient x1="-0.6174946%" y1="50.3816626%" x2="98.7857451%" y2="50.3816626%" id="linearGradient-6">
            <stop stop-color="#3F56F0" offset="19.21%"></stop>
            <stop stop-color="#3F56F0" offset="100%"></stop>
        </linearGradient>
        <linearGradient x1="0.0416666667%" y1="49.9733333%" x2="100.0775%" y2="49.9733333%" id="linearGradient-7">
            <stop stop-color="#3F56F0" offset="19.21%"></stop>
            <stop stop-color="#3F56F0" offset="100%"></stop>
        </linearGradient>
        <linearGradient x1="0.45%" y1="50.216152%" x2="100.042138%" y2="50.216152%" id="linearGradient-8">
            <stop stop-color="#3F56F0" offset="19.21%"></stop>
            <stop stop-color="#3F56F0" offset="100%"></stop>
        </linearGradient>
        <linearGradient x1="0.15641791%" y1="49.8608491%" x2="99.9973134%" y2="49.8608491%" id="linearGradient-9">
            <stop stop-color="#3F56F0" offset="19.21%"></stop>
            <stop stop-color="#3F56F0" offset="100%"></stop>
        </linearGradient>
        <linearGradient x1="0.354469274%" y1="50.2257908%" x2="100.026816%" y2="50.2257908%" id="linearGradient-10">
            <stop stop-color="#3F56F0" offset="19.21%"></stop>
            <stop stop-color="#3F56F0" offset="100%"></stop>
        </linearGradient>
        <linearGradient x1="-0.0175480769%" y1="49.9788235%" x2="100.166827%" y2="49.9788235%" id="linearGradient-11">
            <stop stop-color="#3F56F0" offset="19.21%"></stop>
            <stop stop-color="#3F56F0" offset="100%"></stop>
        </linearGradient>
        <linearGradient x1="-0.059375%" y1="49.9788235%" x2="100.125%" y2="49.9788235%" id="linearGradient-12">
            <stop stop-color="#3F56F0" offset="19.21%"></stop>
            <stop stop-color="#3F56F0" offset="100%"></stop>
        </linearGradient>
        <linearGradient x1="-0.23297491%" y1="49.9759214%" x2="99.5878136%" y2="49.9759214%" id="linearGradient-13">
            <stop stop-color="#3F56F0" offset="19.21%"></stop>
            <stop stop-color="#3F56F0" offset="100%"></stop>
        </linearGradient>
        <linearGradient x1="0.0286082474%" y1="49.8116223%" x2="99.6435567%" y2="49.8116223%" id="linearGradient-14">
            <stop stop-color="#3F56F0" offset="19.21%"></stop>
            <stop stop-color="#3F56F0" offset="100%"></stop>
        </linearGradient>
        <linearGradient x1="0.177230769%" y1="49.9504831%" x2="99.8492308%" y2="49.9504831%" id="linearGradient-15">
            <stop stop-color="#3F56F0" offset="19.21%"></stop>
            <stop stop-color="#3F56F0" offset="100%"></stop>
        </linearGradient>
        <linearGradient x1="0.341846154%" y1="49.9504831%" x2="100.013538%" y2="49.9504831%" id="linearGradient-16">
            <stop stop-color="#3F56F0" offset="19.21%"></stop>
            <stop stop-color="#3F56F0" offset="100%"></stop>
        </linearGradient>
        <linearGradient x1="-0.0175257732%" y1="49.9539394%" x2="99.5941581%" y2="49.9539394%" id="linearGradient-17">
            <stop stop-color="#3F56F0" offset="19.21%"></stop>
            <stop stop-color="#3F56F0" offset="100%"></stop>
        </linearGradient>
        <linearGradient x1="-0.0452380952%" y1="49.2428571%" x2="100.156548%" y2="49.2428571%" id="linearGradient-18">
            <stop stop-color="#3F56F0" offset="19.21%"></stop>
            <stop stop-color="#3F56F0" offset="100%"></stop>
        </linearGradient>
        <linearGradient x1="-0.194776119%" y1="49.8030211%" x2="99.6708955%" y2="49.8030211%" id="linearGradient-19">
            <stop stop-color="#3F56F0" offset="19.21%"></stop>
            <stop stop-color="#3F56F0" offset="100%"></stop>
        </linearGradient>
        <linearGradient x1="-0.253361345%" y1="50.0183432%" x2="100.085294%" y2="50.0183432%" id="linearGradient-20">
            <stop stop-color="#3F56F0" offset="19.21%"></stop>
            <stop stop-color="#3F56F0" offset="100%"></stop>
        </linearGradient>
        <linearGradient x1="-0.0240963855%" y1="49.4130435%" x2="99.9526835%" y2="49.4130435%" id="linearGradient-21">
            <stop stop-color="#3F56F0" offset="19.21%"></stop>
            <stop stop-color="#3F56F0" offset="100%"></stop>
        </linearGradient>
        <linearGradient x1="0.016%" y1="49.4130435%" x2="100.0184%" y2="49.4130435%" id="linearGradient-22">
            <stop stop-color="#3F56F0" offset="19.21%"></stop>
            <stop stop-color="#3F56F0" offset="100%"></stop>
        </linearGradient>
    </defs>
    <g id="Page-1" stroke="none" stroke-width="1" fill="none" fill-rule="evenodd">
        <g id="My-School-App-Logo(Horizontal)-Copy" fill-rule="nonzero">
            <g id="Group">
                <path d="M356.8,6.1 C364.7,11.6 368.7,17 368.7,22.1 C368.7,25.2 366.8,29.5 363.1,35 L310.6,113.5 L310.6,160 C310.6,163.7 310.5,166.5 310.2,168.4 C310,170.3 309.2,172.4 307.9,174.8 C306.6,177.2 304.4,178.9 301.3,179.9 C298.2,180.9 294.1,181.4 288.9,181.4 C283.7,181.4 279.6,180.9 276.5,179.9 C273.4,178.9 271.2,177.2 269.9,174.7 C268.6,172.2 267.8,170 267.6,168.1 C267.4,166.2 267.2,163.4 267.2,159.5 L267.2,113.6 L214.8,35 C211.1,29.5 209.2,25.2 209.2,22.1 C209.2,16.9 213.2,11.6 221.4,6.1 C227.6,2.1 232.7,-2.84217094e-14 236.7,-2.84217094e-14 C238.8,-2.84217094e-14 240.8,0.7 242.7,1.9 C244.6,3.2 246,4.5 247.1,5.8 C248.2,7.1 249.6,9.1 251.4,11.9 L289.1,72.2 L326.8,11.9 C328.6,9.1 330,7.1 331.1,5.8 C332.2,4.5 333.6,3.2 335.5,1.9 C337.4,0.6 339.4,-2.84217094e-14 341.7,-2.84217094e-14 C345.2,-2.84217094e-14 350.3,2 356.8,6.1 Z" id="Path" fill="url(#linearGradient-1)"></path>
                <path d="M289,72.2 C289.3,73.3 310.6,113.5 310.6,113.5 L348.6,56.7 L320.2,22.2 L289,72.2 Z" id="Path" fill="url(#linearGradient-2)"></path>
                <path d="M171.2,5.8 C176.2,5.8 180.3,6.3 183.4,7.3 C186.5,8.3 188.7,10 190,12.4 C191.3,14.8 192.1,17 192.3,19 C192.5,20.9 192.7,23.8 192.7,27.5 L192.7,162.4 C192.7,166.1 192.5,168.9 192.2,170.8 C191.9,172.7 191.1,174.8 189.9,177.1 C188.7,179.5 186.5,181.1 183.5,182.1 C180.4,183.1 176.3,183.6 171.1,183.6 C166.9,183.6 163.4,183.2 160.6,182.4 C157.8,181.6 155.7,180.6 154.3,179.5 C152.8,178.4 151.7,176.7 151,174.5 C150.3,172.3 149.9,170.4 149.8,168.9 C149.7,167.4 149.7,165.1 149.7,162 L149.7,80.6 C145.6,85.6 139.7,93.6 132,104.5 C124.2,115.4 118.5,123.3 114.7,128 C114.2,128.8 113.6,129.7 112.8,130.8 C112,131.9 110,133.3 106.8,135.2 C103.6,137.1 100.2,138 96.5,138 C92.9,138 89.6,137.2 86.7,135.4 C83.7,133.7 81.6,132 80.3,130.4 L78.4,127.7 C75.2,123.7 68.8,115 59.2,101.8 C49.6,88.6 44.4,81.5 43.6,80.5 L43.6,162.4 C43.6,166.1 43.5,168.9 43.2,170.8 C43,172.7 42.2,174.8 40.9,177.1 C39.6,179.5 37.4,181.1 34.3,182.1 C31.2,183.1 27.1,183.6 21.9,183.6 C16.9,183.6 12.9,183.1 9.9,182.1 C6.9,181.1 4.8,179.5 3.5,177.1 C2.2,174.8 1.4,172.6 1.2,170.7 C1,168.8 0.8,165.8 0.8,161.9 L0.8,26.9 C0.8,23.2 0.9,20.4 1.2,18.5 C1.4,16.6 2.2,14.5 3.5,12.2 C4.8,9.9 7,8.2 10.1,7.2 C13.2,6.2 17.3,5.7 22.5,5.7 C26.9,5.7 30.6,6.2 33.8,7.3 C37,8.4 39,9.4 40,10.6 L41.5,12.1 L96.7,84.5 C124.3,48 142.6,24 151.9,12.3 C154.2,8 160.8,5.8 171.2,5.8 Z" id="Path" fill="url(#linearGradient-3)"></path>
                <polygon id="Path" fill="url(#linearGradient-4)" points="43.3 81.9 0.5 29.6 0.5 146.1 43.3 154.4"></polygon>
                <polygon id="Path" fill="url(#linearGradient-5)" points="149.8 80.5 192.6 28.3 192.6 144.8 149.8 153"></polygon>
            </g>
            <g id="Group" transform="translate(404.000000, 20.000000)">
                <g id="Group-114">
                    <g transform="translate(0.000000, 0.122388)">
                        <path d="M51.3688303,57.1979174 C50.2758764,58.1087123 49.0007636,58.8373481 47.3613329,59.3838251 C45.7219021,59.930302 43.9003124,60.112461 41.7144047,60.112461 C38.7998612,60.112461 36.4317945,59.748143 34.6102048,59.0195071 C32.7886151,58.2908712 31.5135023,57.0157584 30.9670253,55.3763277 C28.7811177,48.2721277 26.9595279,42.6251996 25.5022562,38.2533842 C24.0449844,33.8815689 22.9520305,30.0562305 22.2233947,26.777369 L21.6769177,26.777369 C21.4947588,31.5135023 21.3125998,35.7031586 21.1304408,39.710656 C20.9482818,43.5359944 20.9482818,47.3613329 20.9482818,51.0045123 C20.9482818,54.6476918 20.7661229,58.4730302 20.7661229,62.1162096 C20.5839639,65.9415481 20.4018049,69.9490455 20.219646,74.5030198 C19.1266921,74.8673377 17.8515793,75.2316557 16.2121486,75.5959736 C14.5727178,75.9602916 12.9332871,75.9602916 11.1116973,75.9602916 C7.65067685,75.9602916 4.91829226,75.4138146 2.91454356,74.3208608 C0.910794863,73.227907 2.74395278e-12,71.2241583 2.74395278e-12,68.1274557 L3.46102048,6.92204096 C4.0074974,5.82908712 5.46476918,4.73613329 7.65067685,3.64317945 C9.83658452,2.36806664 12.9332871,1.82158973 16.7586255,1.82158973 C20.9482818,1.82158973 24.4093023,2.55022562 26.777369,3.82533842 C29.1454356,5.10045123 30.9670253,7.2863589 32.0599792,10.2009025 C32.7886151,12.2046512 33.517251,14.3905588 34.4280458,16.7586255 C35.3388407,19.3088511 36.0674766,21.8590767 36.9782714,24.4093023 C37.8890663,26.9595279 38.6177022,29.6919125 39.528497,32.2421381 C40.2571329,34.7923638 40.9857688,37.1604304 41.7144047,39.1641791 L42.2608816,39.1641791 C44.2646303,32.4242971 46.0862201,26.0487331 48.0899688,19.673169 C50.0937175,13.479764 51.7331482,8.19715377 53.372579,3.82533842 C54.6476918,3.27886151 56.1049636,2.55022562 57.9265533,2.18590767 C59.748143,1.82158973 61.9340507,1.45727178 64.3021173,1.45727178 C68.1274557,1.45727178 71.4063173,2.0037487 73.9565429,3.27886151 C76.5067685,4.37181534 77.7818813,6.0112461 78.3283582,8.19715377 C78.6926762,9.83658452 79.0569941,12.2046512 79.421312,15.4835127 C79.78563,18.7623742 80.1499479,22.5877126 80.5142659,26.777369 C80.8785838,30.9670253 81.2429018,35.3388407 81.7893787,39.892815 C82.1536966,44.6289483 82.5180146,49.0007636 82.8823325,53.19042 C83.2466505,57.3800764 83.6109684,61.3875738 83.7931274,65.0307532 C83.9752864,68.4917737 84.1574453,71.4063173 84.3396043,73.227907 C83.0644915,73.9565429 81.6072197,74.6851788 80.1499479,75.0494967 C78.6926762,75.4138146 76.6889275,75.5959736 74.5030198,75.5959736 C71.4063173,75.5959736 68.8560916,75.0494967 66.8523429,73.9565429 C64.8485942,72.863589 63.5734814,70.8598403 63.5734814,67.7631378 C63.0270045,59.0195071 62.8448455,51.1866713 62.6626866,44.2646303 C62.4805276,37.3425894 62.2983686,31.5135023 62.1162096,26.777369 L61.5697327,26.777369 C60.8410968,29.8740715 59.565984,33.8815689 58.1087123,38.6177022 C56.6514405,43.3538355 53.372579,49.9115585 51.3688303,57.1979174 Z" id="Path" fill="url(#linearGradient-6)"></path>
                        <path d="M131.700937,74.6851788 C130.790142,74.8673377 129.51503,75.2316557 127.69344,75.4138146 C125.87185,75.5959736 124.05026,75.7781326 122.228671,75.7781326 C118.585491,75.7781326 115.853107,75.2316557 114.031517,73.9565429 C112.209927,72.6814301 111.299132,70.1312044 111.299132,66.123707 L111.299132,49.9115585 C109.295384,46.9970149 107.109476,43.7181534 104.741409,40.074974 C102.373343,36.4317945 100.187435,32.7886151 97.8193683,28.9632766 C95.6334606,25.1379382 93.4475529,21.4947588 91.6259632,17.8515793 C89.6222145,14.2083999 88.1649427,10.9295384 86.8898299,7.83283582 C87.9827838,6.37556404 89.2578966,5.10045123 91.0794863,3.82533842 C92.901076,2.55022562 95.0869837,2.0037487 97.8193683,2.0037487 C100.916071,2.0037487 103.466296,2.73238459 105.470045,4.0074974 C107.473794,5.2826102 109.295384,7.65067685 111.116973,11.2938563 L121.135717,31.3313433 L121.864353,31.3313433 C122.957306,28.7811177 124.05026,26.59521 124.778896,24.5914613 C125.689691,22.5877126 126.418327,20.5839639 127.146963,18.3980562 C127.875599,16.3943075 128.786394,14.2083999 129.697188,12.0224922 C130.607983,9.83658452 131.518778,7.2863589 132.611732,4.37181534 C134.069004,3.64317945 135.708435,3.09670253 137.347865,2.73238459 C139.169455,2.36806664 140.808886,2.18590767 142.448317,2.18590767 C145.180701,2.18590767 147.548768,2.91454356 149.552516,4.37181534 C151.556265,5.82908712 152.46706,8.01499479 152.46706,11.1116973 C152.46706,12.0224922 152.284901,13.297605 151.920583,14.5727178 C151.556265,15.8478306 150.64547,18.0337383 149.188199,20.7661229 C147.730927,23.4985075 145.727178,27.3238459 142.812635,32.0599792 C140.08025,36.7961125 136.254911,42.9895175 131.518778,50.4580354 L131.518778,74.6851788 L131.700937,74.6851788 Z" id="Path" fill="url(#linearGradient-7)"></path>
                        <path d="M206.932593,46.268379 C203.471572,44.9932662 200.192711,43.9003124 197.278167,42.6251996 C194.363624,41.3500868 191.995557,39.892815 189.809649,38.0712253 C187.805901,36.2496355 186.16647,34.2458868 184.891357,31.6956612 C183.798403,29.3275946 183.069767,26.2308921 183.069767,22.7698716 C183.069767,16.0299896 185.619993,10.5652204 190.902603,6.37556404 C196.185213,2.36806664 203.471572,0.182158973 212.943839,0.182158973 C216.404859,0.182158973 219.501562,0.364317945 222.598264,0.910794863 C225.512808,1.45727178 228.063034,2.18590767 230.248941,3.09670253 C232.434849,4.0074974 234.07428,5.2826102 235.167234,6.92204096 C236.442346,8.37931274 236.988823,10.2009025 236.988823,12.3868101 C236.988823,14.3905588 236.442346,16.2121486 235.531552,17.6694203 C234.620757,19.1266921 233.345644,20.4018049 232.070531,21.4947588 C230.248941,20.4018049 227.880875,19.3088511 224.966331,18.5802152 C222.051788,17.6694203 218.772926,17.3051024 215.311906,17.3051024 C211.668726,17.3051024 209.118501,17.8515793 207.47907,18.7623742 C205.839639,19.673169 204.928844,20.9482818 204.928844,22.5877126 C204.928844,23.8628254 205.475321,24.7736203 206.568275,25.5022562 C207.661229,26.2308921 209.118501,26.9595279 211.304408,27.6881638 L217.679972,29.6919125 C225.14849,32.0599792 230.977577,35.1566817 234.985075,38.7998612 C238.992572,42.4430406 240.996321,47.5434918 240.996321,53.9190559 C240.996321,60.6589379 238.263936,66.123707 232.981326,70.4955224 C227.698716,74.6851788 219.683721,76.8710864 209.300659,76.8710864 C205.65748,76.8710864 202.19646,76.5067685 199.099757,75.9602916 C196.003054,75.4138146 193.27067,74.5030198 190.902603,73.227907 C188.534537,72.1349531 186.712947,70.6776814 185.437834,68.8560916 C184.162721,67.2166609 183.434085,65.2129122 183.434085,62.8448455 C183.434085,60.4767789 184.162721,58.4730302 185.437834,56.8335994 C186.712947,55.1941687 188.352378,53.9190559 189.809649,53.008261 C191.995557,54.8298507 194.727942,56.2871225 198.006803,57.5622353 C201.285665,58.8373481 204.746685,59.565984 208.572024,59.565984 C212.397362,59.565984 215.311906,59.0195071 216.769177,57.7443943 C218.408608,56.4692815 219.137244,55.1941687 219.137244,53.5547379 C219.137244,51.9153072 218.408608,50.8223533 217.133495,49.9115585 C215.858383,49.0007636 214.036793,48.2721277 211.668726,47.5434918 L206.932593,46.268379 Z" id="Path" fill="url(#linearGradient-8)"></path>
                        <path d="M289.997084,17.1229434 C283.803679,17.1229434 279.067546,18.9445331 275.788684,22.7698716 C272.509823,26.59521 270.870392,31.8778202 270.870392,38.7998612 C270.870392,45.7219021 272.691982,51.1866713 276.335161,54.8298507 C279.978341,58.6551892 284.896633,60.4767789 291.090038,60.4767789 C294.3689,60.4767789 297.101284,60.112461 299.469351,59.2016661 C301.655259,58.2908712 303.841166,57.3800764 306.027074,56.1049636 C307.302187,57.1979174 308.395141,58.4730302 309.123776,60.112461 C309.852412,61.7518917 310.21673,63.5734814 310.21673,65.5772301 C310.21673,68.8560916 308.395141,71.5884762 304.751961,73.9565429 C301.108782,76.1424505 295.644012,77.4175633 288.175495,77.4175633 C282.892884,77.4175633 277.792433,76.6889275 273.0563,75.2316557 C268.320167,73.7743839 264.13051,71.4063173 260.66949,68.1274557 C257.208469,65.0307532 254.293926,61.0232558 252.290177,56.1049636 C250.286428,51.1866713 249.193474,45.5397431 249.193474,38.7998612 C249.193474,32.6064561 250.104269,27.1416869 252.108018,22.2233947 C254.111767,17.4872614 256.661992,13.479764 260.123013,10.2009025 C263.584033,6.92204096 267.409372,4.37181534 272.145505,2.73238459 C276.699479,1.09295384 281.617772,0.182158973 286.718223,0.182158973 C294.004582,0.182158973 299.833669,1.45727178 303.841166,3.82533842 C307.848664,6.19340507 309.852412,9.2901076 309.852412,13.115446 C309.852412,15.1191947 309.305935,16.9407844 308.212982,18.5802152 C307.120028,20.037487 306.027074,21.3125998 304.569802,22.2233947 C302.566053,20.9482818 300.197987,19.673169 297.82992,18.7623742 C295.826171,17.4872614 293.093787,17.1229434 289.997084,17.1229434 Z" id="Path" fill="url(#linearGradient-9)"></path>
                        <path d="M386.359181,74.6851788 C385.448386,74.8673377 384.173273,75.2316557 382.169524,75.4138146 C380.165776,75.5959736 378.526345,75.7781326 376.522596,75.7781326 C374.701007,75.7781326 373.061576,75.5959736 371.604304,75.4138146 C370.147032,75.0494967 369.054078,74.6851788 368.143284,73.9565429 C367.232489,73.227907 366.503853,72.3171121 365.957376,70.8598403 C365.410899,69.5847275 365.22874,67.9452968 365.22874,65.7593891 L365.22874,46.9970149 L342.276709,46.9970149 L342.276709,74.5030198 C341.365915,74.6851788 340.090802,75.0494967 338.087053,75.2316557 C336.265463,75.4138146 334.443874,75.5959736 332.440125,75.5959736 C330.618535,75.5959736 328.979104,75.4138146 327.521833,75.2316557 C326.064561,75.0494967 324.971607,74.5030198 324.060812,73.7743839 C323.150017,73.045748 322.421381,72.1349531 321.874905,70.6776814 C321.328428,69.4025686 321.146269,67.7631378 321.146269,65.5772301 L321.146269,2.18590767 C322.057064,2.0037487 323.332176,1.82158973 325.335925,1.45727178 C327.339674,1.09295384 329.161263,1.09295384 330.800694,1.09295384 C332.622284,1.09295384 334.261715,1.27511281 335.718986,1.45727178 C337.176258,1.82158973 338.269212,2.18590767 339.180007,2.91454356 C340.090802,3.64317945 340.819438,4.55397431 341.365915,5.82908712 C341.912392,7.10419993 342.094551,8.74363068 342.094551,10.9295384 L342.094551,30.0562305 L365.046581,30.0562305 L365.046581,2.0037487 C365.957376,1.82158973 367.232489,1.63943075 369.236237,1.27511281 C371.239986,0.910794863 373.061576,0.910794863 374.701007,0.910794863 C376.522596,0.910794863 378.162027,1.09295384 379.619299,1.27511281 C381.076571,1.63943075 382.169524,2.0037487 383.080319,2.73238459 C383.991114,3.46102048 384.71975,4.37181534 385.266227,5.64692815 C385.812704,6.92204096 385.994863,8.56147171 385.994863,10.7473794 L385.994863,74.6851788 L386.359181,74.6851788 Z" id="Path" fill="url(#linearGradient-10)"></path>
                        <path d="M398.381673,38.6177022 C398.381673,32.4242971 399.292468,26.777369 401.296217,22.0412357 C403.299965,17.3051024 405.850191,13.297605 409.311211,10.0187435 C412.772232,6.73988199 416.779729,4.37181534 421.333704,2.55022562 C425.887678,0.910794863 430.988129,0 436.270739,0 C441.55335,0 446.653801,0.910794863 451.207775,2.55022562 C455.761749,4.18965637 459.769247,6.73988199 463.230267,10.0187435 C466.691288,13.297605 469.423672,17.3051024 471.245262,22.0412357 C473.066852,26.777369 474.159806,32.4242971 474.159806,38.6177022 C474.159806,44.8111073 473.249011,50.4580354 471.245262,55.1941687 C469.241513,60.112461 466.691288,64.1199583 463.230267,67.3988199 C459.769247,70.6776814 455.761749,73.045748 451.207775,74.8673377 C446.653801,76.5067685 441.55335,77.4175633 436.08858,77.4175633 C430.623811,77.4175633 425.52336,76.5067685 420.969386,74.8673377 C416.415411,73.227907 412.407914,70.6776814 408.946893,67.3988199 C405.668032,64.1199583 402.935647,60.112461 401.114058,55.1941687 C399.292468,50.2758764 398.381673,44.8111073 398.381673,38.6177022 Z M419.876432,38.6177022 C419.876432,45.9040611 421.333704,51.3688303 424.248247,55.0120097 C427.162791,58.6551892 431.170288,60.4767789 436.08858,60.4767789 C441.189032,60.4767789 445.196529,58.6551892 448.111073,55.0120097 C451.025616,51.3688303 452.482888,45.9040611 452.482888,38.6177022 C452.482888,31.3313433 451.025616,26.0487331 448.111073,22.4055536 C445.196529,18.7623742 441.189032,16.9407844 436.270739,16.9407844 C431.352447,16.9407844 427.34495,18.7623742 424.248247,22.2233947 C421.515863,25.8665741 419.876432,31.3313433 419.876432,38.6177022 Z" id="Shape" fill="url(#linearGradient-11)"></path>
                        <path d="M482.721277,38.6177022 C482.721277,32.4242971 483.632072,26.777369 485.635821,22.0412357 C487.63957,17.3051024 490.189795,13.297605 493.650816,10.0187435 C497.111836,6.73988199 501.119334,4.37181534 505.673308,2.55022562 C510.227282,0.910794863 515.327733,0 520.610344,0 C525.892954,0 530.993405,0.910794863 535.547379,2.55022562 C540.101354,4.18965637 544.108851,6.73988199 547.569872,10.0187435 C551.030892,13.297605 553.763277,17.3051024 555.584866,22.0412357 C557.406456,26.777369 558.49941,32.4242971 558.49941,38.6177022 C558.49941,44.8111073 557.588615,50.4580354 555.584866,55.1941687 C553.581118,60.112461 551.030892,64.1199583 547.569872,67.3988199 C544.108851,70.6776814 540.101354,73.045748 535.547379,74.8673377 C530.993405,76.5067685 525.892954,77.4175633 520.428185,77.4175633 C514.963415,77.4175633 509.862964,76.5067685 505.30899,74.8673377 C500.755016,73.227907 496.747518,70.6776814 493.286498,67.3988199 C490.007636,64.1199583 487.275252,60.112461 485.453662,55.1941687 C483.632072,50.2758764 482.721277,44.8111073 482.721277,38.6177022 Z M504.216036,38.6177022 C504.216036,45.9040611 505.673308,51.3688303 508.587851,55.0120097 C511.502395,58.6551892 515.509892,60.4767789 520.428185,60.4767789 C525.528636,60.4767789 529.536133,58.6551892 532.450677,55.0120097 C535.36522,51.3688303 536.822492,45.9040611 536.822492,38.6177022 C536.822492,31.3313433 535.36522,26.0487331 532.450677,22.4055536 C529.536133,18.7623742 525.528636,16.9407844 520.610344,16.9407844 C515.692051,16.9407844 511.684554,18.7623742 508.587851,22.2233947 C505.855467,25.8665741 504.216036,31.3313433 504.216036,38.6177022 Z" id="Shape" fill="url(#linearGradient-12)"></path>
                        <path d="M581.815758,75.4138146 C578.354738,75.4138146 575.622353,74.5030198 573.618605,72.4992711 C571.614856,70.4955224 570.704061,67.7631378 570.704061,64.3021173 L570.704061,2.36806664 C571.614856,2.18590767 572.889969,2.0037487 574.893717,1.63943075 C576.897466,1.27511281 578.719056,1.27511281 580.358487,1.27511281 C582.180076,1.27511281 583.819507,1.45727178 585.276779,1.63943075 C586.734051,2.0037487 587.827005,2.36806664 588.737799,3.09670253 C589.648594,3.82533842 590.37723,4.73613329 590.923707,6.19340507 C591.470184,7.46851788 591.652343,9.10794863 591.652343,11.2938563 L591.652343,58.6551892 L619.158348,58.6551892 C619.704825,59.565984 620.251302,60.6589379 620.797779,62.1162096 C621.344255,63.5734814 621.526414,65.2129122 621.526414,66.670184 C621.526414,69.7668865 620.797779,72.1349531 619.522666,73.4100659 C618.247553,74.6851788 616.425963,75.4138146 614.057897,75.4138146 L581.815758,75.4138146 Z" id="Path" fill="url(#linearGradient-13)"></path>
                        <path d="M671.620132,4.55397431 C672.895245,3.82533842 675.081152,2.91454356 677.813537,2.36806664 C680.545922,1.63943075 683.278306,1.27511281 686.19285,1.27511281 C690.200347,1.27511281 693.661368,1.82158973 696.75807,3.09670253 C699.854773,4.18965637 701.858521,6.0112461 702.769316,8.56147171 C704.226588,12.7511281 705.68386,17.4872614 707.505449,23.1341895 C709.14488,28.5989587 710.784311,34.4280458 712.605901,40.2571329 C714.245331,46.0862201 715.884762,51.9153072 717.524193,57.5622353 C719.163624,63.2091635 720.438737,68.3096147 721.713849,72.6814301 C720.803054,73.7743839 719.345783,74.6851788 717.342034,75.4138146 C715.338285,76.1424505 713.152378,76.5067685 710.602152,76.5067685 C708.598403,76.5067685 707.141132,76.3246095 705.68386,75.9602916 C704.408747,75.5959736 703.315793,75.2316557 702.404998,74.5030198 C701.494203,73.7743839 700.947726,73.045748 700.40125,71.9527942 C699.854773,70.8598403 699.490455,69.7668865 698.943978,68.3096147 L696.75807,60.112461 L675.081152,60.112461 C674.352516,62.4805276 673.80604,65.0307532 673.077404,67.5809788 C672.348768,70.1312044 671.802291,72.6814301 671.073655,75.0494967 C669.980701,75.4138146 668.705588,75.7781326 667.612635,76.1424505 C666.337522,76.5067685 664.88025,76.5067685 663.05866,76.5067685 C659.051163,76.5067685 655.95446,75.7781326 653.950712,74.3208608 C651.946963,72.863589 651.036168,71.0419993 651.036168,68.4917737 C651.036168,67.3988199 651.218327,66.305866 651.582645,65.2129122 C651.946963,64.1199583 652.311281,62.8448455 652.675599,61.2054148 C653.222076,59.0195071 653.950712,56.2871225 655.043665,53.19042 C655.95446,49.9115585 657.229573,46.450538 658.322527,42.8073586 C659.59764,39.1641791 660.872753,35.3388407 662.147865,31.3313433 C663.422978,27.5060049 664.88025,23.6806664 665.973204,20.219646 C667.248317,16.7586255 668.34127,13.6619229 669.252065,10.9295384 C670.16286,8.01499479 671.073655,6.0112461 671.620132,4.55397431 Z M686.010691,20.037487 C684.917737,23.3163485 683.642624,27.1416869 682.185352,31.3313433 C680.728081,35.5209997 679.452968,39.710656 678.360014,43.9003124 L693.29705,43.9003124 C692.204096,39.528497 691.111142,35.3388407 689.836029,31.3313433 C688.743075,27.1416869 687.650121,23.4985075 686.739327,20.219646 L686.010691,20.219646 L686.010691,20.037487 Z" id="Shape" fill="url(#linearGradient-14)"></path>
                        <path d="M752.316557,74.6851788 C751.405762,74.8673377 750.130649,75.2316557 748.1269,75.4138146 C746.305311,75.5959736 744.483721,75.7781326 742.479972,75.7781326 C740.658383,75.7781326 739.018952,75.5959736 737.56168,75.4138146 C736.104408,75.0494967 735.011454,74.6851788 734.100659,73.9565429 C733.189865,73.227907 732.461229,72.3171121 731.914752,70.8598403 C731.368275,69.5847275 731.186116,67.9452968 731.186116,65.7593891 L731.186116,9.2901076 C731.186116,7.65067685 731.550434,6.37556404 732.643388,5.46476918 C733.554183,4.55397431 734.829295,3.82533842 736.468726,3.27886151 C739.201111,2.36806664 742.297813,1.63943075 745.758834,1.09295384 C749.219854,0.72863589 752.680875,0.364317945 756.324054,0.364317945 C767.435751,0.364317945 775.815064,2.73238459 781.644151,7.46851788 C787.473238,12.2046512 790.387782,18.5802152 790.387782,26.59521 C790.387782,30.6027074 789.841305,34.0637279 788.566192,37.1604304 C787.291079,40.2571329 785.46949,42.9895175 783.101423,45.3575842 C780.733356,47.7256508 777.636654,49.3650816 773.811316,50.6401944 C770.168136,51.9153072 765.796321,52.4617841 760.878028,52.4617841 L752.316557,52.4617841 L752.316557,74.6851788 Z M758.509962,36.0674766 C761.788823,36.0674766 764.521208,35.3388407 766.160639,33.6994099 C767.982228,32.0599792 768.893023,29.6919125 768.893023,26.59521 C768.893023,23.4985075 767.982228,21.3125998 766.160639,19.673169 C764.339049,18.0337383 761.606664,17.1229434 757.963485,17.1229434 C756.688372,17.1229434 755.595418,17.1229434 754.866782,17.1229434 C753.955988,17.1229434 753.227352,17.3051024 752.316557,17.4872614 L752.316557,36.0674766 L758.509962,36.0674766 L758.509962,36.0674766 Z" id="Shape" fill="url(#linearGradient-15)"></path>
                        <path d="M821.901284,74.6851788 C820.990489,74.8673377 819.715377,75.2316557 817.711628,75.4138146 C815.890038,75.5959736 814.068448,75.7781326 812.0647,75.7781326 C810.24311,75.7781326 808.603679,75.5959736 807.146407,75.4138146 C805.689136,75.2316557 804.596182,74.6851788 803.685387,73.9565429 C802.774592,73.227907 802.045956,72.3171121 801.499479,70.8598403 C800.953002,69.5847275 800.770843,67.9452968 800.770843,65.7593891 L800.770843,9.2901076 C800.770843,7.65067685 801.135161,6.37556404 802.228115,5.46476918 C803.13891,4.55397431 804.414023,3.82533842 806.053454,3.27886151 C808.785838,2.36806664 811.882541,1.63943075 815.343561,1.09295384 C818.804582,0.72863589 822.265602,0.364317945 825.908782,0.364317945 C837.020479,0.364317945 845.399792,2.73238459 851.228879,7.46851788 C857.057966,12.2046512 859.97251,18.5802152 859.97251,26.59521 C859.97251,30.6027074 859.426033,34.0637279 858.15092,37.1604304 C856.875807,40.2571329 855.054217,42.9895175 852.686151,45.3575842 C850.318084,47.7256508 847.221381,49.3650816 843.396043,50.6401944 C839.752864,51.9153072 835.381048,52.4617841 830.462756,52.4617841 L821.901284,52.4617841 L821.901284,74.6851788 L821.901284,74.6851788 Z M828.276848,36.0674766 C831.55571,36.0674766 834.288094,35.3388407 835.927525,33.6994099 C837.749115,32.0599792 838.65991,29.6919125 838.65991,26.59521 C838.65991,23.4985075 837.749115,21.3125998 835.927525,19.673169 C834.105935,18.0337383 831.373551,17.1229434 827.730371,17.1229434 C826.455259,17.1229434 825.362305,17.1229434 824.633669,17.1229434 C823.722874,17.1229434 822.994238,17.3051024 822.083443,17.4872614 L822.083443,36.0674766 L828.276848,36.0674766 L828.276848,36.0674766 Z" id="Shape" fill="url(#linearGradient-16)"></path>
                    </g>
                </g>
                <g id="Group-117" transform="translate(0.000000, 121.164179)">
                    <g id="Group" transform="translate(359.820896, 0.000000)">
                        <path d="M0,1.59104478 L9.05671642,1.59104478 L9.05671642,18.2358209 L24.3552239,1.59104478 L35.4925373,1.59104478 L19.4597015,19.4597015 C20.8059701,21.4179104 23.3761194,24.9671642 27.1701493,30.2298507 C30.9641791,35.4925373 33.6567164,39.4089552 35.6149254,41.9791045 L25.0895522,41.9791045 L13.2179104,25.9462687 L9.17910448,30.4746269 L9.17910448,41.9791045 L0,41.9791045 L0,1.59104478 Z" id="Path" fill="url(#linearGradient-17)"></path>
                        <polygon id="Path" fill="url(#linearGradient-18)" points="38.4298507 28.3940299 38.4298507 20.8059701 58.9910448 20.8059701 58.9910448 28.5164179 38.4298507 28.5164179"></polygon>
                        <polygon id="Path" fill="url(#linearGradient-19)" points="63.3970149 1.59104478 79.7970149 1.59104478 79.7970149 42.1014925 71.1074627 42.1014925 71.1074627 9.30149254 63.3970149 9.30149254"></polygon>
                        <path d="M105.253731,17.2567164 C106.232836,15.7880597 106.844776,14.441791 106.844776,13.0955224 C106.844776,11.7492537 106.355224,10.6477612 105.498507,9.66865672 C104.641791,8.8119403 103.41791,8.32238806 102.071642,8.32238806 C99.5014925,8.32238806 97.0537313,10.158209 94.8507463,13.7074627 L87.6298507,9.4238806 C89.4656716,6.48656716 91.5462687,4.28358209 93.8716418,2.81492537 C96.0746269,1.34626866 99.0119403,0.611940299 102.438806,0.611940299 C105.865672,0.611940299 109.047761,1.71343284 111.61791,3.91641791 C114.310448,6.11940299 115.534328,9.17910448 115.534328,12.9731343 C115.534328,15.0537313 115.044776,17.0119403 113.943284,18.9701493 C112.841791,20.9283582 110.883582,23.3761194 108.068657,26.3134328 L100.725373,33.9014925 L116.758209,33.9014925 L116.758209,41.9791045 L88.241791,41.9791045 L88.241791,35.2477612 L100.113433,23.1313433 C102.561194,20.6835821 104.274627,18.7253731 105.253731,17.2567164 Z" id="Path" fill="url(#linearGradient-20)"></path>
                    </g>
                    <rect id="Rectangle" fill="url(#linearGradient-21)" x="511.092537" y="20.0716418" width="333.629851" height="5.62985075"></rect>
                    <rect id="Rectangle" fill="url(#linearGradient-22)" x="0" y="20.0716418" width="327.38806" height="5.62985075"></rect>
                </g>
            </g>
        </g>
    </g>
</svg>