<svg height="511pt" viewBox="1 -60 511.99999 511" width="511pt" xmlns="http://www.w3.org/2000/svg"><path d="m255.652344 275.246094 8.816406 67.101562h-92.617188l8.828126-67.101562 37.476562-15.28125zm0 0" fill="#ffc843"/><path d="m175.351562 315.742188h85.621094l-5.320312-40.496094-37.496094-15.28125-37.476562 15.28125zm0 0" fill="#ffa816"/><path d="m428.8125 21.226562v214.140626l-210.65625 10.828124-210.660156-10.828124v-214.140626c0-7.304687 5.917968-13.222656 13.222656-13.222656h394.882812c7.304688 0 13.210938 5.917969 13.210938 13.222656zm0 0" fill="#fff"/><path d="m401.613281 151.558594h-82.164062c-12.871094 0-23.304688 10.433594-23.304688 23.304687v100.382813h119.148438c7.464843 0 13.519531-6.054688 13.519531-13.523438v-110.164062zm0 0" fill="#e1eaf8"/><path d="m50.316406 51.609375h110.347656v70h-110.347656zm0 0" fill="#76ffd9"/><path d="m504.5 112.019531v14.828125l-88.851562 12.164063-92.304688-12.164063v-14.828125c0-12.875 10.433594-23.308593 23.308594-23.308593h134.539062c12.875 0 23.308594 10.433593 23.308594 23.308593zm0 0" fill="#ffc843"/><path d="m504.5 344.546875v16.425781c0 12.863282-10.433594 23.296875-23.308594 23.296875h-134.539062c-12.875 0-23.308594-10.433593-23.308594-23.296875v-16.425781l90.578125-10.40625zm0 0" fill="#ffc843"/><path d="m428.8125 235.367188v26.355468c0 7.46875-6.054688 13.523438-13.519531 13.523438h-394.574219c-7.304688 0-13.222656-5.917969-13.222656-13.210938v-26.667968zm0 0" fill="#ffc843"/><path d="m296.144531 275.246094h119.148438c7.464843 0 13.519531-6.054688 13.519531-13.523438v-26.355468h-132.667969zm0 0" fill="#ffa816"/><path d="m504.5 126.847656v217.699219h-181.15625v-217.699219zm0 0" fill="#fff"/><path d="m358.75 158.796875h110.347656v70h-110.347656zm0 0" fill="#76ffd9"/><path d="m299.804688 334.84375h-28.753907l-6.847656-52.101562h31.597656c4.144531 0 7.503907-3.359376 7.503907-7.5 0-4.144532-3.359376-7.5-7.503907-7.5h-275.078125c-3.15625 0-5.722656-2.5625-5.722656-5.710938v-240.808594c0-3.15625 2.566406-5.722656 5.722656-5.722656h394.882813c3.148437 0 5.710937 2.566406 5.710937 5.722656v39.53125c0 4.140625 3.355469 7.5 7.5 7.5 4.144532 0 7.5-3.359375 7.5-7.5v-39.53125c0-11.425781-9.289062-20.722656-20.710937-20.722656h-394.882813c-11.425781 0-20.722656 9.296875-20.722656 20.722656v240.808594c0 11.417969 9.296875 20.710938 20.722656 20.710938h228.351563l6.847656 52.101562h-75.664063l3.464844-30.324219c.46875-4.117187-2.484375-7.832031-6.601562-8.304687-4.121094-.464844-7.832032 2.484375-8.304688 6.601562l-3.65625 32.027344h-28.636718c-4.144532 0-7.5 3.355469-7.5 7.5 0 4.140625 3.355468 7.5 7.5 7.5h163.28125c4.140624 0 7.5-3.359375 7.5-7.5 0-4.144531-3.359376-7.5-7.5-7.5zm0 0" fill="#434c54"/><path d="m481.195312 81.210938h-134.542968c-16.984375 0-30.804688 13.820312-30.804688 30.804687v248.953125c0 16.984375 13.820313 30.804688 30.804688 30.804688h134.542968c16.984376 0 30.804688-13.816407 30.804688-30.804688v-248.953125c0-16.984375-13.820312-30.804687-30.804688-30.804687zm15.804688 279.757812c0 8.714844-7.089844 15.804688-15.804688 15.804688h-134.542968c-8.714844 0-15.804688-7.089844-15.804688-15.804688v-248.953125c0-8.714844 7.089844-15.804687 15.804688-15.804687h134.542968c8.714844 0 15.804688 7.089843 15.804688 15.804687zm0 0" fill="#434c54"/><g fill="#76ffd9"><path d="m279.074219 150.527344h-229.683594c-4.140625 0-7.5 3.355468-7.5 7.5 0 4.140625 3.359375 7.5 7.5 7.5h229.683594c4.140625 0 7.5-3.359375 7.5-7.5 0-4.144532-3.359375-7.5-7.5-7.5zm0 0"/><path d="m279.074219 189.898438h-229.683594c-4.140625 0-7.5 3.359374-7.5 7.5 0 4.144531 3.359375 7.5 7.5 7.5h229.683594c4.140625 0 7.5-3.355469 7.5-7.5 0-4.140626-3.359375-7.5-7.5-7.5zm0 0"/><path d="m469.09375 260.664062h-106.898438c-4.140624 0-7.5 3.359376-7.5 7.5 0 4.144532 3.359376 7.5 7.5 7.5h106.898438c4.144531 0 7.5-3.355468 7.5-7.5 0-4.140624-3.355469-7.5-7.5-7.5zm0 0"/><path d="m469.09375 300.039062h-106.898438c-4.140624 0-7.5 3.359376-7.5 7.5 0 4.144532 3.359376 7.5 7.5 7.5h106.898438c4.144531 0 7.5-3.355468 7.5-7.5 0-4.140624-3.355469-7.5-7.5-7.5zm0 0"/></g></svg>