<?xml version="1.0" encoding="UTF-8"?>
<svg version="1.1" xmlns="http://www.w3.org/2000/svg" width="500" height="500">
<path d="M0 0 C9.27301094 -0.40102842 18.01930314 -0.60170422 25.46337891 5.68994141 C29.50310664 9.98094408 31.60879602 14.39975744 31.58837891 20.41259766 C31.26080755 24.76359986 30.80469869 27.90330912 27.59619141 31.11181641 C27.59619141 28.80181641 27.59619141 26.49181641 27.59619141 24.11181641 C26.27619141 24.11181641 24.95619141 24.11181641 23.59619141 24.11181641 C23.49822266 23.30357422 23.40025391 22.49533203 23.29931641 21.66259766 C22.3902246 13.4510106 22.3902246 13.4510106 17.59619141 7.11181641 C8.90261026 1.44781657 -0.56382576 2.47181927 -10.40380859 4.11181641 C-10.40380859 10.71181641 -10.40380859 17.31181641 -10.40380859 24.11181641 C-12.71380859 24.11181641 -15.02380859 24.11181641 -17.40380859 24.11181641 C-17.46439453 22.99162109 -17.52498047 21.87142578 -17.58740234 20.71728516 C-17.67182284 19.24461657 -17.75647008 17.77196097 -17.84130859 16.29931641 C-17.880625 15.56132812 -17.91994141 14.82333984 -17.96044922 14.06298828 C-18.14761894 10.88110299 -18.39101652 8.15019262 -19.40380859 5.11181641 C-21.40397326 3.90299544 -21.40397326 3.90299544 -23.40380859 3.11181641 C-23.40380859 2.45181641 -23.40380859 1.79181641 -23.40380859 1.11181641 C-15.60461601 0.68408939 -7.80220281 0.36293001 0 0 Z " fill="#020202" transform="translate(369.40380859375,210.88818359375)"/>
<path d="M0 0 C16.83 0 33.66 0 51 0 C51 3.63 51 7.26 51 11 C50.34 11 49.68 11 49 11 C48.814375 10.401875 48.62875 9.80375 48.4375 9.1875 C45.80618477 5.18332466 41.55519687 4.33654126 37.09375 3.37109375 C34.40270669 2.87519273 31.70177843 2.43361876 29 2 C29 8.93 29 15.86 29 23 C26.69 23 24.38 23 22 23 C22 16.07 22 9.14 22 2 C19.793125 2.433125 17.58625 2.86625 15.3125 3.3125 C14.07113281 3.55613281 12.82976562 3.79976562 11.55078125 4.05078125 C6.48037503 5.40623638 3.69646333 7.30353667 0 11 C0 7.37 0 3.74 0 0 Z " fill="#030303" transform="translate(95,212)"/>
<path d="M0 0 C6.11261902 -0.42155993 9.14727518 -0.11426669 14 4 C17.99281028 7.93796399 20.96475626 12.42787375 24 17.125 C26.97649903 21.67495367 29.57266964 24.88074452 34 28 C35.33563592 28.9969225 36.66940107 29.99636448 38 31 C25.95773328 32.35287601 25.95773328 32.35287601 21.86328125 29.5234375 C20.00120698 27.11581604 18.51237171 24.64318176 17 22 C15.3666113 19.41543555 13.68493202 16.86367353 12 14.3125 C11.57509277 13.65870361 11.15018555 13.00490723 10.71240234 12.33129883 C7.64933423 7.70600695 4.4878218 4.31708567 0 1 C0 0.67 0 0.34 0 0 Z " fill="#010101" transform="translate(367,254)"/>
<path d="M0 0 C2.64 0 5.28 0 8 0 C10.64 6.6 13.28 13.2 16 20 C18.78728629 13.37077855 21.53202474 6.75445862 24 0 C24.99 0.33 25.98 0.66 27 1 C23.04 11.56 19.08 22.12 15 33 C14.01 32.67 13.02 32.34 12 32 C10.88098523 29.71612627 9.95832116 27.53246713 9.08203125 25.15625 C8.81992355 24.47195923 8.55781586 23.78766846 8.2877655 23.0826416 C7.45197402 20.89232381 6.63234474 18.69632976 5.8125 16.5 C5.24905171 15.01914853 4.68461069 13.53867438 4.11914062 12.05859375 C0 1.22369964 0 1.22369964 0 0 Z " fill="#010101" transform="translate(276,254)"/>
<path d="M0 0 C2.31 0 4.62 0 7 0 C7.04487549 0.77190674 7.08975098 1.54381348 7.13598633 2.33911133 C7.34709943 5.83128486 7.57953668 9.32171893 7.8125 12.8125 C7.88275391 14.02744141 7.95300781 15.24238281 8.02539062 16.49414062 C8.10595703 17.65751953 8.18652344 18.82089844 8.26953125 20.01953125 C8.37164917 21.62985229 8.37164917 21.62985229 8.47583008 23.27270508 C9.05494043 26.28585911 9.64474606 27.13407382 12 29 C12.66 29.66 13.32 30.32 14 31 C7.4 31 0.8 31 -6 31 C-4.68 30.34 -3.36 29.68 -2 29 C-0.69968221 25.86810786 -0.80354554 22.49927525 -0.68359375 19.140625 C-0.64169922 18.02558594 -0.59980469 16.91054688 -0.55664062 15.76171875 C-0.51732422 14.60285156 -0.47800781 13.44398438 -0.4375 12.25 C-0.39431641 11.07566406 -0.35113281 9.90132813 -0.30664062 8.69140625 C-0.20065206 5.79438549 -0.09858362 2.89728065 0 0 Z " fill="#010101" transform="translate(177,254)"/>
<path d="M0 0 C2.31 0 4.62 0 7 0 C7.02505615 0.70084717 7.0501123 1.40169434 7.07592773 2.1237793 C7.19226545 5.31185488 7.31482044 8.49966242 7.4375 11.6875 C7.47681641 12.79029297 7.51613281 13.89308594 7.55664062 15.02929688 C7.61948242 16.6293457 7.61948242 16.6293457 7.68359375 18.26171875 C7.72025146 19.24100342 7.75690918 20.22028809 7.79467773 21.22924805 C8.07714772 25.17474349 8.07714772 25.17474349 9 29 C10.32 29.66 11.64 30.32 13 31 C6.4 31 -0.2 31 -7 31 C-5.35 29.35 -3.7 27.7 -2 26 C-1.14376306 23.031859 -1.14376306 23.031859 -1.07421875 19.82421875 C-1.00009766 18.66728516 -0.92597656 17.51035156 -0.84960938 16.31835938 C-0.79611328 15.12017578 -0.74261719 13.92199219 -0.6875 12.6875 C-0.61466797 11.46998047 -0.54183594 10.25246094 -0.46679688 8.99804688 C-0.29039596 5.99923132 -0.13558153 3.00089246 0 0 Z " fill="#010101" transform="translate(220,254)"/>
<path d="M0 0 C2.31 0 4.62 0 7 0 C7.04487549 0.77190674 7.08975098 1.54381348 7.13598633 2.33911133 C7.34709943 5.83128486 7.57953668 9.32171893 7.8125 12.8125 C7.88275391 14.02744141 7.95300781 15.24238281 8.02539062 16.49414062 C8.10595703 17.65751953 8.18652344 18.82089844 8.26953125 20.01953125 C8.37164917 21.62985229 8.37164917 21.62985229 8.47583008 23.27270508 C9.05494043 26.28585911 9.64474606 27.13407382 12 29 C12.66 29.66 13.32 30.32 14 31 C7.4 31 0.8 31 -6 31 C-4.68 30.34 -3.36 29.68 -2 29 C-0.69968221 25.86810786 -0.80354554 22.49927525 -0.68359375 19.140625 C-0.64169922 18.02558594 -0.59980469 16.91054688 -0.55664062 15.76171875 C-0.51732422 14.60285156 -0.47800781 13.44398438 -0.4375 12.25 C-0.39431641 11.07566406 -0.35113281 9.90132813 -0.30664062 8.69140625 C-0.20065206 5.79438549 -0.09858362 2.89728065 0 0 Z " fill="#010101" transform="translate(352,254)"/>
<path d="M0 0 C2.31 0 4.62 0 7 0 C7.02505615 0.74161377 7.0501123 1.48322754 7.07592773 2.24731445 C7.19186132 5.60255328 7.31459985 8.95750944 7.4375 12.3125 C7.47681641 13.47974609 7.51613281 14.64699219 7.55664062 15.84960938 C7.61948242 17.52700195 7.61948242 17.52700195 7.68359375 19.23828125 C7.72025146 20.26993408 7.75690918 21.30158691 7.79467773 22.36450195 C7.90161242 25.10748258 7.90161242 25.10748258 9 28 C10.32 28.99 11.64 29.98 13 31 C6.4 31 -0.2 31 -7 31 C-5.35 29.35 -3.7 27.7 -2 26 C-0.94555769 22.68144565 -0.83258709 19.3873852 -0.68359375 15.91796875 C-0.64169922 14.98662109 -0.59980469 14.05527344 -0.55664062 13.09570312 C-0.51732422 12.13599609 -0.47800781 11.17628906 -0.4375 10.1875 C-0.39431641 9.20845703 -0.35113281 8.22941406 -0.30664062 7.22070312 C-0.2009774 4.81392973 -0.09887673 2.40706017 0 0 Z " fill="#010101" transform="translate(117,254)"/>
<path d="M0 0 C7.92 0 15.84 0 24 0 C24 0.66 24 1.32 24 2 C20.535 3.485 20.535 3.485 17 5 C16.68354215 10.06332554 17.33142781 13.54497178 19.34375 18.203125 C20 20 20 20 20 23 C17.69 23 15.38 23 13 23 C12.78384033 22.47043701 12.56768066 21.94087402 12.3449707 21.39526367 C11.35049742 18.98554793 10.33187447 16.58678175 9.3125 14.1875 C8.97283203 13.35412109 8.63316406 12.52074219 8.28320312 11.66210938 C6.23137908 6.88730389 4.88884676 4.30315198 0 2 C0 1.34 0 0.68 0 0 Z " fill="#020202" transform="translate(256,212)"/>
<path d="M0 0 C6.6 0 13.2 0 20 0 C20 0.66 20 1.32 20 2 C19.360625 2.28875 18.72125 2.5775 18.0625 2.875 C15.84793921 3.82823451 15.84793921 3.82823451 15 6 C14.79396355 8.30932523 14.63376638 10.62286383 14.5 12.9375 C14.11013767 19.66958698 14.11013767 19.66958698 13 23 C10.69 23 8.38 23 6 23 C5.93941406 21.87980469 5.87882813 20.75960937 5.81640625 19.60546875 C5.73198576 18.13280016 5.64733851 16.66014456 5.5625 15.1875 C5.52318359 14.44951172 5.48386719 13.71152344 5.44335938 12.95117188 C5.25618965 9.76928658 5.01279207 7.03837622 4 4 C1.99983534 2.79117904 1.99983534 2.79117904 0 2 C0 1.34 0 0.68 0 0 Z " fill="#010101" transform="translate(171,212)"/>
<path d="M0 0 C6.6 0 13.2 0 20 0 C20 0.66 20 1.32 20 2 C18.68 2.33 17.36 2.66 16 3 C15.01857619 7.24733832 14.69079621 11.47324533 14.4375 15.8125 C14.39431641 16.50537109 14.35113281 17.19824219 14.30664062 17.91210938 C14.20138547 19.60788686 14.10027137 21.30392052 14 23 C11.69 23 9.38 23 7 23 C6.83564453 21.21142578 6.83564453 21.21142578 6.66796875 19.38671875 C6.50850701 17.82024165 6.34831249 16.25383901 6.1875 14.6875 C6.11724609 13.90181641 6.04699219 13.11613281 5.97460938 12.30664062 C5.89404297 11.54931641 5.81347656 10.79199219 5.73046875 10.01171875 C5.62835083 8.96697388 5.62835083 8.96697388 5.52416992 7.90112305 C4.86873523 5.52391302 3.8789003 4.56057062 2 3 C1.34 2.67 0.68 2.34 0 2 C0 1.34 0 0.68 0 0 Z " fill="#010101" transform="translate(213,212)"/>
<path d="M0 0 C0.66 0 1.32 0 2 0 C2 30.36 2 60.72 2 92 C1.34 92 0.68 92 0 92 C0 61.64 0 31.28 0 0 Z " fill="#232323" transform="translate(249,254)"/>
<path d="M0 0 C0.33 0 0.66 0 1 0 C1 31.68 1 63.36 1 96 C0.34 96 -0.32 96 -1 96 C-1.02324773 85.10735878 -1.04097817 74.21472354 -1.05181217 63.32206249 C-1.05701392 58.26328335 -1.06406199 53.20452128 -1.07543945 48.14575195 C-1.08636507 43.25687303 -1.09229721 38.36801045 -1.09487724 33.47912025 C-1.09671414 31.62097225 -1.10030091 29.76282505 -1.10573006 27.90468407 C-1.1581055 9.22323394 -1.1581055 9.22323394 0 0 Z " fill="#0A0D0B" transform="translate(250,139)"/>
<path d="M0 0 C6.93 0 13.86 0 21 0 C21 0.66 21 1.32 21 2 C20.08734375 2.35384766 20.08734375 2.35384766 19.15625 2.71484375 C16.45196644 4.32663594 15.81416957 5.72549203 14.5 8.5625 C14.08363281 9.44808594 13.66726563 10.33367187 13.23828125 11.24609375 C12.82964844 12.15488281 12.42101562 13.06367188 12 14 C11.60167969 14.87785156 11.20335937 15.75570312 10.79296875 16.66015625 C9.84778354 18.76761868 8.9166222 20.87999111 8 23 C7.01 22.67 6.02 22.34 5 22 C5.2165625 21.43152344 5.433125 20.86304688 5.65625 20.27734375 C7.40830378 15.41863905 8.73245726 11.23183756 8 6 C5.64499209 3.47677724 3.36230209 2.60041109 0 2 C0 1.34 0 0.68 0 0 Z " fill="#030303" transform="translate(302,212)"/>
<path d="M0 0 C2.43105596 2.11737132 2.92405692 3.37726673 3.3125 6.5625 C3 9 3 9 1 12 C1.66 12 2.32 12 3 12 C2.67 12.99 2.34 13.98 2 15 C-2.26062544 14.37343743 -6.8676336 13.1323664 -10 10 C-10.45681382 3.83301344 -10.45681382 3.83301344 -8.9375 1.0625 C-5.84506242 -0.63335287 -3.44485259 -0.43060657 0 0 Z M-6 2 C-6.66 2.66 -7.32 3.32 -8 4 C-7.71016731 7.30683466 -7.71016731 7.30683466 -6 10 C-4.33382885 10.04063832 -2.66611905 10.042721 -1 10 C-0.34 8.35 0.32 6.7 1 5 C-0.2488427 3.4166747 -0.2488427 3.4166747 -2 2 C-3.32 2 -4.64 2 -6 2 Z " fill="#0E0E0E" transform="translate(74,237)"/>
<path d="M0 0 C0.99 0 1.98 0 3 0 C3.99 1.98 4.98 3.96 6 6 C8.0245738 4.06745228 9.42105792 2.36841312 11 0 C11.66 0 12.32 0 13 0 C13 3.96 13 7.92 13 12 C12.34 12 11.68 12 11 12 C10.67 10.35 10.34 8.7 10 7 C9.34 8.32 8.68 9.64 8 11 C5 10 5 10 3 7 C2.67 8.65 2.34 10.3 2 12 C1.34 12 0.68 12 0 12 C0 8.04 0 4.08 0 0 Z " fill="#110F0F" transform="translate(172,237)"/>
<path d="M0 0 C3.76687864 1.88343932 4.79421646 2.69132469 7 6 C7.33 4.02 7.66 2.04 8 0 C8.99 0 9.98 0 11 0 C11 3.96 11 7.92 11 12 C6.40962044 10.85240511 5.66330818 9.70960782 3 6 C2.67 7.98 2.34 9.96 2 12 C1.34 12 0.68 12 0 12 C0 8.04 0 4.08 0 0 Z " fill="#0F0F0F" transform="translate(419,237)"/>
<path d="M0 0 C3.76687864 1.88343932 4.79421646 2.69132469 7 6 C7.33 4.02 7.66 2.04 8 0 C8.99 0 9.98 0 11 0 C11 3.96 11 7.92 11 12 C6.40962044 10.85240511 5.66330818 9.70960782 3 6 C2.67 7.98 2.34 9.96 2 12 C1.34 12 0.68 12 0 12 C0 8.04 0 4.08 0 0 Z " fill="#0F0E0C" transform="translate(120,237)"/>
<path d="M0 0 C2.38038356 2.60354452 3 4.10369569 3 7.625 C2 10 2 10 -0.1875 11.9375 C-3 13 -3 13 -6.1875 12.5625 C-9 11 -9 11 -10.5 8.125 C-11 5 -11 5 -10.25 2.6875 C-7.58567614 -0.90933721 -4.16632171 -0.43856018 0 0 Z M-6 2 C-8.26839983 3.83265325 -8.26839983 3.83265325 -8.1875 6.5625 C-8.27003323 8.94689723 -8.27003323 8.94689723 -7 10 C-4 10.16666667 -4 10.16666667 -1 10 C0.27003323 8.94689723 0.27003323 8.94689723 0.1875 6.5625 C0.26839983 3.83265325 0.26839983 3.83265325 -2 2 C-3.32 2 -4.64 2 -6 2 Z " fill="#0B0B0A" transform="translate(331,237)"/>
<path d="M0 0 C2.42061048 2.10827364 2.9127007 3.40345478 3.375 6.5625 C3 9 3 9 1.8125 10.75 C-0.55650431 12.38379608 -2.1160423 12.86266868 -5 13 C-7.8125 12 -7.8125 12 -10 10 C-10.49748049 6.51763658 -10.653547 4.19176217 -8.9375 1.0625 C-5.84506242 -0.63335287 -3.44485259 -0.43060657 0 0 Z M-6 2 C-6.66 2.66 -7.32 3.32 -8 4 C-7.71016731 7.30683466 -7.71016731 7.30683466 -6 10 C-4.33382885 10.04063832 -2.66611905 10.042721 -1 10 C-0.34 8.35 0.32 6.7 1 5 C-0.2488427 3.4166747 -0.2488427 3.4166747 -2 2 C-3.32 2 -4.64 2 -6 2 Z " fill="#111011" transform="translate(409,237)"/>
<path d="M0 0 C2.97 0 5.94 0 9 0 C9 0.66 9 1.32 9 2 C7.02 2 5.04 2 3 2 C3 2.99 3 3.98 3 5 C4.98 5 6.96 5 9 5 C9 5.66 9 6.32 9 7 C7.02 7 5.04 7 3 7 C3 7.99 3 8.98 3 10 C5.31 10 7.62 10 10 10 C10 10.66 10 11.32 10 12 C6.7 12 3.4 12 0 12 C0 8.04 0 4.08 0 0 Z " fill="#121212" transform="translate(208,237)"/>
<path d="M0 0 C0.94875 0.04125 1.8975 0.0825 2.875 0.125 C3.205 1.115 3.535 2.105 3.875 3.125 C1.895 3.125 -0.085 3.125 -2.125 3.125 C-1.50625 3.434375 -0.8875 3.74375 -0.25 4.0625 C1.125 4.75 2.5 5.4375 3.875 6.125 C4.0625 8.5 4.0625 8.5 3.875 11.125 C0.875 13.125 0.875 13.125 -2.3125 12.75 C-3.7046875 12.440625 -3.7046875 12.440625 -5.125 12.125 C-5.125 11.135 -5.125 10.145 -5.125 9.125 C-2.815 9.455 -0.505 9.785 1.875 10.125 C1.875 9.465 1.875 8.805 1.875 8.125 C0.905625 7.8775 -0.06375 7.63 -1.0625 7.375 C-4.125 6.125 -4.125 6.125 -5.125 4.125 C-5.125 0.41389311 -3.38352144 0.13534086 0 0 Z " fill="#0F0F0F" transform="translate(442.125,236.875)"/>
<path d="M0 0 C1.134375 0.020625 2.26875 0.04125 3.4375 0.0625 C3.4375 1.0525 3.4375 2.0425 3.4375 3.0625 C1.7875 3.0625 0.1375 3.0625 -1.5625 3.0625 C-0.5725 3.7225 0.4175 4.3825 1.4375 5.0625 C2.4275 5.7225 3.4175 6.3825 4.4375 7.0625 C4.1075 8.7125 3.7775 10.3625 3.4375 12.0625 C0.15053767 12.86203138 -1.27273192 13.15908936 -4.5625 12.0625 C-4.2325 11.0725 -3.9025 10.0825 -3.5625 9.0625 C-0.5925 9.5575 -0.5925 9.5575 2.4375 10.0625 C2.4375 9.4025 2.4375 8.7425 2.4375 8.0625 C0.1275 7.4025 -2.1825 6.7425 -4.5625 6.0625 C-4.605221 4.39638095 -4.60313832 2.72867115 -4.5625 1.0625 C-3.5625 0.0625 -3.5625 0.0625 0 0 Z " fill="#0D0C0C" transform="translate(309.5625,236.9375)"/>
<path d="M0 0 C3 1 3 1 4.16796875 2.99609375 C4.50441406 3.80175781 4.84085938 4.60742188 5.1875 5.4375 C5.53167969 6.24058594 5.87585938 7.04367188 6.23046875 7.87109375 C7 10 7 10 7 12 C6.01 11.67 5.02 11.34 4 11 C4 10.34 4 9.68 4 9 C2.02 9 0.04 9 -2 9 C-2.33 9.99 -2.66 10.98 -3 12 C-3.66 12 -4.32 12 -5 12 C-4.54738642 10.56068883 -4.08767021 9.12361001 -3.625 7.6875 C-3.24214844 6.48673828 -3.24214844 6.48673828 -2.8515625 5.26171875 C-2 3 -2 3 0 0 Z M0 4 C-0.33 4.99 -0.66 5.98 -1 7 C0.32 6.67 1.64 6.34 3 6 C2.67 5.34 2.34 4.68 2 4 C1.34 4 0.68 4 0 4 Z " fill="#0D0D0D" transform="translate(106,237)"/>
<path d="M0 0 C0.66 0 1.32 0 2 0 C2.33 2.97 2.66 5.94 3 9 C4.32 9 5.64 9 7 9 C7.33 6.03 7.66 3.06 8 0 C8.66 0 9.32 0 10 0 C10.02698189 1.62490954 10.04638757 3.24994633 10.0625 4.875 C10.07410156 5.77992188 10.08570313 6.68484375 10.09765625 7.6171875 C10 10 10 10 9 12 C6.125 12.75 6.125 12.75 3 13 C2.01 12.34 1.02 11.68 0 11 C-0.29296875 8.3984375 -0.29296875 8.3984375 -0.1875 5.375 C-0.16042969 4.37210938 -0.13335937 3.36921875 -0.10546875 2.3359375 C-0.07066406 1.56507813 -0.03585938 0.79421875 0 0 Z " fill="#101010" transform="translate(154,237)"/>
<path d="M0 0 C0.66 0 1.32 0 2 0 C2 1.65 2 3.3 2 5 C4.31 5 6.62 5 9 5 C9 3.35 9 1.7 9 0 C9.66 0 10.32 0 11 0 C11 3.96 11 7.92 11 12 C10.34 12 9.68 12 9 12 C9 10.35 9 8.7 9 7 C6.69 7 4.38 7 2 7 C2 8.65 2 10.3 2 12 C1.34 12 0.68 12 0 12 C0 8.04 0 4.08 0 0 Z " fill="#181817" transform="translate(242,237)"/>
<path d="M0 0 C0.66 0 1.32 0 2 0 C2.33 2.97 2.66 5.94 3 9 C4.32 9 5.64 9 7 9 C7.33 6.03 7.66 3.06 8 0 C8.66 0 9.32 0 10 0 C10.08086147 1.79093191 10.13912702 3.58289628 10.1875 5.375 C10.22230469 6.37273437 10.25710937 7.37046875 10.29296875 8.3984375 C10.19628906 9.25695312 10.09960938 10.11546875 10 11 C7 13 7 13 3.875 12.75 C2.451875 12.37875 2.451875 12.37875 1 12 C-0.26237731 9.47524538 -0.09856404 7.68799534 -0.0625 4.875 C-0.05347656 3.96492187 -0.04445313 3.05484375 -0.03515625 2.1171875 C-0.02355469 1.41851562 -0.01195313 0.71984375 0 0 Z " fill="#121212" transform="translate(84,237)"/>
<path d="M0 0 C0.66 0 1.32 0 2 0 C2.33 2.97 2.66 5.94 3 9 C4.32 9 5.64 9 7 9 C7.33 6.03 7.66 3.06 8 0 C8.66 0 9.32 0 10 0 C10.10824843 1.6026782 10.18570645 3.20745748 10.25 4.8125 C10.29640625 5.70582031 10.3428125 6.59914062 10.390625 7.51953125 C10 10 10 10 8.15234375 11.83984375 C6 13 6 13 3.3125 12.75 C1 12 1 12 0 11 C-0.07226502 9.14712498 -0.0838122 7.29166122 -0.0625 5.4375 C-0.05347656 4.42558594 -0.04445313 3.41367188 -0.03515625 2.37109375 C-0.02355469 1.58863281 -0.01195312 0.80617187 0 0 Z " fill="#0E0D0E" transform="translate(356,237)"/>
<path d="M0 0 C0.33 0.99 0.66 1.98 1 3 C-1.31 3 -3.62 3 -6 3 C-6.38218767 4.65614657 -6.71395102 6.32457024 -7 8 C-5.81575674 9.41577477 -5.81575674 9.41577477 -2.4375 9.0625 C-0.7359375 9.0315625 -0.7359375 9.0315625 1 9 C0.67 9.99 0.34 10.98 0 12 C-2.81736172 12.78260048 -4.45969238 13.19511109 -7.25 12.1875 C-9 11 -9 11 -10 9 C-10.44396083 3.78346028 -10.44396083 3.78346028 -8.9375 1.125 C-5.99772876 -0.58196395 -3.32129197 -0.18799766 0 0 Z " fill="#0E0E0E" transform="translate(234,237)"/>
<path d="M0 0 C3.63 0 7.26 0 11 0 C11 0.66 11 1.32 11 2 C9.68 2 8.36 2 7 2 C7 5.3 7 8.6 7 12 C6.01 12 5.02 12 4 12 C4 8.7 4 5.4 4 2 C2.68 2 1.36 2 0 2 C0 1.34 0 0.68 0 0 Z " fill="#0A0B0B" transform="translate(279,237)"/>
<path d="M0 0 C0.99 0.33 1.98 0.66 3 1 C0.36 7.93 -2.28 14.86 -5 22 C-5.66 21.67 -6.32 21.34 -7 21 C-4.96192707 13.8821847 -2.59655258 6.93292719 0 0 Z " fill="#0A0A0A" transform="translate(300,254)"/>
<path d="M0 0 C3.3 0 6.6 0 10 0 C10 0.66 10 1.32 10 2 C8.68 2 7.36 2 6 2 C6 5.3 6 8.6 6 12 C5.34 12 4.68 12 4 12 C4 8.7 4 5.4 4 2 C2.68 2 1.36 2 0 2 C0 1.34 0 0.68 0 0 Z " fill="#141414" transform="translate(373,237)"/>
<path d="M0 0 C3.3 0 6.6 0 10 0 C10 0.66 10 1.32 10 2 C8.68 2 7.36 2 6 2 C6 5.3 6 8.6 6 12 C5.34 12 4.68 12 4 12 C4 8.7 4 5.4 4 2 C2.68 2 1.36 2 0 2 C0 1.34 0 0.68 0 0 Z " fill="#131313" transform="translate(192,237)"/>
<path d="M0 0 C3.3 0 6.6 0 10 0 C10 0.66 10 1.32 10 2 C8.68 2 7.36 2 6 2 C6 5.3 6 8.6 6 12 C5.34 12 4.68 12 4 12 C4 8.7 4 5.4 4 2 C2.68 2 1.36 2 0 2 C0 1.34 0 0.68 0 0 Z " fill="#181818" transform="translate(137,237)"/>
<path d="M0 0 C0.66 0.33 1.32 0.66 2 1 C1.67 1.639375 1.34 2.27875 1 2.9375 C-0.07271225 4.76794567 -0.07271225 4.76794567 0 6 C0.66 6 1.32 6 2 6 C1.67 6.99 1.34 7.98 1 9 C-3.75 8.125 -3.75 8.125 -6 7 C-5.67 6.01 -5.34 5.02 -5 4 C-4.01 3.67 -3.02 3.34 -2 3 C-1.34 2.01 -0.68 1.02 0 0 Z " fill="#070707" transform="translate(75,243)"/>
<path d="M0 0 C0.66 0 1.32 0 2 0 C2 3.3 2 6.6 2 10 C3.98 10 5.96 10 8 10 C8 10.66 8 11.32 8 12 C5.36 12 2.72 12 0 12 C0 8.04 0 4.08 0 0 Z " fill="#101010" transform="translate(341,237)"/>
<path d="M0 0 C0.99 0 1.98 0 3 0 C3 3.96 3 7.92 3 12 C2.01 11.67 1.02 11.34 0 11 C-1.6691198 7.38357376 -0.65669883 3.79425988 0 0 Z " fill="#050505" transform="translate(427,237)"/>
<path d="M0 0 C0.99 0.33 1.98 0.66 3 1 C1.42607496 3.56798296 0.46307697 4.81720646 -2.375 5.9375 C-5.72496333 6.01726103 -7.31500099 4.91785643 -10 3 C-9.01 2.34 -8.02 1.68 -7 1 C-6.67 1.33 -6.34 1.66 -6 2 C-4.33382885 2.04063832 -2.66611905 2.042721 -1 2 C-0.67 1.34 -0.34 0.68 0 0 Z " fill="#0A0809" transform="translate(409,244)"/>
<path d="M0 0 C0.99 0 1.98 0 3 0 C3 3.96 3 7.92 3 12 C2.34 12 1.68 12 1 12 C0.01751476 7.9472484 -0.08159574 4.16138263 0 0 Z " fill="#050505" transform="translate(128,237)"/>
<path d="M0 0 C0.66 0 1.32 0 2 0 C2 3.96 2 7.92 2 12 C1.34 12 0.68 12 0 12 C0 8.04 0 4.08 0 0 Z " fill="#101010" transform="translate(389,237)"/>
<path d="M0 0 C0.66 0 1.32 0 2 0 C2 3.96 2 7.92 2 12 C1.34 12 0.68 12 0 12 C0 8.04 0 4.08 0 0 Z " fill="#131313" transform="translate(271,237)"/>
<path d="M0 0 C2.31 0 4.62 0 7 0 C7.66 1.32 8.32 2.64 9 4 C5.30581799 4 3.22163822 2.71820705 0 1 C0 0.67 0 0.34 0 0 Z " fill="#151514" transform="translate(324,237)"/>
<path d="M0 0 C0.66 0.33 1.32 0.66 2 1 C2 3.31 2 5.62 2 8 C1.01 8 0.02 8 -1 8 C-1.125 2.25 -1.125 2.25 0 0 Z " fill="#020202" transform="translate(284,241)"/>
<path d="M0 0 C2.31 0 4.62 0 7 0 C7 0.99 7 1.98 7 3 C4.69 2.67 2.38 2.34 0 2 C-0.33 2.99 -0.66 3.98 -1 5 C-0.67 3.35 -0.34 1.7 0 0 Z " fill="#121212" transform="translate(306,237)"/>
<path d="M0 0 C2.64 0 5.28 0 8 0 C7.67 0.99 7.34 1.98 7 3 C4.69 2.67 2.38 2.34 0 2 C0 1.34 0 0.68 0 0 Z " fill="#0A0A0A" transform="translate(302,212)"/>
</svg>
