<?xml version="1.0" encoding="UTF-8"?>
<svg version="1.1" xmlns="http://www.w3.org/2000/svg" width="500" height="500">
<path d="M0 0 C165 0 330 0 500 0 C500 165 500 330 500 500 C335 500 170 500 0 500 C0 335 0 170 0 0 Z " fill="#FEFEFE" transform="translate(0,0)"/>
<path d="M0 0 C4.16907864 3.79493056 7.74173228 7.45632657 8.16796875 13.3046875 C8.23262783 21.81382281 8.23262783 21.81382281 6 26 C5.67 26 5.34 26 5 26 C5 24.02 5 22.04 5 20 C4.01 20 3.02 20 2 20 C1.98582031 19.443125 1.97164063 18.88625 1.95703125 18.3125 C1.57088243 12.13411888 0.0050814 7.76795405 -4 3 C-8.38345533 -0.31431989 -12.35786207 -1.1323214 -17.765625 -1.09765625 C-18.56774414 -1.09515869 -19.36986328 -1.09266113 -20.19628906 -1.09008789 C-21.20401367 -1.08098389 -22.21173828 -1.07187988 -23.25 -1.0625 C-26.4675 -1.041875 -29.685 -1.02125 -33 -1 C-33 5.93 -33 12.86 -33 20 C-34.98 20 -36.96 20 -39 20 C-39.04898437 18.97519531 -39.09796875 17.95039063 -39.1484375 16.89453125 C-39.22351071 15.5338294 -39.29905655 14.17315356 -39.375 12.8125 C-39.4059375 12.13896484 -39.436875 11.46542969 -39.46875 10.77148438 C-39.6995889 6.8279865 -40.03656402 3.46451445 -42 0 C-44.02496391 -1.14029335 -44.02496391 -1.14029335 -46 -2 C-8.99767491 -5.77964527 -8.99767491 -5.77964527 0 0 Z " fill="#262626" transform="translate(392,215)"/>
<path d="M0 0 C16.83 0 33.66 0 51 0 C51 3.3 51 6.6 51 10 C50.34 9.401875 49.68 8.80375 49 8.1875 C42.64282974 3.55206336 36.99300491 2.88811166 29 2 C29 8.93 29 15.86 29 23 C26.69 23 24.38 23 22 23 C22 16.07 22 9.14 22 2 C9.68176639 3.1943172 9.68176639 3.1943172 0 10 C0 6.7 0 3.4 0 0 Z " fill="#0E0E0E" transform="translate(95,212)"/>
<path d="M0 0 C7.39376833 0.70416841 11.85328863 4.3357446 16.4375 9.875 C18.26017523 12.35383831 19.83787774 14.93454914 21.4375 17.5625 C25.27831864 23.74859728 29.41331908 27.88603538 36 31 C33.96201518 31.19049413 31.91880077 31.3254796 29.875 31.4375 C28.16957031 31.55931641 28.16957031 31.55931641 26.4296875 31.68359375 C20.06359443 30.41472554 17.42954507 24.69522227 13.96484375 19.58984375 C12.95094948 18.04218321 11.94187033 16.49135809 10.9375 14.9375 C7.53833403 9.69294815 4.11103358 4.71448805 0 0 Z " fill="#090909" transform="translate(369,254)"/>
<path d="M0 0 C1.98 0 3.96 0 6 0 C6.01458252 0.70084717 6.02916504 1.40169434 6.04418945 2.1237793 C6.11885487 5.31223009 6.21545475 8.49965513 6.3125 11.6875 C6.33505859 12.79029297 6.35761719 13.89308594 6.38085938 15.02929688 C6.41630859 16.09599609 6.45175781 17.16269531 6.48828125 18.26171875 C6.51446533 19.24100342 6.54064941 20.22028809 6.56762695 21.22924805 C7.07312992 24.46863439 8.07363808 26.36286423 10 29 C10.99 29.66 11.98 30.32 13 31 C6.4 31 -0.2 31 -7 31 C-5.68 30.34 -4.36 29.68 -3 29 C-1.07670609 25.43918282 -0.71445496 22.26717958 -0.5859375 18.26171875 C-0.54726562 17.19501953 -0.50859375 16.12832031 -0.46875 15.02929688 C-0.42234375 13.37510742 -0.42234375 13.37510742 -0.375 11.6875 C-0.33632812 10.56537109 -0.29765625 9.44324219 -0.2578125 8.28710938 C-0.16377989 5.52490148 -0.07812659 2.762696 0 0 Z " fill="#060606" transform="translate(220,254)"/>
<path d="M0 0 C1.98 0 3.96 0 6 0 C6.01981934 0.70084717 6.03963867 1.40169434 6.06005859 2.1237793 C6.15556166 5.31205162 6.26513871 8.49969147 6.375 11.6875 C6.4059375 12.79029297 6.436875 13.89308594 6.46875 15.02929688 C6.50742187 16.09599609 6.54609375 17.16269531 6.5859375 18.26171875 C6.6173584 19.24100342 6.6487793 20.22028809 6.68115234 21.22924805 C7.02114747 24.18376921 7.6444925 26.35536442 9 29 C9.99 29.66 10.98 30.32 12 31 C5.73 31 -0.54 31 -7 31 C-5.35 29.35 -3.7 27.7 -2 26 C-0.71394339 23.42788678 -0.78956059 21.43093034 -0.68359375 18.5546875 C-0.64169922 17.47832031 -0.59980469 16.40195312 -0.55664062 15.29296875 C-0.51732422 14.16503906 -0.47800781 13.03710938 -0.4375 11.875 C-0.37272461 10.17150391 -0.37272461 10.17150391 -0.30664062 8.43359375 C-0.2003396 5.62252232 -0.09830595 2.81136055 0 0 Z " fill="#060606" transform="translate(353,254)"/>
<path d="M0 0 C1.98 0 3.96 0 6 0 C6.01981934 0.70084717 6.03963867 1.40169434 6.06005859 2.1237793 C6.15556166 5.31205162 6.26513871 8.49969147 6.375 11.6875 C6.4059375 12.79029297 6.436875 13.89308594 6.46875 15.02929688 C6.50742188 16.09599609 6.54609375 17.16269531 6.5859375 18.26171875 C6.6173584 19.24100342 6.6487793 20.22028809 6.68115234 21.22924805 C7.02114747 24.18376921 7.6444925 26.35536442 9 29 C9.99 29.66 10.98 30.32 12 31 C5.73 31 -0.54 31 -7 31 C-5.35 29.35 -3.7 27.7 -2 26 C-0.71394339 23.42788678 -0.78956059 21.43093034 -0.68359375 18.5546875 C-0.64169922 17.47832031 -0.59980469 16.40195312 -0.55664062 15.29296875 C-0.51732422 14.16503906 -0.47800781 13.03710938 -0.4375 11.875 C-0.37272461 10.17150391 -0.37272461 10.17150391 -0.30664062 8.43359375 C-0.2003396 5.62252232 -0.09830595 2.81136055 0 0 Z " fill="#040404" transform="translate(178,254)"/>
<path d="M0 0 C1.98 0 3.96 0 6 0 C6.01981934 0.70084717 6.03963867 1.40169434 6.06005859 2.1237793 C6.15556166 5.31205162 6.26513871 8.49969147 6.375 11.6875 C6.4059375 12.79029297 6.436875 13.89308594 6.46875 15.02929688 C6.50742188 16.09599609 6.54609375 17.16269531 6.5859375 18.26171875 C6.6173584 19.24100342 6.6487793 20.22028809 6.68115234 21.22924805 C7.02114747 24.18376921 7.6444925 26.35536442 9 29 C9.99 29.66 10.98 30.32 12 31 C6.06 31 0.12 31 -6 31 C-4.35 29.35 -2.7 27.7 -1 26 C-0.23105656 23.02603805 -0.23105656 23.02603805 -0.29296875 19.82421875 C-0.26396484 18.66728516 -0.23496094 17.51035156 -0.20507812 16.31835938 C-0.19927734 15.12017578 -0.19347656 13.92199219 -0.1875 12.6875 C-0.16236328 11.46998047 -0.13722656 10.25246094 -0.11132812 8.99804688 C-0.05251099 5.99837313 -0.01618961 3.00015702 0 0 Z " fill="#090909" transform="translate(117,254)"/>
<path d="M0 0 C1.98 0 3.96 0 6 0 C9.81354127 7.06211347 12.40417233 14.42528974 15 22 C15.99 20.68 16.98 19.36 18 18 C17.46515599 23.34844008 15.53309233 27.35796103 13 32 C10.32158659 28.79650282 8.94804566 25.64878592 7.51953125 21.73828125 C7.07802734 20.53751953 6.63652344 19.33675781 6.18164062 18.09960938 C5.95710205 17.47852295 5.73256348 16.85743652 5.5012207 16.2175293 C4.81013492 14.30595808 4.11006321 12.39787293 3.40820312 10.49023438 C0 1.16912509 0 1.16912509 0 0 Z " fill="#0F0F0F" transform="translate(277,254)"/>
<path d="M0 0 C7.92 0 15.84 0 24 0 C24 0.33 24 0.66 24 1 C22.2984375 1.4640625 22.2984375 1.4640625 20.5625 1.9375 C17.21224901 2.62924531 17.21224901 2.62924531 16 4 C16.45858125 10.30549215 18.04652227 16.00442055 20 22 C18.02 22 16.04 22 14 22 C13.68546875 21.29875 13.3709375 20.5975 13.046875 19.875 C12.15796876 17.90441268 11.26175615 15.93710959 10.359375 13.97265625 C9.53806747 12.17663604 8.73142717 10.3736641 7.953125 8.55859375 C6.44555266 5.20362743 5.53627686 3.29251465 2.25 1.5 C1.13625 1.2525 1.13625 1.2525 0 1 C0 0.67 0 0.34 0 0 Z " fill="#0B0B0B" transform="translate(256,213)"/>
<path d="M0 0 C6.27 0 12.54 0 19 0 C17.02 0.99 17.02 0.99 15 2 C12.7134499 6.03465453 12.58348326 10.27364559 12.375 14.8125 C12.31699219 15.85180664 12.31699219 15.85180664 12.2578125 16.91210938 C12.16426432 18.60767015 12.08107636 20.30379712 12 22 C10.02 22 8.04 22 6 22 C5.95101562 20.97519531 5.90203125 19.95039063 5.8515625 18.89453125 C5.77648929 17.5338294 5.70094345 16.17315356 5.625 14.8125 C5.5940625 14.13896484 5.563125 13.46542969 5.53125 12.77148438 C5.29987307 8.81879521 4.88584462 5.5086973 3 2 C2.01 1.34 1.02 0.68 0 0 Z " fill="#050505" transform="translate(214,213)"/>
<path d="M0 0 C6.27 0 12.54 0 19 0 C17.68 0.99 16.36 1.98 15 3 C13.76240177 6.71279469 13.64391103 10.31306346 13.4375 14.1875 C13.39431641 14.93708984 13.35113281 15.68667969 13.30664062 16.45898438 C13.20077315 18.30578375 13.0999024 20.15286834 13 22 C11.02 22 9.04 22 7 22 C6.95101562 20.97519531 6.90203125 19.95039063 6.8515625 18.89453125 C6.77648929 17.5338294 6.70094345 16.17315356 6.625 14.8125 C6.5940625 14.13896484 6.563125 13.46542969 6.53125 12.77148438 C6.3004111 8.8279865 5.96343598 5.46451445 4 2 C2.68 1.34 1.36 0.68 0 0 Z " fill="#030303" transform="translate(171,213)"/>
<path d="M0 0 C5.28 0 10.56 0 16 0 C15.01 0.33 14.02 0.66 13 1 C13 7.93 13 14.86 13 22 C11.02 22 9.04 22 7 22 C6.95101563 20.97519531 6.90203125 19.95039063 6.8515625 18.89453125 C6.77648929 17.5338294 6.70094345 16.17315356 6.625 14.8125 C6.5940625 14.13896484 6.563125 13.46542969 6.53125 12.77148438 C6.3004111 8.8279865 5.96343598 5.46451445 4 2 C2.68 1.34 1.36 0.68 0 0 Z " fill="#050505" transform="translate(346,213)"/>
<path d="M0 0 C16.83 0 33.66 0 51 0 C51 3.3 51 6.6 51 10 C50.34 9.401875 49.68 8.80375 49 8.1875 C42.64282974 3.55206336 36.99300491 2.88811166 29 2 C29 8.93 29 15.86 29 23 C28.67 23 28.34 23 28 23 C28 15.74 28 8.48 28 1 C18.76 1 9.52 1 0 1 C0 0.67 0 0.34 0 0 Z " fill="#BDBDBD" transform="translate(95,212)"/>
<path d="M0 0 C1.8125 1.125 1.8125 1.125 3 3 C3.375 6 3.375 6 3 9 C1.5 10.875 1.5 10.875 0 12 C0.99 12.66 1.98 13.32 3 14 C-0.46808506 14.40801001 -2.0736116 13.9631942 -5.25 12.375 C-8 10 -8 10 -9.125 7 C-9 4 -9 4 -7.375 1.625 C-4.57455503 -0.29109393 -3.3225955 -0.59636329 0 0 Z " fill="#AAAAAA" transform="translate(73,237)"/>
<path d="M0 0 C1.8125 1.125 1.8125 1.125 3 3 C3.39365568 6.14924548 3.52854531 8.11909116 1.875 10.875 C-0.91106042 12.54663625 -2.81988862 12.46376624 -6 12 C-7.9375 10.375 -7.9375 10.375 -9 8 C-8.875 4.875 -8.875 4.875 -8 2 C-4.76746204 -0.15502531 -3.74849077 -0.46856135 0 0 Z " fill="#B0B0B0" transform="translate(408,237)"/>
<path d="M0 0 C2 2 2 2 2.3125 4.9375 C2 8 2 8 0.875 9.875 C-1.88090884 11.52854531 -3.85075452 11.39365568 -7 11 C-8.875 9.875 -8.875 9.875 -10 8 C-10.4375 5 -10.4375 5 -10 2 C-6.94783427 -1.63912068 -4.35383535 -1.23043173 0 0 Z " fill="#AEAEAE" transform="translate(331,238)"/>
<path d="M0 0 C6.6 0 13.2 0 20 0 C19.01 0.66 18.02 1.32 17 2 C13.69539262 4.62984462 12.42782994 8.19205522 10.875 12 C10.47861328 12.94359375 10.47861328 12.94359375 10.07421875 13.90625 C8.95738904 16.58210596 7.9171971 19.24840871 7 22 C6.34 22 5.68 22 5 22 C5.33 20.88625 5.66 19.7725 6 18.625 C7.24429211 13.73545777 7.18495088 9.01422385 7 4 C4.69 3.01 2.38 2.02 0 1 C0 0.67 0 0.34 0 0 Z " fill="#1A1A1A" transform="translate(303,213)"/>
<path d="M0 0 C5.61 0 11.22 0 17 0 C17 2.97 17 5.94 17 9 C16.4225 8.4225 15.845 7.845 15.25 7.25 C10.56281998 4.00502922 5.42606248 2.62695334 0 1 C0 0.67 0 0.34 0 0 Z " fill="#1F1F1F" transform="translate(129,213)"/>
<path d="M0 0 C7.26 0 14.52 0 22 0 C22 0.33 22 0.66 22 1 C21.05898437 1.09796875 20.11796875 1.1959375 19.1484375 1.296875 C10.8805023 2.28971194 5.92219758 3.07780242 0 9 C0 6.03 0 3.06 0 0 Z " fill="#151515" transform="translate(95,213)"/>
<path d="M0 0 C0.66 0 1.32 0 2 0 C3.65 3.96 5.3 7.92 7 12 C6.34 12 5.68 12 5 12 C4.67 11.34 4.34 10.68 4 10 C1.67843403 9.59270772 -0.6568787 9.25561323 -3 9 C-2.44271087 5.65626525 -1.64826111 2.96687001 0 0 Z " fill="#404040" transform="translate(106,237)"/>
<path d="M0 0 C0.66 0 1.32 0 2 0 C3.5078125 1.75 3.5078125 1.75 5.125 4 C5.66382813 4.7425 6.20265625 5.485 6.7578125 6.25 C7.16773438 6.8275 7.57765625 7.405 8 8 C8.33 5.36 8.66 2.72 9 0 C9.33 0 9.66 0 10 0 C10 3.96 10 7.92 10 12 C7.09197539 9.78071806 5.04687238 8.07030857 3 5 C2.67 7.31 2.34 9.62 2 12 C1.34 12 0.68 12 0 12 C0 8.04 0 4.08 0 0 Z " fill="#414141" transform="translate(419,237)"/>
<path d="M0 0 C0.66 0 1.32 0 2 0 C3.5078125 1.75 3.5078125 1.75 5.125 4 C5.66382812 4.7425 6.20265625 5.485 6.7578125 6.25 C7.16773437 6.8275 7.57765625 7.405 8 8 C8.33 5.36 8.66 2.72 9 0 C9.33 0 9.66 0 10 0 C10 3.96 10 7.92 10 12 C7.09197539 9.78071806 5.04687238 8.07030857 3 5 C2.67 7.31 2.34 9.62 2 12 C1.34 12 0.68 12 0 12 C0 8.04 0 4.08 0 0 Z " fill="#414141" transform="translate(120,237)"/>
<path d="M0 0 C0.33 0 0.66 0 1 0 C1 1.65 1 3.3 1 5 C3.31 5 5.62 5 8 5 C8 3.35 8 1.7 8 0 C8.66 0 9.32 0 10 0 C10 3.96 10 7.92 10 12 C9.34 12 8.68 12 8 12 C8 10.35 8 8.7 8 7 C5.69 7 3.38 7 1 7 C1 8.65 1 10.3 1 12 C0.67 12 0.34 12 0 12 C0 8.04 0 4.08 0 0 Z " fill="#5C5C5C" transform="translate(243,237)"/>
<path d="M0 0 C3.3 0 6.6 0 10 0 C10 0.66 10 1.32 10 2 C8.68 2 7.36 2 6 2 C6 5.3 6 8.6 6 12 C5.34 12 4.68 12 4 12 C4 8.7 4 5.4 4 2 C2.68 2 1.36 2 0 2 C0 1.34 0 0.68 0 0 Z " fill="#6E6E6E" transform="translate(137,237)"/>
<path d="M0 0 C3.3 0 6.6 0 10 0 C10 0.66 10 1.32 10 2 C8.68 2 7.36 2 6 2 C6 5.3 6 8.6 6 12 C5.34 12 4.68 12 4 12 C4 8.7 4 5.4 4 2 C2.68 2 1.36 2 0 2 C0 1.34 0 0.68 0 0 Z " fill="#6D6D6D" transform="translate(373,237)"/>
<path d="M0 0 C3.3 0 6.6 0 10 0 C10 0.66 10 1.32 10 2 C8.68 2 7.36 2 6 2 C6 5.3 6 8.6 6 12 C5.34 12 4.68 12 4 12 C4 8.7 4 5.4 4 2 C2.68 2 1.36 2 0 2 C0 1.34 0 0.68 0 0 Z " fill="#6D6D6D" transform="translate(192,237)"/>
<path d="M0 0 C0.66 0 1.32 0 2 0 C2 3.96 2 7.92 2 12 C1.34 12 0.68 12 0 12 C-0.33 10.35 -0.66 8.7 -1 7 C-1.99 8.485 -1.99 8.485 -3 10 C-3.99 9.67 -4.98 9.34 -6 9 C-5 7 -5 7 -3.5625 5.625 C-1.87861273 3.87375724 -0.98849173 2.20509693 0 0 Z " fill="#5B5B5B" transform="translate(183,237)"/>
<path d="M0 0 C2.97 0 5.94 0 9 0 C9 0.66 9 1.32 9 2 C7.68 2 6.36 2 5 2 C5 5.3 5 8.6 5 12 C4.67 12 4.34 12 4 12 C4 8.7 4 5.4 4 2 C2.68 2 1.36 2 0 2 C0 1.34 0 0.68 0 0 Z " fill="#464646" transform="translate(280,237)"/>
<path d="M0 0 C2.97 0.495 2.97 0.495 6 1 C6.38218767 2.65614657 6.71395102 4.32457024 7 6 C6 7 6 7 2.4375 7.0625 C1.303125 7.041875 0.16875 7.02125 -1 7 C-1.33 6.34 -1.66 5.68 -2 5 C0.31 5.33 2.62 5.66 5 6 C4.33131686 2.88667752 4.33131686 2.88667752 1.9375 1.8125 C1.298125 1.544375 0.65875 1.27625 0 1 C0 0.67 0 0.34 0 0 Z " fill="#4F4F4F" transform="translate(439,242)"/>
<path d="M0 0 C0.66 0 1.32 0 2 0 C2.66 1.65 3.32 3.3 4 5 C2.35 5 0.7 5 -1 5 C-0.67 3.35 -0.34 1.7 0 0 Z " fill="#E3E3E3" transform="translate(106,240)"/>
</svg>
