<?xml version="1.0" encoding="iso-8859-1"?>
<!-- Generator: Adobe Illustrator 22.0.0, SVG Export Plug-In . SVG Version: 6.00 Build 0)  -->
<svg xmlns="http://www.w3.org/2000/svg" xmlns:xlink="http://www.w3.org/1999/xlink" version="1.1" x="0px" y="0px" viewBox="0 0 34 60" style="enable-background:new 0 0 34 60;" xml:space="preserve" width="512" height="512">
<g id="_x32_1-Picture">
	<path d="M33,10H1c-0.552,0-1-0.448-1-1V3.547C0,1.591,1.591,0,3.547,0h26.907C32.409,0,34,1.591,34,3.547V9   C34,9.552,33.552,10,33,10z M2,8h30V3.547C32,2.694,31.306,2,30.453,2H3.547C2.694,2,2,2.694,2,3.547V8z"/>
	<path d="M30.453,60H3.547C1.591,60,0,58.409,0,56.453V51c0-0.552,0.448-1,1-1h32c0.552,0,1,0.448,1,1v5.453   C34,58.409,32.409,60,30.453,60z M2,52v4.453C2,57.306,2.694,58,3.547,58h26.907C31.306,58,32,57.306,32,56.453V52H2z"/>
	<path d="M17,60c-2.757,0-5-2.243-5-5s2.243-5,5-5s5,2.243,5,5S19.757,60,17,60z M17,52c-1.654,0-3,1.346-3,3s1.346,3,3,3   s3-1.346,3-3S18.654,52,17,52z"/>
	<path d="M17,6h-6c-0.552,0-1-0.448-1-1s0.448-1,1-1h6c0.552,0,1,0.448,1,1S17.552,6,17,6z"/>
	<path d="M23,6h-1c-0.552,0-1-0.448-1-1s0.448-1,1-1h1c0.552,0,1,0.448,1,1S23.552,6,23,6z"/>
	<path d="M33,52H1c-0.552,0-1-0.448-1-1V9c0-0.552,0.448-1,1-1h32c0.552,0,1,0.448,1,1v42C34,51.552,33.552,52,33,52z M2,50h30V10H2   V50z"/>
	<path d="M5,18c-0.552,0-1-0.448-1-1v-4c0-0.552,0.448-1,1-1h4c0.552,0,1,0.448,1,1s-0.448,1-1,1H6v3C6,17.552,5.552,18,5,18z"/>
	<path d="M29,18c-0.552,0-1-0.448-1-1v-3h-3c-0.552,0-1-0.448-1-1s0.448-1,1-1h4c0.552,0,1,0.448,1,1v4C30,17.552,29.552,18,29,18z"/>
	<path d="M29,48h-4c-0.552,0-1-0.448-1-1s0.448-1,1-1h3v-3c0-0.552,0.448-1,1-1s1,0.448,1,1v4C30,47.552,29.552,48,29,48z"/>
	<path d="M9,48H5c-0.552,0-1-0.448-1-1v-4c0-0.552,0.448-1,1-1s1,0.448,1,1v3h3c0.552,0,1,0.448,1,1S9.552,48,9,48z"/>
	<path d="M7,39c-0.279,0-0.555-0.116-0.753-0.341c-0.364-0.416-0.322-1.047,0.094-1.411l5.714-5c0.388-0.34,0.971-0.329,1.346,0.026   l5.286,5c0.401,0.379,0.419,1.013,0.039,1.414c-0.379,0.401-1.012,0.419-1.414,0.04l-4.625-4.375l-5.03,4.401   C7.469,38.918,7.234,39,7,39z"/>
	<path d="M11,29c-2.206,0-4-1.794-4-4s1.794-4,4-4s4,1.794,4,4S13.206,29,11,29z M11,23c-1.103,0-2,0.897-2,2s0.897,2,2,2   s2-0.897,2-2S12.103,23,11,23z"/>
	<path d="M18,39c-0.249,0-0.498-0.092-0.691-0.278l-2.765-2.647c-0.398-0.381-0.413-1.013-0.032-1.412l6.051-6.353   c0.377-0.396,1.071-0.396,1.448,0l5.714,6c0.381,0.4,0.365,1.033-0.034,1.414c-0.4,0.382-1.033,0.366-1.414-0.035l-4.99-5.239   l-4.638,4.87l2.044,1.958c0.399,0.382,0.413,1.015,0.031,1.414C18.526,38.896,18.263,39,18,39z"/>
</g>

</svg>
