<svg height="512pt" viewBox="-111 0 512 512" width="512pt" xmlns="http://www.w3.org/2000/svg"><path d="m187.734375 51.199219h-85.335937c-4.707032 0-8.53125-3.8125-8.53125-8.53125s3.824218-8.535157 8.53125-8.535157h85.335937c4.710937 0 8.53125 3.816407 8.53125 8.535157s-3.820313 8.53125-8.53125 8.53125zm0 0"/><path d="m247.464844 51.199219h-8.53125c-4.710938 0-8.535156-3.8125-8.535156-8.53125s3.824218-8.535157 8.535156-8.535157h8.53125c4.710937 0 8.535156 3.816407 8.535156 8.535157s-3.824219 8.53125-8.535156 8.53125zm0 0"/><path d="m155.65625 486.398438h-21.1875c-12.980469 0-23.535156-10.554688-23.535156-23.542969v-4.113281c0-12.988282 10.554687-23.542969 23.535156-23.542969h21.1875c12.980469 0 23.542969 10.554687 23.542969 23.542969v4.113281c0 12.988281-10.5625 23.542969-23.542969 23.542969zm-21.1875-34.132813c-3.566406 0-6.46875 2.910156-6.46875 6.476563v4.113281c0 3.566406 2.902344 6.476562 6.46875 6.476562h21.1875c3.574219 0 6.476562-2.910156 6.476562-6.476562v-4.113281c0-3.566407-2.902343-6.476563-6.476562-6.476563zm0 0"/><path d="m8.535156 435.199219c-4.710937 0-8.535156-3.8125-8.535156-8.53125v-349.867188c0-4.71875 3.824219-8.535156 8.535156-8.535156h273.066406c4.707032 0 8.53125 3.816406 8.53125 8.535156v341.332031c0 4.71875-3.824218 8.535157-8.53125 8.535157h-264.535156c0 4.71875-3.824218 8.53125-8.53125 8.53125zm8.53125-25.597657h256v-324.269531h-256zm0 0"/><path d="m281.601562 85.332031h-273.066406c-4.710937 0-8.535156-3.8125-8.535156-8.53125v-45.953125c0-17.007812 13.839844-30.847656 30.847656-30.847656h228.445313c17 0 30.839843 13.839844 30.839843 30.847656v45.953125c0 4.71875-3.824218 8.53125-8.53125 8.53125zm-264.535156-17.066406h256v-37.417969c0-7.59375-6.1875-13.78125-13.78125-13.78125h-228.4375c-7.59375 0-13.78125 6.1875-13.78125 13.78125zm0 0"/><path d="m259.285156 512h-228.4375c-17.007812 0-30.847656-13.839844-30.847656-30.847656v-63.019532c0-4.71875 3.824219-8.53125 8.535156-8.53125h273.066406c4.707032 0 8.53125 3.8125 8.53125 8.53125v63.019532c0 17.007812-13.839843 30.847656-30.847656 30.847656zm-242.21875-85.332031v54.484375c0 7.59375 6.1875 13.78125 13.78125 13.78125h228.445313c7.585937 0 13.773437-6.1875 13.773437-13.78125v-54.484375zm0 0"/><path d="m151.578125 426.667969h-38.273437c-2.261719 0-4.4375-.898438-6.03125-2.5l-104.773438-104.773438c-1.605469-1.605469-2.5-3.773437-2.5-6.035156v-134.160156c0-2.269531.894531-4.796875 2.5-6.390625l41.726562-41.726563-41.726562-41.738281c-1.605469-1.59375-2.5-3.761719-2.5-6.023438v-6.519531c0-4.71875 3.824219-8.535156 8.535156-8.535156h174.445313c3.449219 0 6.5625 2.074219 7.882812 5.265625 1.324219 3.191406.589844 6.859375-1.851562 9.300781l-48.246094 48.25 106.699219 106.691407 21.941406-21.941407c3.335938-3.335937 8.730469-3.335937 12.066406 0l6.160156 6.164063c1.605469 1.59375 2.5 3.761718 2.5 6.03125v128.359375c0 3.445312-2.082031 6.570312-5.265624 7.882812-3.199219 1.332031-6.859376.589844-9.300782-1.851562l-28.101562-28.097657-89.855469 89.847657c-1.59375 1.601562-3.769531 2.5-6.03125 2.5zm-34.738281-17.066407h31.203125l93.390625-93.382812c3.335937-3.335938 8.730468-3.335938 12.066406 0l19.566406 19.566406v-99.480468l-19.566406 19.566406c-3.335938 3.335937-8.730469 3.335937-12.066406 0l-118.765625-118.757813c-3.335938-3.335937-3.335938-8.730469 0-12.066406l39.710937-39.714844h-139.765625l39.714844 39.714844c1.605469 1.605469 2.5 3.765625 2.5 6.035156s-.894531 4.4375-2.5 6.03125l-45.261719 45.261719v48.273438l69.402344-69.402344c3.335938-3.335938 8.730469-3.335938 12.066406 0l118.757813 118.757812c3.335937 3.335938 3.335937 8.730469 0 12.066406l-78.824219 78.824219c-3.199219 3.199219-8.863281 3.199219-12.066406 0l-109.335938-109.347656v48.273437zm-91.085938-163.5 106.691406 106.699219 66.757813-66.753906-106.703125-106.691406zm0 0"/></svg>