<svg height="512pt" viewBox="-107 0 512 512" width="512pt" xmlns="http://www.w3.org/2000/svg"><g fill-rule="evenodd"><path d="m43.816406 10h210.492188c18.601562 0 33.8125 15.21875 33.8125 33.8125v424.371094c0 18.601562-15.214844 33.816406-33.8125 33.816406h-210.492188c-18.597656 0-33.816406-15.214844-33.816406-33.816406v-424.371094c0-18.59375 15.21875-33.8125 33.816406-33.8125zm0 0" fill="#d9f9f6"/><path d="m288.121094 43.8125c0-18.597656-15.214844-33.8125-33.8125-33.8125h-210.492188c-18.597656 0-33.816406 15.21875-33.816406 33.8125v40.402344h278.121094zm0 0" fill="#b0dced"/><path d="m288.121094 468.183594c0 18.597656-15.214844 33.816406-33.8125 33.816406h-210.492188c-18.597656 0-33.816406-15.21875-33.816406-33.816406v-40.402344h278.121094zm0 0" fill="#b0dced"/><path d="m85.992188 203.148438h.523437c2.113281-30.53125 27.546875-54.644532 58.617187-54.644532 25.558594 0 47.300782 16.320313 55.386719 39.105469 1.234375-.117187 2.484375-.179687 3.75-.179687 21.703125 0 39.300781 17.59375 39.300781 39.300781 0 21.703125-17.597656 39.296875-39.300781 39.296875h-118.277343c-17.289063 0-31.4375-14.144532-31.4375-31.4375 0-17.292969 14.148437-31.441406 31.4375-31.441406zm0 0" fill="#67e4dc"/><path d="m10 317.78125c5.523438 0 10-4.476562 10-10v-213.5625h258.121094v30c0 5.523438 4.480468 10 10 10 5.523437 0 10-4.476562 10-10v-80.40625c0-24.15625-19.652344-43.8125-43.8125-43.8125h-210.492188c-24.160156 0-43.816406 19.65625-43.816406 43.8125v263.96875c0 5.523438 4.476562 10 10 10zm10-273.96875c0-11.488281 8.179688-21.101562 19.019531-23.328125 1.550781-.316406 3.152344-.484375 4.796875-.484375h210.492188c1.644531 0 3.246094.167969 4.792968.484375 10.84375 2.226563 19.019532 11.839844 19.019532 23.328125v30.402344h-258.121094zm0 0"/><path d="m288.121094 194.21875c-5.519532 0-10 4.476562-10 10v213.5625h-258.121094v-30c0-5.523438-4.476562-10-10-10s-10 4.476562-10 10v80.402344c0 24.160156 19.65625 43.816406 43.816406 43.816406h210.492188c24.160156 0 43.8125-19.65625 43.8125-43.816406v-263.964844c0-5.523438-4.476563-10-10-10zm-10 273.964844c0 11.492187-8.175782 21.105468-19.019532 23.332031-1.546874.316406-3.148437.484375-4.792968.484375h-210.492188c-1.644531 0-3.246094-.167969-4.796875-.484375-10.839843-2.226563-19.019531-11.839844-19.019531-23.332031v-30.402344h258.121094zm0 0"/><path d="m133.695312 474.890625h30.730469c5.523438 0 10-4.476563 10-10 0-5.519531-4.476562-10-10-10h-30.730469c-5.523437 0-10 4.480469-10 10 0 5.523437 4.476563 10 10 10zm0 0"/><path d="m253.566406 226.730469c0-26.222657-20.578125-47.730469-46.433594-49.21875-11.335937-23.601563-35.410156-39.007813-62-39.007813-33.097656 0-61.242187 23.769532-67.476562 55.488282-18.867188 3.867187-33.101562 20.601562-33.101562 40.597656 0 22.851562 18.589843 41.4375 41.4375 41.4375h118.273437c27.1875 0 49.300781-22.113282 49.300781-49.296875zm-49.296875 29.296875h-118.277343c-11.820313 0-21.4375-9.617188-21.4375-21.4375 0-11.820313 9.617187-21.441406 21.4375-21.441406h.523437c5.253906 0 9.613281-4.066407 9.976563-9.308594 1.761718-25.421875 23.125-45.335938 48.640624-45.335938 20.605469 0 39.074219 13.039063 45.964844 32.449219 1.53125 4.316406 5.808594 7.035156 10.367188 6.609375.9375-.089844 1.882812-.132812 2.804687-.132812 16.15625 0 29.300781 13.140624 29.300781 29.300781-.003906 16.15625-13.144531 29.296875-29.300781 29.296875zm0 0"/><path d="m104.347656 294.644531-22.21875 65.644531c-1.773437 5.234376 1.03125 10.90625 6.265625 12.679688 1.0625.359375 2.140625.53125 3.207031.53125 4.167969 0 8.058594-2.628906 9.46875-6.796875l22.222657-65.648437c1.773437-5.230469-1.035157-10.90625-6.265625-12.675782-5.226563-1.773437-10.910156 1.03125-12.679688 6.265625zm0 0"/><path d="m146.769531 294.644531-22.21875 65.644531c-1.773437 5.234376 1.035157 10.90625 6.265625 12.679688 1.0625.359375 2.144532.53125 3.207032.53125 4.167968 0 8.058593-2.628906 9.46875-6.796875l22.222656-65.648437c1.773437-5.230469-1.035156-10.90625-6.265625-12.675782-5.230469-1.773437-10.910157 1.03125-12.679688 6.265625zm0 0"/><path d="m189.191406 294.644531-22.21875 65.644531c-1.773437 5.234376 1.035156 10.90625 6.265625 12.679688 1.0625.359375 2.144531.53125 3.207031.53125 4.167969 0 8.0625-2.628906 9.46875-6.796875l22.222657-65.648437c1.769531-5.230469-1.035157-10.90625-6.265625-12.675782-5.230469-1.773437-10.90625 1.03125-12.679688 6.265625zm0 0"/><path d="m10 357.78125c5.507812 0 10-4.492188 10-10s-4.492188-10-10-10-10 4.492188-10 10 4.492188 10 10 10zm0 0"/><path d="m288.121094 154.21875c-5.507813 0-10 4.492188-10 10s4.492187 10 10 10c5.511718 0 10.003906-4.492188 10.003906-10s-4.492188-10-10.003906-10zm0 0"/></g></svg>