<svg viewBox="-103 0 512 512.001" xmlns="http://www.w3.org/2000/svg"><g fill="#fbebda"><path d="m282.582031 14.953125c1.160157.785156 2.257813 1.648437 3.289063 2.582031-1.03125-.933594-2.128906-1.796875-3.289063-2.582031zm0 0"/><path d="m272.207031 10.589844c.945313.191406 1.875.429687 2.78125.714844-.90625-.28125-1.835937-.523438-2.78125-.714844zm0 0"/><path d="m95.476562 367.214844h-6.414062v12.828125h6.414062c2.390626 0 4.832032-.6875 4.832032-5.78125v-1.269531c0-5.09375-2.441406-5.777344-4.832032-5.777344zm0 0"/><path d="m233.125 62h-160.875c-22.289062 0-43.835938 8.035156-60.679688 22.636719l-1.570312 1.363281v340l1.570312 1.363281c16.84375 14.597657 38.390626 22.636719 60.679688 22.636719h160.875c22.292969 0 43.835938-8.039062 60.679688-22.636719l1.570312-1.363281v-340l-1.570312 3.636719c-16.84375-14.601563-38.386719-27.636719-60.679688-27.636719zm-117.46875 313.289062c0 6.3125-1.609375 11.03125-4.785156 14.03125-3.148438 2.976563-7.398438 4.484376-12.625 4.484376h-17.570313c-1.964843 0-3.585937-.476563-4.824219-1.414063-1.699218-1.285156-2.054687-2.777344-2.054687-3.804687v-50.335938c0-1.734375.789063-3.144531 2.285156-4.082031 1.292969-.808594 2.839844-1.21875 4.59375-1.21875h16.226563c14.320312 0 17.328125 8.480469 17.328125 15.589843 0 5.628907-1.679688 9.742188-5.003907 12.273438 1.679688.96875 3.046876 2.164062 4.082032 3.578125 1.582031 2.15625 2.347656 5.179687 2.347656 9.234375zm53.972656-1.1875c0 6.875-2.019531 12.03125-6.003906 15.324219-3.902344 3.222657-9.09375 4.855469-15.4375 4.855469-6.402344 0-11.609375-1.636719-15.484375-4.859375-3.953125-3.292969-5.960937-8.445313-5.960937-15.320313v-35.929687c0-1.242187.449218-2.960937 2.574218-4.09375 1.402344-.75 3.117188-1.128906 5.097656-1.128906 1.925782 0 3.625.378906 5.046876 1.121093 2.171874 1.132813 2.628906 2.855469 2.628906 4.101563v35.929687c0 4.4375 1.878906 6.414063 6.097656 6.414063s6.097656-1.976563 6.097656-6.414063v-35.929687c0-1.242187.445313-2.960937 2.574219-4.09375 1.398437-.75 3.117187-1.128906 5.097656-1.128906 1.925781 0 3.621094.378906 5.046875 1.121093 2.171875 1.132813 2.625 2.855469 2.625 4.101563zm57.933594-33.042968-.058594.101562-16.300781 27.144532c-.058594.085937-.105469.15625-.105469.335937v19.867187c0 1.234376-.449218 2.957032-2.601562 4.125-1.429688.777344-3.136719 1.171876-5.070313 1.171876-1.933593 0-3.640625-.394532-5.070312-1.171876-2.152344-1.167968-2.605469-2.890624-2.605469-4.125v-19.867187c0-.160156-.035156-.230469-.066406-.277344l-16.46875-27.296875c-.214844-.425781-.320313-.933594-.320313-1.550781 0-1.960937 1.210938-3.605469 3.601563-4.882813 2.085937-1.117187 4.199218-1.683593 6.289062-1.683593 1.28125 0 2.269532.261719 3.011719.796875.664063.480468 1.269531 1.21875 1.855469 2.265625l9.765625 17.929687 9.6875-17.910156c1.039062-2.007812 2.730469-3.082031 4.882812-3.082031 2.085938 0 4.199219.566406 6.285157 1.683593 2.390624 1.28125 3.605468 2.921876 3.605468 4.882813 0 .613281-.105468 1.117187-.316406 1.542969zm9.125-77.332032c0 16.71875-13.554688 30.273438-30.273438 30.273438h-111.453124c-16.71875 0-30.273438-13.554688-30.273438-30.273438v-111.453124c0-16.71875 13.554688-30.273438 30.273438-30.273438h111.453124c16.71875 0 30.273438 13.554688 30.273438 30.273438zm0 0"/><path d="m277.65625 12.28125c.652344.277344 1.292969.585938 1.925781.90625-.632812-.320312-1.273437-.628906-1.925781-.90625zm0 0"/><path d="m97.984375 353.707031c.605469-.824219.898437-1.789062.898437-2.953125 0-1.164062-.296874-2.148437-.90625-3.003906-.511718-.714844-1.160156-1.035156-2.105468-1.035156h-6.808594v8h6.808594c.953125 0 1.605468-.308594 2.113281-1.007813zm0 0"/><path d="m290.421875 22.792969c.648437.960937 1.234375 1.964843 1.765625 3.003906-.53125-1.039063-1.117188-2.042969-1.765625-3.003906zm0 0"/><path d="m30.386719 11.304688c.910156-.28125 1.835937-.523438 2.78125-.714844-.945313.191406-1.871094.433594-2.78125.714844zm0 0"/><path d="m13.191406 25.796875c.53125-1.039063 1.117188-2.042969 1.765625-3.003906-.648437.960937-1.234375 1.964843-1.765625 3.003906zm0 0"/><path d="m19.507812 17.539062c1.03125-.9375 2.128907-1.800781 3.285157-2.582031-1.15625.78125-2.253907 1.644531-3.285157 2.582031zm0 0"/><path d="m25.796875 13.1875c.628906-.320312 1.269531-.628906 1.925781-.90625-.65625.277344-1.296875.585938-1.925781.90625zm0 0"/></g><path d="m206.414062 122h-111.453124c-16.71875 0-30.273438 13.554688-30.273438 30.273438v111.453124c0 16.71875 13.554688 30.273438 30.273438 30.273438h111.453124c16.71875 0 30.273438-13.554688 30.273438-30.273438v-111.453124c0-16.71875-13.554688-30.273438-30.273438-30.273438zm-96.714843 140c-11.605469 0-21.011719-6.839844-21.011719-15.28125 0-8.4375 9.40625-15.277344 21.011719-15.277344 11.601562 0 21.007812 6.839844 21.007812 15.277344 0 8.441406-9.40625 15.28125-21.007812 15.28125zm80.980469-9.933594c-11.601563 0-21.007813-6.839844-21.007813-15.277344s9.40625-15.28125 21.007813-15.28125c11.601562 0 21.007812 6.84375 21.007812 15.28125s-9.40625 15.277344-21.007812 15.277344zm0 0" fill="#ef558e"/><path d="m130.707031 246.71875c0-8.4375-9.40625-15.277344-21.007812-15.277344-11.605469 0-21.011719 6.839844-21.011719 15.277344 0 8.441406 9.40625 15.28125 21.011719 15.28125 11.601562 0 21.007812-6.839844 21.007812-15.28125zm0 0" fill="#eadde2"/><path d="m211.6875 236.789062c0-8.4375-9.40625-15.28125-21.007812-15.28125-11.601563 0-21.007813 6.84375-21.007813 15.28125s9.40625 15.28125 21.007813 15.28125c11.601562 0 21.007812-6.84375 21.007812-15.28125zm0 0" fill="#eadde2"/><path d="m26.4375 499.140625c-1.269531-.613281-2.484375-1.3125-3.644531-2.09375 1.160156.78125 2.375 1.480469 3.644531 2.09375zm0 0" fill="#fbebda"/><path d="m12.863281 485.5625c.53125 1.105469 1.136719 2.164062 1.796875 3.183594.355469.546875.71875 1.082031 1.105469 1.597656 1.113281 1.492188 2.367187 2.871094 3.742187 4.117188 1.03125.9375 2.128907 1.800781 3.285157 2.582031 1.160156.78125 2.375 1.484375 3.644531 2.09375.421875.207031.851562.398437 1.285156.582031.867188.367188 1.757813.691406 2.664063.976562.910156.28125 1.835937.523438 2.78125.714844 1.890625.386719 3.847656.589844 5.847656.589844h227.347656c2 0 3.957031-.203125 5.847657-.589844.941406-.191406 1.871093-.433594 2.78125-.714844.90625-.285156 1.796874-.609374 2.664062-.976562 1.734375-.734375 3.386719-1.632812 4.929688-2.675781 1.15625-.78125 2.253906-1.644531 3.285156-2.582031 1.375-1.246094 2.628906-2.625 3.742187-4.117188.386719-.515625.753907-1.054688 1.105469-1.597656.660156-1.019532 1.269531-2.078125 1.796875-3.183594.207031-.421875.398437-.847656.582031-1.285156 1.46875-3.46875 2.28125-7.285156 2.28125-11.292969v-46.984375l-1.570312 1.363281c-16.847656 14.597657-38.390625 22.636719-60.683594 22.636719h-160.875c-22.289062 0-43.835938-8.039062-60.679688-22.636719l-1.570312-1.363281v46.984375c0 4.003906.8125 7.824219 2.28125 11.292969.183594.433594.378906.863281.582031 1.285156zm0 0" fill="#3bb8e3"/><path d="m294.785156 33.167969c-.191406-.945313-.429687-1.871094-.714844-2.78125-.28125-.910157-.609374-1.796875-.976562-2.664063-.277344-.65625-.585938-1.296875-.90625-1.925781-.53125-1.039063-1.117188-2.042969-1.765625-3.003906-.785156-1.160157-1.648437-2.257813-2.582031-3.289063-.625-.6875-1.28125-1.34375-1.96875-1.96875-1.03125-.933594-2.128906-1.796875-3.289063-2.582031-.957031-.648437-1.964843-1.230469-3-1.765625-.632812-.320312-1.273437-.628906-1.925781-.90625-.871094-.367188-1.757812-.695312-2.667969-.976562-.910156-.285157-1.835937-.523438-2.78125-.714844-1.886719-.386719-3.84375-.589844-5.847656-.589844h-227.34375c-2.003906 0-3.957031.203125-5.847656.589844-.945313.191406-1.871094.429687-2.78125.714844-.910157.28125-1.796875.609374-2.664063.976562-.65625.277344-1.296875.585938-1.925781.90625-1.039063.535156-2.042969 1.117188-3.003906 1.765625-1.160157.785156-2.257813 1.648437-3.289063 2.582031-.683594.625-1.34375 1.28125-1.964844 1.96875-.9375 1.03125-1.800781 2.128906-2.582031 3.289063-.652343.960937-1.234375 1.964843-1.765625 3.003906-.324218.628906-.632812 1.269531-.910156 1.925781-.367188.867188-.695312 1.753906-.976562 2.664063-.28125.910156-.523438 1.835937-.714844 2.78125-.386719 1.890625-.589844 3.84375-.589844 5.847656v46.984375l1.570312-1.363281c16.84375-14.601563 38.390626-22.636719 60.679688-22.636719h160.875c22.292969 0 43.835938 13.035156 60.679688 27.636719l1.570312-3.636719v-46.984375c0-2.003906-.203125-3.957031-.589844-5.847656zm0 0" fill="#3bb8e3"/><path d="m266.359375 0h-227.34375c-21.511719 0-39.015625 17.503906-39.015625 39.015625v433.96875c0 21.511719 17.503906 39.015625 39.015625 39.015625h227.34375c21.515625 0 39.015625-17.5 39.015625-39.015625v-433.96875c0-21.511719-17.5-39.015625-39.015625-39.015625zm-33.234375 440h-160.875c-19.066406 0-37.515625-6.613281-52.25-18.640625v-330.71875c14.734375-12.027344 33.183594-18.640625 52.25-18.640625h160.875c19.761719 0 39.007812 12.46875 52.25 23.59375v325.765625c-14.730469 12.027344-33.179688 18.640625-52.25 18.640625zm33.234375-420c1.96875 0 3.863281.300781 5.648437.855469 7.738282 2.410156 13.367188 9.640625 13.367188 18.160156v31.476563c-17.816406-12.148438-35.632812-18.492188-52.25-18.492188h-160.875c-18.492188 0-36.523438 4.992188-52.25 14.296875v-27.28125c0-8.519531 5.632812-15.746094 13.367188-18.160156 1.785156-.554688 3.683593-.855469 5.648437-.855469zm-227.34375 472c-1.964844 0-3.863281-.300781-5.648437-.855469-7.734376-2.410156-13.367188-9.640625-13.367188-18.160156v-27.277344c15.726562 9.300781 33.757812 14.292969 52.25 14.292969h160.875c18.492188 0 36.523438-4.992188 52.25-14.296875v27.28125c0 8.519531-5.628906 15.746094-13.367188 18.160156-1.785156.554688-3.679687.855469-5.644531.855469zm0 0"/><path d="m206.414062 112h-111.453124c-22.207032 0-40.273438 18.066406-40.273438 40.273438v111.453124c0 22.207032 18.066406 40.273438 40.273438 40.273438h111.453124c22.207032 0 40.273438-18.066406 40.273438-40.273438v-111.453124c0-22.207032-18.066406-40.273438-40.273438-40.273438zm20.273438 151.726562c0 11.179688-9.09375 20.273438-20.273438 20.273438h-111.453124c-11.175782 0-20.273438-9.09375-20.273438-20.273438v-111.453124c0-11.179688 9.097656-20.273438 20.273438-20.273438h111.453124c11.179688 0 20.273438 9.09375 20.273438 20.273438zm0 0"/><path d="m213.589844 158.242188c-5.144532-4.554688-12.007813-6.6875-18.832032-5.847657l-52.964843 6.496094c-12.023438 1.472656-21.085938 11.71875-21.085938 23.828125v40.308594c-3.40625-1.023438-7.113281-1.585938-11.007812-1.585938-17.390625 0-31.011719 11.105469-31.011719 25.28125 0 14.171875 13.621094 25.277344 31.011719 25.277344 17.386719 0 31.007812-11.105469 31.007812-25.277344v-64.003906c0-2.023438 1.511719-3.730469 3.519531-3.980469l52.964844-6.496093c1.558594-.191407 2.640625.53125 3.144532.980468.503906.445313 1.351562 1.429688 1.351562 3v36.875c-3.40625-1.027344-7.113281-1.585937-11.007812-1.585937-17.386719 0-31.007813 11.101562-31.007813 25.277343 0 14.175782 13.621094 25.28125 31.007813 25.28125 17.386718 0 31.007812-11.105468 31.007812-25.28125v-60.566406c0-6.871094-2.949219-13.425781-8.097656-17.980468zm-103.890625 93.757812c-6.722657 0-11.011719-3.46875-11.011719-5.277344 0-1.816406 4.289062-5.28125 11.011719-5.28125 6.71875 0 11.007812 3.464844 11.007812 5.28125 0 1.808594-4.289062 5.277344-11.007812 5.277344zm80.980469-9.933594c-6.722657 0-11.007813-3.464844-11.007813-5.277344s4.285156-5.28125 11.007813-5.28125c6.722656 0 11.007812 3.46875 11.007812 5.28125s-4.285156 5.277344-11.007812 5.277344zm0 0"/><path d="m97.6875 47h60c5.523438 0 10-4.476562 10-10s-4.476562-10-10-10h-60c-5.523438 0-10 4.476562-10 10s4.476562 10 10 10zm0 0"/><path d="m188.457031 40.828125c.25.601563.5625 1.183594.921875 1.722656.359375.550781.78125 1.058594 1.238282 1.519531.460937.460938.972656.878907 1.519531 1.238282.542969.363281 1.121093.671875 1.730469.921875.601562.25 1.230468.449219 1.871093.578125.640625.132812 1.300781.191406 1.949219.191406.652344 0 1.3125-.058594 1.949219-.191406.640625-.128906 1.273437-.328125 1.871093-.578125.609376-.25 1.191407-.558594 1.730469-.921875.550781-.359375 1.058594-.777344 1.519531-1.238282.460938-.460937.878907-.96875 1.242188-1.519531.359375-.539062.667969-1.121093.917969-1.722656.25-.609375.449219-1.238281.570312-1.878906.128907-.640625.199219-1.300781.199219-1.949219s-.070312-1.308594-.199219-1.949219c-.121093-.640625-.320312-1.269531-.570312-1.871093-.25-.609376-.558594-1.191407-.917969-1.730469-.363281-.550781-.78125-1.058594-1.242188-1.519531-.460937-.460938-.96875-.878907-1.519531-1.238282-.539062-.363281-1.121093-.671875-1.730469-.921875-.597656-.25-1.230468-.449219-1.871093-.570312-1.289063-.257813-2.609375-.257813-3.898438 0-.640625.121093-1.269531.320312-1.871093.570312-.609376.25-1.1875.558594-1.730469.921875-.546875.359375-1.058594.777344-1.519531 1.238282-.457032.460937-.878907.96875-1.238282 1.519531-.359375.539062-.671875 1.121093-.921875 1.730469-.25.601562-.449219 1.230468-.570312 1.871093-.128907.640625-.199219 1.300781-.199219 1.949219s.070312 1.308594.199219 1.949219c.121093.640625.320312 1.269531.570312 1.878906zm0 0"/><path d="m109.222656 360.816406c3.324219-2.535156 5.007813-6.648437 5.007813-12.277344 0-7.109374-3.007813-15.585937-17.328125-15.585937h-16.226563c-1.753906 0-3.300781.410156-4.59375 1.214844-1.496093.9375-2.289062 2.347656-2.289062 4.082031v50.335938c0 1.027343.359375 2.523437 2.058593 3.808593 1.238282.9375 2.859376 1.410157 4.824219 1.410157h17.570313c5.226562 0 9.472656-1.507813 12.625-4.484376 3.171875-3 4.78125-7.71875 4.78125-14.03125v-1.660156c0-4.058594-.769532-7.078125-2.347656-9.234375-1.03125-1.414062-2.402344-2.613281-4.082032-3.578125zm-20.160156-14.101562h6.808594c.945312 0 1.59375.320312 2.105468 1.035156.609376.855469.90625 1.835938.90625 3.003906 0 1.164063-.292968 2.128906-.898437 2.953125-.507813.699219-1.160156 1.007813-2.113281 1.007813h-6.808594zm11.246094 27.546875c0 5.09375-2.441406 5.78125-4.832032 5.78125h-6.414062v-12.828125h6.414062c2.390626 0 4.832032.683594 4.832032 5.777344zm0 0"/><path d="m167.003906 334.070312c-1.425781-.742187-3.125-1.121093-5.046875-1.121093-1.984375 0-3.699219.378906-5.097656 1.128906-2.128906 1.132813-2.574219 2.851563-2.574219 4.09375v35.929687c0 4.4375-1.882812 6.414063-6.101562 6.414063-4.214844 0-6.097656-1.976563-6.097656-6.414063v-35.929687c0-1.246094-.453126-2.96875-2.625-4.101563-1.425782-.742187-3.121094-1.121093-5.046876-1.121093-1.980468 0-3.695312.378906-5.097656 1.128906-2.128906 1.132813-2.574218 2.851563-2.574218 4.09375v35.929687c0 6.875 2.003906 12.027344 5.960937 15.320313 3.875 3.222656 9.082031 4.859375 15.480469 4.859375 6.347656 0 11.539062-1.632812 15.441406-4.855469 3.984375-3.292969 6.003906-8.449219 6.003906-15.324219v-35.929687c0-1.246094-.457031-2.96875-2.625-4.101563zm0 0"/><path d="m224.277344 334.632812c-2.085938-1.117187-4.203125-1.683593-6.289063-1.683593-2.148437 0-3.84375 1.074219-4.878906 3.082031l-9.6875 17.910156-9.769531-17.929687c-.585938-1.042969-1.191406-1.785157-1.855469-2.265625-.742187-.535156-1.726563-.796875-3.011719-.796875-2.085937 0-4.203125.566406-6.289062 1.683593-2.390625 1.277344-3.601563 2.921876-3.601563 4.882813 0 .617187.105469 1.125.320313 1.550781l16.472656 27.296875c.03125.042969.066406.117188.066406.277344v19.867187c0 1.234376.449219 2.957032 2.601563 4.125 1.429687.777344 3.136719 1.171876 5.070312 1.171876 1.933594 0 3.640625-.394532 5.070313-1.171876 2.152344-1.167968 2.601562-2.890624 2.601562-4.125v-19.867187c0-.179687.050782-.25.105469-.335937l16.304687-27.144532.054688-.101562c.214844-.425782.316406-.929688.316406-1.542969 0-1.960937-1.210937-3.601563-3.601562-4.882813zm0 0"/></svg>