<?xml version="1.0" encoding="UTF-8"?>
<svg width="97px" height="29px" viewBox="0 0 97 29" version="1.1" xmlns="http://www.w3.org/2000/svg" xmlns:xlink="http://www.w3.org/1999/xlink">
    <!-- Generator: sketchtool 57.1 (101010) - https://sketch.com -->
    <title>0FC80F12-111C-4EDD-ADD7-246CECBC4E8B</title>
    <desc>Created with sketchtool.</desc>
    <g id="px" stroke="none" stroke-width="1" fill="none" fill-rule="evenodd">
        <g id="PX-WEBSITE" transform="translate(-93.000000, -136.000000)" fill="#000000">
            <g id="Stacked-Group">
                <g id="Group-16-Copy-3">
                    <g id="Group" transform="translate(93.000000, 136.000000)">
                        <path d="M2.89163156,27.8744777 C2.5089137,27.8744777 2.14037611,27.8036051 1.78600773,27.6618578 C1.43163934,27.5201104 1.1268871,27.3216671 0.871741866,27.0665219 C0.602421894,26.8113766 0.389804053,26.5137116 0.233881964,26.173518 C0.0779598751,25.8333243 -4.8316906e-13,25.471874 -4.8316906e-13,25.0891562 L-4.8316906e-13,17.9451253 C0.0425242061,16.5276517 0.350820076,15.1775284 0.924896858,13.8947149 C1.49897364,12.6119013 2.28211602,11.4814831 3.2743475,10.5034264 C4.25240424,9.53954439 5.38282243,8.78120742 6.66563598,8.22839274 C7.94844953,7.67557806 9.30566008,7.38500034 10.7373084,7.35665087 L10.9074043,7.35665087 C11.8287621,7.35665087 12.5481192,7.61533591 13.065497,8.13271375 C13.5828748,8.65009159 13.8415599,9.32692506 13.8415599,10.1632344 C13.8415599,10.9428449 13.5580694,11.6161347 12.99108,12.1831241 C12.72176,12.4382694 12.4063769,12.6367127 12.0449212,12.77846 C11.6834654,12.9202074 11.3042969,12.99108 10.9074043,12.99108 L10.7798323,12.99108 C10.0852703,13.0052547 9.43324227,13.147 8.82372865,13.4163199 C8.21421503,13.6856399 7.67558316,14.0612648 7.2078169,14.5432058 C6.72587589,15.0251468 6.35025104,15.5779532 6.08093107,16.2016415 C5.8116111,16.8253299 5.66986587,17.4844452 5.65569113,18.1790072 L5.65569113,25.0891562 C5.65569113,25.4860487 5.58481852,25.8545863 5.44307117,26.19478 C5.30132381,26.5349736 5.10288049,26.8255514 4.84773526,27.0665219 C4.30909531,27.6051618 3.65706727,27.8744777 2.89163156,27.8744777 Z M24.8443793,28.1083597 C23.4410804,28.1083597 22.1122189,27.8425874 20.8577549,27.3110348 C19.6032908,26.7794822 18.4941344,26.0317762 17.5302524,25.0678942 C16.5663704,24.1181869 15.8151207,23.0125741 15.2764807,21.7510227 C14.7378408,20.4894712 14.4685248,19.1570661 14.4685248,17.7537673 C14.4685248,16.3504685 14.7378408,15.0145197 15.2764807,13.7458809 C15.8151207,12.4772421 16.5663704,11.3609984 17.5302524,10.3971164 C18.4941344,9.4332344 19.6032908,8.68552833 20.8577549,8.15397575 C22.1122189,7.62242317 23.4410804,7.35665087 24.8443793,7.35665087 C26.2335033,7.35665087 27.5552776,7.61887954 28.8097416,8.14334475 C30.0642057,8.66780996 31.1662749,9.40488514 32.1159821,10.3545924 C33.0656894,11.2901249 33.8133955,12.3815632 34.3591228,13.6289399 C34.9048501,14.8763166 35.1918842,16.1945472 35.2202337,17.5836713 L35.2202337,25.2167281 C35.2202337,26.0246881 34.9438305,26.7050651 34.3910158,27.2578798 C34.1216958,27.5271998 33.8098563,27.736274 33.4554879,27.8851087 C33.1011195,28.0339434 32.7254947,28.1083597 32.3286021,28.1083597 C31.8041369,28.1083597 31.3399213,27.9914199 30.9359413,27.7575367 C30.5319614,27.5236536 30.2024037,27.194096 29.9472585,26.7688539 C28.3455134,27.6618622 26.6445706,28.1083597 24.8443793,28.1083597 Z M24.8443793,22.4314066 C25.4822423,22.4314066 26.0917468,22.3109231 26.672911,22.0699526 C27.2540751,21.8289821 27.7572707,21.4958808 28.1825127,21.0706388 C28.6219295,20.631222 28.9621181,20.1280264 29.2030886,19.561037 C29.4440591,18.9940476 29.5645425,18.3916304 29.5645425,17.7537673 C29.5645425,17.1159042 29.4440591,16.513487 29.2030886,15.9464976 C28.9621181,15.3795081 28.6219295,14.8763126 28.1825127,14.4368958 C27.7572707,14.0116537 27.2540751,13.6785524 26.672911,13.4375819 C26.0917468,13.1966114 25.4822423,13.076128 24.8443793,13.076128 C24.2206909,13.076128 23.6218173,13.1966114 23.0477405,13.4375819 C22.4736637,13.6785524 21.9740118,14.0116537 21.5487698,14.4368958 C21.109353,14.8763126 20.7656208,15.3795081 20.5175629,15.9464976 C20.269505,16.513487 20.145478,17.1159042 20.145478,17.7537673 C20.145478,18.3916304 20.269505,18.9940476 20.5175629,19.561037 C20.7656208,20.1280264 21.109353,20.631222 21.5487698,21.0706388 C21.9740118,21.4958808 22.4736637,21.8289821 23.0477405,22.0699526 C23.6218173,22.3109231 24.2206909,22.4314066 24.8443793,22.4314066 Z M41.1414358,27.8744777 C40.758718,27.8744777 40.3901804,27.8036051 40.035812,27.6618578 C39.6814436,27.5201104 39.3696041,27.3216671 39.1002841,27.0665219 C38.51912,26.5278819 38.2285423,25.8758539 38.2285423,25.1104182 L38.2285423,17.4560993 C38.2285423,16.0953247 38.4907709,14.7983559 39.0152361,13.5651539 C39.5397013,12.3319519 40.2696893,11.247601 41.2052218,10.3120684 C42.1407543,9.37653589 43.2180181,8.65009159 44.4370453,8.13271375 C45.6560725,7.61533591 46.9459541,7.35665087 48.3067287,7.35665087 C49.681678,7.35665087 50.996365,7.61533591 52.2508291,8.13271375 C53.5052932,8.65009159 54.6144496,9.37653589 55.5783316,10.3120684 C56.5422136,11.247601 57.2970069,12.3319519 57.8427343,13.5651539 C58.3884616,14.7983559 58.6613211,16.0953247 58.6613211,17.4560993 L58.6613211,25.1104182 C58.6613211,25.8900286 58.3990925,26.5420566 57.8746272,27.0665219 C57.619482,27.3216671 57.321817,27.5201104 56.9816234,27.6618578 C56.6414297,27.8036051 56.2799794,27.8744777 55.8972616,27.8744777 C55.500369,27.8744777 55.1282877,27.8036051 54.7810067,27.6618578 C54.4337257,27.5201104 54.1325171,27.3216671 53.8773719,27.0665219 C53.3103824,26.5420566 53.026892,25.8900286 53.026892,25.1104182 L53.026892,17.4773613 C53.0127173,16.8820224 52.8780593,16.3114979 52.6229141,15.7657706 C52.3677688,15.2200433 52.0134057,14.7416531 51.5598142,14.3305858 C51.1203974,13.9195185 50.6172019,13.6005917 50.0502124,13.373796 C49.483223,13.1470002 48.9020676,13.033604 48.3067287,13.033604 C47.7113898,13.033604 47.1444089,13.1434566 46.605769,13.363165 C46.067129,13.5828734 45.606457,13.884082 45.2237392,14.2667998 C44.8268466,14.6636924 44.5114635,15.127908 44.2775803,15.6594606 C44.0436972,16.1910132 43.9196701,16.7544505 43.9054954,17.3497893 L43.9054954,25.1104182 C43.9054954,25.9042033 43.6361795,26.5562314 43.0975395,27.0665219 C42.5588996,27.6051618 41.9068715,27.8744777 41.1414358,27.8744777 Z M64.8376672,27.8744777 C64.4549494,27.8744777 64.0899554,27.8036051 63.7426744,27.6618578 C63.3953934,27.5201104 63.0941848,27.3216671 62.8390395,27.0665219 C62.5697196,26.8113766 62.3571017,26.5137116 62.2011796,26.173518 C62.0452576,25.8333243 61.9672977,25.4789613 61.9672977,25.1104182 L61.9672977,2.76405958 C61.9672977,2.0127986 62.2578754,1.36077056 62.8390395,0.807955876 C63.0941848,0.55281064 63.3953934,0.354367321 63.7426744,0.212619967 C64.0899554,0.0708726137 64.4549494,3.37507799e-14 64.8376672,3.37507799e-14 C65.6314524,3.37507799e-14 66.297655,0.269315932 66.8362949,0.807955876 C67.3607601,1.36077056 67.6229888,2.0127986 67.6229888,2.76405958 L67.6017268,14.1179658 L73.8102299,8.41975071 C74.3488698,7.92363497 74.9654615,7.67558082 75.6600236,7.67558082 C76.0427414,7.67558082 76.4077354,7.74999707 76.7550164,7.89883179 C77.1022974,8.04766651 77.4105933,8.24965346 77.6799133,8.5047987 C77.9492332,8.7882934 78.1618511,9.10367654 78.3177732,9.45095755 C78.4736953,9.79823857 78.5516551,10.1632325 78.5516551,10.5459504 C78.5658299,10.9144935 78.4949573,11.2688566 78.3390352,11.6090502 C78.1831131,11.9492439 77.963408,12.2539961 77.6799133,12.5233161 L72.5132481,17.2647414 L78.8918471,23.0905285 C79.4021376,23.5582947 79.657279,24.1394502 79.657279,24.8340122 C79.657279,25.21673 79.5828627,25.5852676 79.434028,25.939636 C79.2851933,26.2940044 79.0832063,26.6129312 78.8280611,26.8964259 C78.2610717,27.5059395 77.6090436,27.8106917 76.8719574,27.8106917 C76.0923469,27.8106917 75.3977953,27.5272013 74.7882817,26.9602119 L67.6017268,20.3902549 L67.6017268,25.1104182 C67.6017268,25.493136 67.5308542,25.8545863 67.3891068,26.19478 C67.2473595,26.5349736 67.0489162,26.8255514 66.7937709,27.0665219 C66.255131,27.6051618 65.6031029,27.8744777 64.8376672,27.8744777 Z M85.3658612,27.8744777 C84.9831433,27.8744777 84.6146057,27.8036051 84.2602373,27.6618578 C83.9058689,27.5201104 83.6011167,27.3216671 83.3459715,27.0665219 C83.0766515,26.8113766 82.8640336,26.5137116 82.7081116,26.173518 C82.5521895,25.8333243 82.4742296,25.471874 82.4742296,25.0891562 L82.4742296,17.9451253 C82.5167538,16.5276517 82.8250497,15.1775284 83.3991265,13.8947149 C83.9732032,12.6119013 84.7563456,11.4814831 85.7485771,10.5034264 C86.7266338,9.53954439 87.857052,8.78120742 89.1398656,8.22839274 C90.4226791,7.67557806 91.7798897,7.38500034 93.2115379,7.35665087 L93.3816339,7.35665087 C94.3029917,7.35665087 95.0223488,7.61533591 95.5397266,8.13271375 C96.0571044,8.65009159 96.3157895,9.32692506 96.3157895,10.1632344 C96.3157895,10.9428449 96.032299,11.6161347 95.4653096,12.1831241 C95.1959896,12.4382694 94.8806065,12.6367127 94.5191507,12.77846 C94.157695,12.9202074 93.7785265,12.99108 93.3816339,12.99108 L93.2540619,12.99108 C92.5594999,13.0052547 91.9074719,13.147 91.2979582,13.4163199 C90.6884446,13.6856399 90.1498128,14.0612648 89.6820465,14.5432058 C89.2001055,15.0251468 88.8244806,15.5779532 88.5551607,16.2016415 C88.2858407,16.8253299 88.1440955,17.4844452 88.1299207,18.1790072 L88.1299207,25.0891562 C88.1299207,25.4860487 88.0590481,25.8545863 87.9173008,26.19478 C87.7755534,26.5349736 87.5771101,26.8255514 87.3219649,27.0665219 C86.7833249,27.6051618 86.1312969,27.8744777 85.3658612,27.8744777 Z" id="rankr.io-copy-2"></path>
                    </g>
                </g>
            </g>
        </g>
    </g>
</svg>