<?xml version="1.0" encoding="iso-8859-1"?>
<!-- Generator: Adobe Illustrator 19.0.0, SVG Export Plug-In . SVG Version: 6.00 Build 0)  -->
<svg version="1.1" id="Capa_1" xmlns="http://www.w3.org/2000/svg" xmlns:xlink="http://www.w3.org/1999/xlink" x="0px" y="0px"
	 viewBox="0 0 512 512" style="enable-background:new 0 0 512 512;" xml:space="preserve">
<path style="fill:#FF9052;" d="M280.809,501.62v-26.822h-52.184v26.822c0,5.708,4.67,10.38,10.38,10.38h31.426
	C276.139,512,280.809,507.329,280.809,501.62z"/>
<path style="fill:#FF8031;" d="M254.716,501.62v-26.822h-26.092v26.822c0,5.708,4.67,10.38,10.38,10.38h26.092
	C259.388,512,254.716,507.329,254.716,501.62z"/>
<path style="fill:#FFC850;" d="M198.253,366.886v42.633h112.929v-41.941c0-15.09,7.834-29.047,20.614-37.071
	c40.893-25.675,68.077-71.173,68.077-123.022c0-79.857-64.487-144.652-144.225-145.152
	c-80.089-0.503-146.087,65.064-146.086,145.154c0,52.181,27.534,97.929,68.865,123.512
	C190.82,338.67,198.253,352.311,198.253,366.886z"/>
<path style="fill:#FEA82F;" d="M199.318,330.998c-41.331-25.583-68.865-71.332-68.865-123.512
	c0-76.26,59.838-139.351,134.702-144.776c-3.143-0.223-6.312-0.358-9.507-0.378c-80.089-0.503-146.087,65.064-146.086,145.154
	c0,52.181,27.534,97.929,68.865,123.512c12.393,7.671,19.826,21.313,19.826,35.888v42.633h20.892v-42.633
	C219.145,352.311,211.712,338.67,199.318,330.998z"/>
<g>
	<path style="fill:#C2C7D0;" d="M312.32,441.652H197.113c-6.692,0-12.167-5.475-12.167-12.167v-10.84
		c0-6.692,5.475-12.167,12.167-12.167H312.32c6.692,0,12.167,5.475,12.167,12.167v10.84
		C324.488,436.177,319.012,441.652,312.32,441.652z"/>
	<path style="fill:#C2C7D0;" d="M312.32,476.826H197.113c-6.692,0-12.167-5.475-12.167-12.167v-10.84
		c0-6.692,5.475-12.167,12.167-12.167H312.32c6.692,0,12.167,5.475,12.167,12.167v10.84
		C324.488,471.351,319.012,476.826,312.32,476.826z"/>
</g>
<g>
	<path style="fill:#ABB0B7;" d="M312.32,424.065H197.113c-5.522,0-10.205-3.731-11.678-8.794c-0.312,1.074-0.489,2.203-0.489,3.373
		v10.84c0,6.692,5.475,12.167,12.167,12.167H312.32c6.692,0,12.167-5.475,12.167-12.167v-10.84c0-1.17-0.176-2.301-0.489-3.373
		C322.526,420.334,317.841,424.065,312.32,424.065z"/>
	<path style="fill:#ABB0B7;" d="M312.32,459.24H197.113c-5.522,0-10.205-3.731-11.678-8.794c-0.312,1.074-0.489,2.203-0.489,3.373
		v10.84c0,6.692,5.475,12.167,12.167,12.167H312.32c6.692,0,12.167-5.475,12.167-12.167v-10.84c0-1.17-0.176-2.301-0.489-3.373
		C322.526,455.508,317.841,459.24,312.32,459.24z"/>
</g>
<path style="fill:#ABFFDB;" d="M436.817,56.343h-43.936c-6.058,0-10.968,4.91-10.968,10.968s4.909,10.968,10.968,10.968h18.261
	l-128.87,131.066l-29.595-21.017c-4.561-3.238-10.829-2.527-14.546,1.653l-63.106,70.942c-6.315,7.098-1.185,18.258,8.191,18.258
	c3.023,0,6.032-1.242,8.199-3.679l56.573-63.598l29.201,20.737c4.39,3.118,10.396,2.587,14.172-1.253L425.848,94.609v18.823
	c0,6.057,4.91,10.968,10.968,10.968c6.057,0,10.968-4.911,10.968-10.968V67.311C447.785,61.253,442.874,56.343,436.817,56.343z"/>
<g>
	<path style="fill:#92E0C0;" d="M392.881,78.279h8.437c-5.726-0.254-11.293-1.299-11.293-4.981c0-6.057,4.91-10.968,10.968-10.968
		h43.936c0.588,0,1.161,0.06,1.723,0.148c-1.788-3.631-5.514-6.135-9.834-6.135h-43.936c-6.058,0-10.968,4.91-10.968,10.969
		C381.912,73.369,386.823,78.279,392.881,78.279z"/>
	<path style="fill:#92E0C0;" d="M260.476,193.867l-7.799-5.539c-4.561-3.238-10.829-2.527-14.546,1.653L175.2,260.728
		c-5.903,6.636-2.291,16.948,6.293,18.309c-1.907-3.883-1.408-8.696,1.645-12.129l63.106-70.942
		C249.826,191.939,255.967,191.019,260.476,193.867L260.476,193.867z"/>
	<path style="fill:#92E0C0;" d="M418.617,77.893l-7.476,0.386l-128.87,131.066l5.29,3.905c1.618,1.194,3.869,1.016,5.28-0.418
		L420.784,82.709C422.596,80.866,421.198,77.759,418.617,77.893z"/>
</g>
<g>
	<path style="fill:#FF8031;" d="M81.183,200.043H55.957c-4.201,0-7.604,3.405-7.604,7.604c0,4.2,3.404,7.604,7.604,7.604h25.226
		c4.201,0,7.604-3.405,7.604-7.604C88.788,203.448,85.384,200.043,81.183,200.043z"/>
	<path style="fill:#FF8031;" d="M456.043,200.043h-25.226c-4.201,0-7.604,3.405-7.604,7.604c0,4.2,3.404,7.604,7.604,7.604h25.226
		c4.201,0,7.604-3.405,7.604-7.604C463.647,203.448,460.244,200.043,456.043,200.043z"/>
	<path style="fill:#FF8031;" d="M127.009,325.885l-17.838,17.838c-2.97,2.97-2.97,7.785,0,10.754c2.971,2.97,7.785,2.97,10.755,0
		l17.838-17.838c2.97-2.97,2.97-7.785,0-10.754C134.793,322.915,129.978,322.915,127.009,325.885z"/>
	<path style="fill:#FF8031;" d="M256,40.435c4.201,0,7.604-3.405,7.604-7.604V7.604c0-4.2-3.404-7.604-7.604-7.604
		c-4.201,0-7.604,3.405-7.604,7.604v25.226C248.396,37.031,251.8,40.435,256,40.435z"/>
	<path style="fill:#FF8031;" d="M384.992,325.885c-2.971-2.97-7.785-2.97-10.755,0c-2.97,2.97-2.97,7.785,0,10.754l17.838,17.838
		c2.971,2.97,7.785,2.97,10.755,0c2.97-2.97,2.97-7.785,0-10.754L384.992,325.885z"/>
	<path style="fill:#FF8031;" d="M127.009,89.411c2.971,2.97,7.785,2.97,10.755,0c2.97-2.97,2.97-7.785,0-10.754l-17.838-17.838
		c-2.971-2.97-7.785-2.97-10.755,0c-2.97,2.97-2.97,7.785,0,10.754L127.009,89.411z"/>
</g>
<g>
	<path style="fill:#474D54;" d="M437.066,131.499c10.242,0,18.572-8.331,18.572-18.573V66.804c0-10.241-8.331-18.572-18.572-18.572
		H393.13c-10.242,0-18.572,8.331-18.572,18.572s8.331,18.572,18.572,18.572h0.12l-21.537,21.904
		c-24.699-28.585-59.603-47.362-97.05-51.927c-4.15-0.511-7.96,2.459-8.469,6.628c-0.508,4.169,2.46,7.96,6.629,8.469
		c34.12,4.16,65.907,21.429,88.193,47.708l-79.376,80.729l-24.312-17.264c-7.738-5.494-18.325-4.291-24.63,2.798l-63.107,70.943
		c-6.805,7.652-6.117,19.414,1.535,26.221c7.649,6.802,19.386,6.15,26.219-1.534l52.045-58.507l23.645,16.791
		c7.476,5.31,17.569,4.417,23.997-2.121l84.377-85.813c5.237,11.588,8.817,23.833,10.673,36.526c0.607,4.156,4.47,7.033,8.624,6.424
		c4.156-0.607,7.033-4.469,6.424-8.624c-2.345-16.044-7.181-31.444-14.378-45.863l25.741-26.18v0.243
		C418.494,123.167,426.826,131.499,437.066,131.499z M286.19,225.549c-1.164,1.183-2.991,1.346-4.346,0.384l-29.201-20.737
		c-3.164-2.246-7.507-1.75-10.084,1.146l-56.575,63.599c-1.249,1.404-3.377,1.493-4.748,0.277c-1.386-1.233-1.51-3.363-0.278-4.748
		l63.106-70.943c1.094-1.229,3.043-1.514,4.46-0.506l29.594,21.017c3.01,2.136,7.19,1.812,9.825-0.869L416.814,83.103
		c4.716-4.795,1.309-12.936-5.422-12.936H393.13c-4.443,0-4.446-6.727,0-6.727h43.936c1.854,0,3.363,1.509,3.363,3.363v46.122
		c0,4.443-6.727,4.447-6.727,0V94.102c0-6.796-8.272-10.167-13.027-5.331L286.19,225.549z"/>
	<path style="fill:#474D54;" d="M313.604,483.923c10.902,0,19.772-8.87,19.772-19.772v-10.839c0-4.59-1.586-8.808-4.22-12.167
		c2.634-3.359,4.22-7.577,4.22-12.167v-10.84c0-8.636-5.575-15.977-13.307-18.664v-32.403c0-12.475,6.375-23.926,17.053-30.63
		c19.407-12.185,36.109-28.88,48.303-48.281c12.494-19.879,20.308-42.738,22.598-66.106c0.41-4.179-2.646-7.9-6.826-8.31
		c-4.183-0.405-7.9,2.647-8.309,6.827c-4.115,41.969-27.984,80.47-63.854,102.99c-15.138,9.505-24.175,25.77-24.175,43.51v31.296
		h-97.719v-31.987c0-17.18-8.977-33.41-23.429-42.354c-40.865-25.295-65.262-69.051-65.262-117.045
		c-0.001-69.3,51.907-127.989,120.742-136.515c4.168-0.516,7.128-4.314,6.612-8.481c-0.517-4.168-4.322-7.132-8.481-6.612
		c-36.58,4.531-70.401,22.348-95.228,50.168c-25.056,28.075-38.854,64.1-38.854,101.44c0,26.495,6.892,52.599,19.93,75.493
		c12.641,22.194,30.807,41.035,52.536,54.485c10.007,6.194,16.225,17.468,16.225,29.422v33.094
		c-7.732,2.687-13.307,10.028-13.307,18.664v10.84c0,4.59,1.586,8.808,4.22,12.167c-2.634,3.359-4.22,7.577-4.22,12.167v10.839
		c0,10.902,8.87,19.772,19.772,19.772h115.207 M318.167,464.152c0,2.473-2.09,4.563-4.563,4.563c-13.423,0-102.54,0-115.207,0
		c-2.473,0-4.563-2.09-4.563-4.563v-10.839c0-2.473,2.09-4.563,4.563-4.563h115.207c2.473,0,4.563,2.09,4.563,4.563V464.152z
		 M318.167,428.978c0,2.473-2.09,4.563-4.563,4.563H198.397c-2.473,0-4.563-2.09-4.563-4.563v-10.84c0-2.473,2.09-4.563,4.563-4.563
		c24.748,0,93.83,0,115.207,0c2.473,0,4.563,2.09,4.563,4.563V428.978z"/>
</g>
<g>
</g>
<g>
</g>
<g>
</g>
<g>
</g>
<g>
</g>
<g>
</g>
<g>
</g>
<g>
</g>
<g>
</g>
<g>
</g>
<g>
</g>
<g>
</g>
<g>
</g>
<g>
</g>
<g>
</g>
</svg>
