<svg height="512pt" viewBox="0 0 512 512.00261" width="512pt" xmlns="http://www.w3.org/2000/svg"><path d="m385.910156 244.808594c-50.488281 51.929687-102.949218 92.273437-146.496094 110.335937-22.929687 9.511719-40.277343-5.542969-54.792968-19.660156-14.523438-14.128906-30.039063-32.871094-21.113282-54.296875 18.132813-43.519531 55.691407-97.570312 106.148438-149.464844 92.152344-94.78125 192.878906-146.296875 224.980469-115.070312 32.105469 31.230468-16.574219 133.378906-108.726563 228.15625zm0 0" fill="#ffc843"/><path d="m494.636719 16.652344c-10.613281-10.324219-28.734375-11.597656-51.566407-5.257813 2.824219 1.378907 5.359376 3.117188 7.5625 5.257813 32.101563 31.230468-16.578124 133.378906-108.730468 228.15625-47.265625 48.617187-96.257813 87.074218-138.050782 106.605468 10.265626 6.355469 21.925782 9.382813 35.5625 3.730469 43.546876-18.0625 96.007813-58.40625 146.496094-110.335937 92.152344-94.777344 140.832032-196.925782 108.726563-228.15625zm0 0" fill="#ffa816"/><path d="m205.359375 211.007812s-.304687-.546874-.835937-1.5c-17.996094 25.472657-31.9375 49.894532-41.015626 71.679688-8.925781 21.425781 6.589844 40.167969 21.113282 54.296875 14.515625 14.117187 31.863281 29.171875 54.792968 19.660156 22.144532-9.1875 46.597657-24.140625 71.917969-43.441406l-.339843-.195313c-61.972657-37.46875-94.210938-82.171874-105.632813-100.5zm0 0" fill="#fff"/><path d="m244.691406 352.855469c16.832032-7.542969 32.617188-17.152344 47.84375-27.519531 6.195313-4.257813 12.46875-8.808594 18.792969-13.632813h.003906l-.339843-.195313c-8.484376-5.128906-16.386719-10.394531-23.777344-15.707031-29.128906 24.351563-57.613282 43.578125-83.363282 55.613281 13.523438 8.367188 26.667969 7.789063 40.839844 1.441407zm0 0" fill="#e1eaf8"/><path d="m179.648438 392.683594-52.035157-50.613282c-8.800781-8.5625-8.996093-22.636718-.4375-31.441406 8.5625-8.804687 22.640625-9 31.445313-.4375l52.035156 50.617188c8.800781 8.5625 8.996094 22.636718.4375 31.4375-8.5625 8.804687-22.644531 9.003906-31.445312.4375zm0 0" fill="#ffa816"/><path d="m155.023438 467.269531c-58.328126 61.867188-147.582032 27.957031-147.582032 27.957031 40.246094-32.011718 5.300782-84.253906 46.328125-126.453124 27.195313-27.96875 71.90625-28.59375 99.863281-1.390626 27.960938 27.199219 28.152344 71.503907 1.390626 99.886719zm0 0" fill="#fff"/><path d="m153.632812 367.382812c-18.007812-17.523437-42.96875-23.480468-65.71875-18.039062 11.933594 2.863281 23.277344 8.859375 32.714844 18.039062 27.960938 27.199219 28.152344 71.503907 1.390625 99.886719-22.777343 24.160157-50.273437 33.714844-75.324219 36.382813 31.132813 3.085937 74.832032-.851563 108.332032-36.382813 26.757812-28.382812 26.566406-72.691406-1.394532-99.886719zm0 0" fill="#e1eaf8"/><path d="m87.453125 464.546875c-7-21-3.3125-38.554687-13-50.007813-11.003906-13-38.007813-11-43.007813 12.003907l-.503906.1875c-2.035156 25.660156-.667968 50.332031-23.5 68.496093 0 0 68.222656 25.917969 124.359375-8.910156l7.160157-5.265625c-23.503907 14.503907-45.910157.285157-51.507813-16.503906zm0 0" fill="#76ffd9"/><path d="m138.960938 481.050781c-13.011719 8.03125-25.6875 7.246094-35.359376 2.105469-18.363281 12.730469-38.308593 18.515625-56.910156 20.496094 32.675782 3.238281 65.539063-2.953125 92.269532-22.601563zm0 0" fill="#5de0bf"/><path d="m499.871094 11.277344c-11.339844-11.035156-35.277344-19.570313-84.902344 2.417968-8.847656 3.921876-2.765625 17.640626 6.078125 13.71875 32.265625-14.296874 57.183594-16.257812 68.363281-5.386718 12.851563 12.503906 9.457032 42.261718-9.3125 81.644531-20.191406 42.375-55.550781 90.640625-99.566406 135.910156-22.683594 23.328125-45.3125 43.859375-67.085938 61.015625-.878906.695313-1.71875 1.417969-2.546874 2.164063-4.425782 4-12.980469 9.605469-12.980469 9.605469-21.855469 15.886718-42.609375 28.0625-61.375 35.847656-18.167969 7.539062-32.449219-4.253906-46.675781-18.09375l-.019532-.015625c-19.246094-18.726563-25.054687-32.492188-19.414062-46.03125 7.828125-18.792969 19.285156-39.347657 33.585937-60.59375.132813-.195313.269531-.382813.414063-.574219 1.035156-1.328125 7.722656-10.761719 8.90625-12.707031.28125-.453125.570312-.890625.882812-1.320313 17.308594-23.917968 37.921875-48.382812 60.8125-71.929687 36.582032-37.625 75.261719-69.25 111.859375-91.460938 8.273438-5.019531.488281-17.84375-7.78125-12.824219-37.671875 22.859376-77.378906 55.304688-114.835937 93.828126-49.421875 50.832031-88.675782 106.164062-107.691406 151.8125-2.910157 6.976562-3.714844 13.644531-3.035157 19.972656-3.421875-1.28125-7.085937-1.933594-10.847656-1.878906-7.941406.109374-15.367187 3.308593-20.90625 9.003906-9.460937 9.730468-10.898437 24.332031-4.449219 35.554687-4.589844-.757812-9.28125-1.136719-14.035156-1.066406-20.867188.289063-40.371094 8.691406-54.917969 23.652344-22.464843 23.105469-24.117187 49.007812-25.570312 71.859375-1.367188 21.480468-2.550781 40.035156-20.050781 53.957031-4.472657 3.554687-3.335938 10.851563 2.003906 12.882813.941406.355468 23.40625 8.769531 53.492187 9.679687 1.738281.054687 3.460938.082031 5.175781.082031 38.113282 0 70.949219-12.976562 95.222657-37.699218 6.574219-6.699219-3.832031-17.511719-10.707031-10.507813-4.527344 4.609375-25 20.257813-45.003907 28.257813-13.015625 5.207031-27.839843 5.320312-43.769531 4.886718-15.257812-.417968-28.550781-3.003906-37.441406-5.253906 13.574218-16.492188 15.699218-36.144531 16.046875-55.332031.152343-8.3125.140625-19.277344 3.152343-30.316407 3-11 9.585938-23.171874 18.203126-32.035156 11.753906-12.089844 27.511718-18.878906 44.371093-19.113281 16.832031-.226563 32.796875 6.109375 44.882813 17.867187 16.21875 15.777344 22.65625 39.289063 16.800781 61.363282-2.484375 9.351562 12.019531 13.199218 14.5 3.847656 3.097656-11.675781 3.402344-23.679688 1.171875-35.128906 4.328125 2.378906 9.203125 3.644531 14.261719 3.644531.140625 0 .285156 0 .425781-.003906 7.945312-.109375 15.371094-3.308594 20.90625-9.003907 8.464844-8.703124 10.507812-21.304687 6.230469-31.898437 6.675781.390625 13.425781-.949219 19.585937-3.503906 43.308594-17.960938 96.222656-57.75 149.003906-112.035157 45.121094-46.410156 81.472657-96.097656 102.351563-139.910156 22.027344-46.226562 24.242187-81.332031 6.230469-98.851562zm-294.15625 375.742187c-2.746094 2.820313-6.421875 4.40625-10.359375 4.460938-3.9375.042969-7.65625-1.429688-10.480469-4.171875l-52.03125-50.617188c-5.820312-5.664062-5.953125-15.007812-.289062-20.832031 2.742187-2.824219 6.421874-4.40625 10.359374-4.460937 3.914063-.054688 7.65625 1.425781 10.476563 4.171874l25.996094 25.285157c0 .003906.003906.003906.007812.007812.03125.03125.066407.0625.097657.09375l25.933593 25.226563c5.820313 5.664062 5.949219 15.011718.289063 20.835937zm0 0" fill="#434c54"/></svg>