<svg id="Layer_1" height="512" viewBox="0 0 512 512" width="512" xmlns="http://www.w3.org/2000/svg" data-name="Layer 1"><g fill="#d4e1f4"><path d="m212 425.607h20v53h-20z"/><path d="m220.299 404.384h20v9.223h-20z"/><path d="m250 211.037v-32.782l-74.403 121.956 42.541 92.173h20l-42.541-92.173z"/><path d="m266 184.811-4-6.556v13.113z"/></g><path d="m208.3 399.7v13.906h-2.3a6 6 0 0 0 -6 6v65a6 6 0 0 0 6 6h100a6 6 0 0 0 6-6v-65a6 6 0 0 0 -6-6h-2.3v-13.906l44.939-97.368a6 6 0 0 0 -.326-5.639l-87.192-142.92a6 6 0 0 0 -10.244 0l-87.192 142.92a6 6 0 0 0 -.326 5.639zm91.7 78.907h-88v-53h88zm-79.7-65v-9.223h71.4v9.223zm35.7-130.155a20.537 20.537 0 1 1 -20.537 20.537 20.56 20.56 0 0 1 20.537-20.537zm-6-105.2v93.761a32.537 32.537 0 1 0 12 0v-93.758l74.4 121.956-42.541 92.173h-75.721l-42.538-92.173z" fill="#FF6D39"/><path d="m382.4 22.6a29.5 29.5 0 0 0 -28.962 22.96h-67.595v-18.167a6 6 0 0 0 -6-6h-48.333a6 6 0 0 0 -6 6v18.167h-68.2a29.17 29.17 0 0 0 -28.356-23.6c-15.966 0-28.955 13.28-28.955 29.6s12.989 29.6 28.955 29.6a29.169 29.169 0 0 0 28.356-23.6h49.175a83.525 83.525 0 0 0 -34.27 62.641h-16.657a6 6 0 0 0 -6 6v48.332a6 6 0 0 0 6 6h48.333a6 6 0 0 0 6-6v-48.333a6 6 0 0 0 -6-6h-19.656a71.524 71.524 0 0 1 41.275-59.963v15.489a6 6 0 0 0 6 6h48.333a6 6 0 0 0 6-6v-15.5a71.3 71.3 0 0 1 41.275 59.974h-19.657a6 6 0 0 0 -6 6v48.332a6 6 0 0 0 6 6h48.333a6 6 0 0 0 6-6v-48.332a6 6 0 0 0 -6-6h-16.656a83.281 83.281 0 0 0 -34.2-62.641h48.5a29.5 29.5 0 0 0 28.962 22.955c16.323 0 29.6-12.989 29.6-28.954s-13.28-28.96-29.6-28.96zm-253.445 46.562c-9.349 0-16.955-7.9-16.955-17.6s7.606-17.6 16.955-17.6 16.955 7.9 16.955 17.6-7.61 17.6-16.955 17.6zm68.936 99.371h-36.333v-36.333h36.333zm151.9 0h-36.33v-36.333h36.333zm-75.948-98.807h-36.333v-36.333h36.333zm108.557-1.212c-9.706 0-17.6-7.606-17.6-16.954s7.9-16.956 17.6-16.956 17.6 7.606 17.6 16.956-7.9 16.954-17.6 16.954z" fill="#FEBE00"/></svg>