<?xml version="1.0"?>
<svg xmlns="http://www.w3.org/2000/svg" height="512px" viewBox="0 -69 512 512" width="512px" class=""><g><path d="m190.910156 286.09375c1.445313.726562 3.011719 1.085938 4.574219 1.085938 2.144531 0 4.277344-.679688 6.066406-2.007813l80.316407-59.625c2.585937-1.921875 4.113281-4.953125 4.113281-8.171875 0-3.222656-1.527344-6.253906-4.113281-8.171875l-80.316407-59.628906c-3.085937-2.292969-7.203125-2.648438-10.640625-.917969-3.4375 1.726562-5.605468 5.246094-5.605468 9.089844v119.253906c0 3.847656 2.167968 7.367188 5.605468 9.09375zm14.753906-108.113281 53.058594 39.394531-53.058594 39.390625zm0 0" data-original="#000000" class="active-path" data-old_color="#000000" fill="#FF7214"/><path d="m298.242188 292.972656v16.625h-221.898438c-5.625 0-10.179688 4.558594-10.179688 10.179688s4.554688 10.175781 10.179688 10.175781h221.898438v7.207031c0 5.621094 4.558593 10.179688 10.179687 10.179688h41.367187c5.621094 0 10.179688-4.558594 10.179688-10.179688v-7.207031h17.632812c5.621094 0 10.179688-4.554687 10.179688-10.175781s-4.558594-10.179688-10.179688-10.179688h-17.632812v-16.625c0-5.621094-4.558594-10.179687-10.179688-10.179687h-41.367187c-5.621094 0-10.179687 4.558593-10.179687 10.179687zm20.359374 10.179688h21.007813v23.832031h-21.007813zm0 0" data-original="#000000" class="active-path" data-old_color="#000000" fill="#FF7214"/><path d="m501.820312.15625h-79.902343c-5.625 0-10.179688 4.558594-10.179688 10.179688 0 5.621093 4.554688 10.179687 10.179688 10.179687h69.722656v110.441406h-158.542969v-110.441406h7.046875c5.625 0 10.179688-4.558594 10.179688-10.179687 0-5.621094-4.554688-10.179688-10.179688-10.179688h-17.222656c-5.625 0-10.179687 4.558594-10.179687 10.179688v49.714843h-302.5625c-5.621094 0-10.179688 4.558594-10.179688 10.179688v294.332031c0 5.621094 4.558594 10.179688 10.179688 10.179688h450.546874c5.621094 0 10.179688-4.558594 10.179688-10.179688v-213.246094h30.914062c5.621094 0 10.179688-4.558594 10.179688-10.179687v-130.800781c0-5.621094-4.558594-10.179688-10.179688-10.179688zm-51.273437 354.226562h-430.1875v-273.972656h292.382813v60.726563c0 5.621093 4.554687 10.179687 10.179687 10.179687h127.625zm0 0" data-original="#000000" class="active-path" data-old_color="#000000" fill="#FF7214"/><path d="m376.921875 19.925781c1.25.507813 2.542969.746094 3.8125.746094 4.027344 0 7.839844-2.40625 9.4375-6.367187l.125-.308594c2.109375-5.210938-.410156-11.144532-5.621094-13.25-5.214843-2.109375-11.144531.410156-13.25 5.621094l-.125.304687c-2.105469 5.214844.410157 11.148437 5.621094 13.253906zm0 0" data-original="#000000" class="active-path" data-old_color="#000000" fill="#FF7214"/></g> </svg>
