<?xml version="1.0" encoding="utf-8"?>
<!-- Generator: Adobe Illustrator 23.0.3, SVG Export Plug-In . SVG Version: 6.00 Build 0)  -->
<svg version="1.1" id="_x31_7_Rocket" xmlns="http://www.w3.org/2000/svg" xmlns:xlink="http://www.w3.org/1999/xlink" x="0px"
	 y="0px" viewBox="0 0 1400 980" style="enable-background:new 0 0 1400 980;" xml:space="preserve">
<style type="text/css">
	.st0{fill:#F9D2D8;}
	.st1{fill:#181E37;}
	.st2{fill:#FFFFFF;}
	.st3{fill:#CFE8E7;}
</style>
<g>
	<path class="st0" d="M863.3,926.3c0,17.5,6.6,40,6.6,57.6c0,0.3-6.6,0-6.6,0s-0.4,0-2.3,0c-8.7,0-17.5,0-26.2,0c-1.5,0-5.4,0-6.1,0
		c-5.8,0-11.6,0-17.4,0c-24.1,0-48.2,0-72.3,0c-0.9,0-2,0.2-2.5-0.7s0.6-1.4,1-2.1c14.3-20.5,13.1-47.8-3-67.2
		c-9.8-11.8-22.4-18.2-37.6-19.9c-28.4-3.1-53.9,17-59.6,43.3c-0.2,0.7-0.3,1.5-0.5,2.2c-0.3,1.4-0.8,1.7-2.1,1.1
		c-2.9-1.5-6-2.7-9.2-3.5c-11.9-2.8-22.3,0.3-31.2,8.5c-5.8,5.4-9.6,11.8-10.7,19.7c-0.7,5.7-0.4,11.2,1.7,16.6
		c0.4,1.1,0.2,1.5-0.9,1.8c-0.4,0.1-0.7,0.1-1.1,0.1c-3.9,0-58.6,0-79,0c-2.7,0-2.9,0-2.9,0s0-73.5,0-107.8c0-5.9,2-11.2,4.6-16.3
		c7.2-14.1,18.8-22.1,34.2-24.8c14-2.4,26.2,1.6,37.1,10.4c2.3,1.9,4.3,4,6.2,6.3c1.5,1.7,2.1,1.9,4.2,1c9.2-4,18.8-5.9,28.8-5.3
		c15.7,0.8,29.3,6.5,40.8,17.3c7.8,7.3,13.3,16,16.7,26.1c0.2,0.5,0.3,1,0.6,1.5s0.7,0.8,1.4,0.8s1-0.4,1.3-0.9
		c0.3-0.7,0.3-1.4,0.3-2.1c0-29.9,0-82.5,0-112.4c0-0.4,0-0.7,0-1.1c0.1-2.1,0.4-2.5,2.5-2.5c6.6,0,13.3,0,19.9,0
		c6.3,0,12.5,0,18.8,0c2.6,0,2.9,0.3,2.9,2.8c0,19.8,0,62.4,0,82.2c0,0.9,0,1.9,0.2,2.8c0.1,0.4,0,0.9,0.6,1s0.8-0.4,1-0.9
		c0.5-1.2,0.9-2.5,1.4-3.7c7.1-17.9,20.1-28.8,39-31.8c26.5-4.2,51.1,13.7,55.9,40.1c0.5,2.9,0.8,5.9,0.7,8.9c0,0.9-0.2,1.9,0.7,2.5
		c0.9,0.5,1.7-0.2,2.5-0.6c9.5-5.8,19.9-8.3,31-7.9c2.3,0.1,4.7,0.4,7,0.8c1.4,0.3,1.8,0.7,1.9,2.2c0,0.4,0,0.7,0,1.1
		C863.3,891,863.3,908.7,863.3,926.3z"/>
</g>
<g>
	<path class="st1" d="M1154.5,905.6c0,3.6-2.5,6.2-6,6.2c-3.6,0-6.2-2.5-6.2-6.1s2.6-6.2,6.1-6.2S1154.5,902,1154.5,905.6z"/>
	<path class="st1" d="M1128.7,874.3c-1.6,0-2.8-1.2-2.8-2.8s1.2-2.7,2.7-2.7c1.6,0,2.9,1.2,2.9,2.8
		C1131.5,873.1,1130.3,874.3,1128.7,874.3z"/>
</g>
<g>
	<path class="st2" d="M1007.1,984.3c-43.6,0-87.1,0-130.7,0c-0.9,0-1.8,0-2.6,0c-0.9,0-1.7-0.3-2.3-0.9c-5.5-4.9-10.7-10.1-15-16.1
		c-9.2-12.8-14.7-27-16.2-42.7c-1.5-15.4,0.8-30.2,7-44.4c4-9,9.3-17.1,16-24.2c13.5-14.3,29.9-23.4,49.3-26.5
		c27.3-4.3,51.8,2.4,72.7,20.7c16.7,14.6,26.2,33.2,29,55.2c0,0.4,0.1,0.7,0.1,1.1c0.3,2,1.1,2.3,2.7,1.2c6.5-4.5,13.6-7.7,21.4-8.9
		c19.3-3,35.8,2.7,48.8,17.3c9.3,10.4,13.4,22.8,12.9,36.8c0,0.4,0,0.8,0,1.2c0.1,0.8,0.7,1.2,1.5,0.9c0.5-0.2,0.9-0.4,1.4-0.7
		c16-9.3,36.2,0,39.4,18.2c0.6,3.3,0.5,6.5-0.1,9.8c-0.3,1.6-0.9,2.1-2.5,2.1c-0.8,0-1.5,0-2.3,0
		C1094.3,984.3,1050.7,984.3,1007.1,984.3z"/>
	<path class="st2" d="M495.4,982.4c-4.4,0-8.7,0-13.1,0c-1.5,0-2.7-0.4-3.8-1.4c-5.8-5.2-11.6-10.4-17.4-15.6
		c-7.4-6.6-14.8-13.3-22.3-19.9c-6.5-5.8-12.9-11.6-19.4-17.4c-2.6-2.4-5.2-4.8-8-7.1c-1.6-1.3-2-2.8-1.6-4.8
		c2.4-10.6,7-20,14.2-28.2c7.6-8.8,16.8-15.4,27.9-18.9c22.6-7.1,43.5-3.7,62,11.2c13.8,11.1,21.5,25.9,23.2,43.5
		c1.8,18.7-3.7,35.2-16.1,49.3c-2.4,2.8-5.2,5.3-8.1,7.6c-1.3,1.1-2.8,1.6-4.5,1.6C504,982.3,499.7,982.4,495.4,982.4z"/>
</g>
<g>
	<path class="st1" d="M1010.6,982.2c-1.7,0.3-2.8-0.6-3.6-2c-6.5-11.4-13.1-22.8-19.7-34.2c-12-20.8-24-41.6-36-62.5
		c-10.4-18-20.8-36-31.2-54c-0.2-0.4-0.4-0.8-0.5-1.2c-0.2-0.8,0.1-1.3,0.9-1.5c2-0.6,3.6,0,4.7,1.9c8.4,14.5,16.8,29.1,25.2,43.7
		c12,20.8,24,41.6,36,62.4c8.7,15,17.3,30,25.9,45c0.4,0.6,0.9,1.3,0.4,2.1C1012.1,982.4,1011.3,982.1,1010.6,982.2z"/>
	<path class="st1" d="M1024.4,982.2c-1.6,0.2-2.6-0.6-3.4-2c-9.2-16-18.4-31.9-27.6-47.9c-12-20.8-24-41.6-36-62.5
		c-7.7-13.4-15.4-26.7-23.1-40.1c-0.4-0.7-1.3-1.5-0.7-2.4c0.6-0.8,1.6-0.4,2.5-0.4c1.5,0,2.6,0.8,3.4,2.2
		c6.9,11.9,13.8,23.8,20.6,35.7c12,20.8,24,41.6,36,62.4c10.1,17.5,20.2,34.9,30.2,52.4c0.1,0.2,0.3,0.5,0.4,0.7
		c0.5,1.1,0.1,1.8-1.1,1.9C1025.1,982.2,1024.8,982.2,1024.4,982.2z"/>
	<path class="st1" d="M996.4,982.2c-1.6,0.3-2.6-0.8-3.4-2.3c-8.5-14.7-16.9-29.4-25.4-44.1c-12-20.8-24-41.6-36-62.3
		c-8-13.9-16.1-27.8-24.1-41.8c-0.5-0.8-1.3-1.7-0.5-2.6c0.7-0.9,1.9-1,3-0.9c1.2,0.1,1.7,1.1,2.2,2c2.5,4.3,4.9,8.5,7.4,12.8
		c7.3,12.7,14.6,25.3,22,38c10.5,18.1,20.9,36.3,31.4,54.5c8.4,14.5,16.7,29,25.1,43.4c0.1,0.2,0.2,0.4,0.3,0.6
		C999.5,981.6,999.1,982.2,996.4,982.2z"/>
	<path class="st1" d="M1038.1,982.2c-1.5,0.2-2.6-0.7-3.4-2.1c-11.7-20.3-23.4-40.7-35.2-61c-12-20.8-24-41.6-36-62.5
		c-4.7-8.1-9.4-16.2-14-24.3c-0.4-0.7-1.3-1.5-0.6-2.4c0.7-0.8,1.6-0.1,2.5,0c2.2,0.4,3.4,1.8,4.5,3.6
		c10.1,17.6,20.3,35.2,30.4,52.8c11.6,20.2,23.3,40.3,34.9,60.5c6.2,10.7,12.4,21.5,18.6,32.2c0.1,0.1,0.2,0.3,0.2,0.4
		C1041.1,981.7,1040.8,982.2,1038.1,982.2z"/>
	<path class="st1" d="M982.7,982.2c-1.5,0.2-2.5-0.6-3.3-2c-8.4-14.6-16.8-29.1-25.2-43.7c-12-20.8-24-41.6-36-62.4
		c-7.5-13-15-26-22.5-39c-0.2-0.3-0.4-0.7-0.5-1.1c-0.4-0.9-0.2-1.6,0.7-2.1c2-1.1,3.1-0.8,4.2,1.2c10.6,18.4,21.2,36.7,31.8,55.1
		c10.4,18,20.7,36,31.1,53.9c7.2,12.4,14.3,24.8,21.5,37.2c0.1,0.1,0.2,0.3,0.2,0.4c0.8,1.6,0.5,2.2-1.3,2.3
		C983.2,982.2,983,982.2,982.7,982.2z"/>
	<path class="st1" d="M968.8,982.2c-1.7,0.3-2.7-0.9-3.5-2.3c-8.2-14.2-16.4-28.4-24.5-42.6c-12-20.8-24-41.6-36-62.4
		c-6.7-11.6-13.3-23.1-20-34.7c-1.1-1.9-0.8-2.9,1.3-3.7c1.3-0.5,2-0.2,2.9,1.3c2.2,3.7,4.3,7.5,6.5,11.2
		c7.6,13.2,15.3,26.5,22.9,39.7c10.5,18.1,20.9,36.3,31.4,54.4c7,12.1,14,24.2,21,36.4c0.1,0.2,0.2,0.3,0.3,0.5
		c0.7,1.4,0.4,2.1-1.2,2.2C969.4,982.2,969.2,982.2,968.8,982.2z"/>
	<path class="st1" d="M1051.8,982.2c-1.9,0.4-2.7-1.2-3.6-2.7c-5-8.7-10.1-17.5-15.1-26.2c-8.5-14.6-16.9-29.3-25.4-43.9
		c-10.2-17.8-20.5-35.5-30.7-53.3c-3.3-5.6-6.5-11.3-9.8-16.9c-0.3-0.5-0.6-1.1-0.7-1.6c-0.2-0.7,0.2-1.2,0.9-0.8
		c2.6,1.3,5.3,2.4,6.9,5.2c11.8,20.5,23.6,40.9,35.4,61.4c10.6,18.4,21.2,36.9,31.9,55.3c4,7,8,13.9,12.1,20.9
		c0.1,0.2,0.3,0.4,0.4,0.6c0.6,1.3,0.2,2-1.2,2.1C1052.6,982.2,1052.3,982.2,1051.8,982.2z"/>
	<path class="st1" d="M954.9,982.2c-1.5,0.2-2.4-0.6-3.2-2c-11.8-20.5-23.7-41-35.5-61.5C904.1,897.8,892,876.9,880,856
		c-1.8-3.2-3.7-6.4-5.5-9.6c-1-1.8,0-3.7,2-4c1.1-0.1,1.6,0.6,2,1.4c1.7,2.9,3.4,5.9,5.1,8.8c8.4,14.6,16.8,29.2,25.2,43.7
		c10.3,17.8,20.6,35.7,30.9,53.5c5.6,9.8,11.3,19.5,16.9,29.3c0,0,0,0.1,0.1,0.1C958,981.6,957.6,982.2,954.9,982.2z"/>
	<path class="st1" d="M941,982.2c-1.4,0.2-2.4-0.6-3.2-2c-10.8-18.8-21.7-37.6-32.6-56.4c-13.3-23-26.5-46-39.8-69
		c-1.1-1.9-0.9-2.9,0.8-4.2c1.1-0.8,1.8-0.8,2.6,0.5c1.1,1.8,2.2,3.6,3.2,5.5c15.3,26.6,30.6,53.1,46,79.7
		c8.3,14.4,16.6,28.8,24.9,43.2c0.1,0.1,0.1,0.2,0.2,0.3c0.9,1.7,0.6,2.3-1.3,2.4C941.6,982.2,941.4,982.2,941,982.2z"/>
	<path class="st1" d="M927.4,982.2c-1.7,0.2-2.7-0.6-3.5-2c-8.6-14.9-17.2-29.9-25.8-44.8c-12-20.8-24-41.6-36-62.5
		c-1.7-2.9-3.4-5.8-5-8.7c-0.9-1.7-0.3-3.7,1.3-4.6c0.9-0.5,1.5,0,1.9,0.7c1,1.6,1.9,3.2,2.8,4.9c6.7,11.7,13.5,23.3,20.2,35
		c10.3,17.8,20.5,35.6,30.8,53.4c5,8.6,10,17.2,14.9,25.9c0.4,0.7,1.1,1.4,0.6,2.2C929.1,982.4,928.1,982.1,927.4,982.2z"/>
	<path class="st1" d="M913.4,982.2c-1.7,0.3-2.7-0.8-3.5-2.3c-9.1-15.8-18.2-31.5-27.3-47.3c-10.9-18.9-21.8-37.8-32.7-56.6
		c-1-1.8-0.9-3.1,0.5-4.9c0.8-1.1,1.6-1.1,2.3,0.1c0.9,1.5,1.8,3,2.6,4.6c11.4,19.7,22.7,39.3,34.1,59c8.6,14.9,17.1,29.7,25.7,44.6
		c0.1,0.2,0.2,0.4,0.4,0.6c0.7,1.4,0.3,2-1.2,2.1C914,982.2,913.8,982.2,913.4,982.2z"/>
	<path class="st1" d="M899.5,982.2c-1.5,0.2-2.5-0.6-3.3-2.1c-10.6-18.4-21.2-36.7-31.8-55.1c-6.7-11.5-13.3-23.1-20-34.6
		c-1.2-2.1-1-4,0-6c0.5-1.1,1.3-1.2,2-0.2c0.7,1.1,1.4,2.3,2,3.4c11.4,19.7,22.7,39.4,34,59c6.3,10.9,12.6,21.7,18.8,32.6
		c0,0,0,0.1,0.1,0.1C902.5,981.5,902.1,982.2,899.5,982.2z"/>
	<path class="st1" d="M1093.5,982.2c-1.5,0.2-2.5-0.6-3.3-2c-14-24.3-28-48.6-42-72.8c-1.6-2.7-3.1-5.4-4.7-8.1
		c-0.3-0.4-0.5-0.9-0.6-1.4c-0.2-0.7,0.1-1.2,0.8-1.5c1.9-0.7,3.6-0.1,4.6,1.7c4,6.8,7.9,13.7,11.9,20.6
		c5.3,9.2,10.6,18.4,15.9,27.5c6.4,11,12.7,22,19.1,33c0.1,0.1,0.1,0.2,0.2,0.3C1096.6,981.6,1096.2,982.2,1093.5,982.2z"/>
	<path class="st1" d="M1107.4,982.2c-1.6,0.3-2.5-0.7-3.4-2.2c-5-8.6-9.9-17.3-14.9-25.9c-7.3-12.7-14.6-25.4-22-38
		c-3.1-5.4-6.2-10.8-9.3-16.2c-0.2-0.3-0.4-0.6-0.5-1c-0.3-1,0.1-1.5,1.1-1.4c2.3,0.2,4.2,1,5.5,3.3c10.6,18.4,21.2,36.8,31.8,55.2
		c4.5,7.8,9,15.6,13.5,23.4C1110.5,981.6,1110.2,982.2,1107.4,982.2z"/>
	<path class="st1" d="M1079.6,982.2c-1.5,0.2-2.5-0.6-3.3-2c-7.9-13.8-15.9-27.5-23.8-41.2c-7.2-12.4-14.3-24.8-21.5-37.2
		c-1-1.7-0.9-2.4,0.1-3c1.6-1,3.2-0.8,4.1,0.7c3,5.1,5.9,10.2,8.9,15.2c7.7,13.4,15.5,26.8,23.2,40.2c4.8,8.3,9.6,16.5,14.4,24.8
		C1082.7,981.5,1082.2,982.2,1079.6,982.2z"/>
	<path class="st1" d="M885.8,982.2c-1.8,0.3-2.8-0.7-3.6-2.2c-10-17.4-20-34.8-30.1-52.2c-3.8-6.5-7.5-13-11.3-19.5
		c-1.4-2.4-1-4.8-0.5-7.3c0.1-0.4,0.3-0.8,0.8-0.8c0.6-0.1,0.9,0.4,1.1,0.8c1.2,2.1,2.4,4.1,3.6,6.2c9.8,16.9,19.5,33.9,29.3,50.8
		c4.1,7.1,8.2,14.3,12.3,21.4c0.4,0.7,1,1.4,0.5,2.2C887.4,982.4,886.5,982.1,885.8,982.2z"/>
	<path class="st1" d="M1065.7,982.2c-1.5,0.3-2.5-0.7-3.3-2.1c-7.8-13.5-15.5-26.9-23.3-40.4c-6.3-10.9-12.6-21.8-18.9-32.7
		c-0.2-0.4-0.5-0.8-0.7-1.3c-0.4-0.9-0.1-1.5,0.6-2.1c1.9-1.5,2.9-1.3,4.2,0.9c11.1,19.3,22.3,38.6,33.4,58
		c3.2,5.6,6.5,11.2,9.7,16.8c0,0.1,0.1,0.1,0.1,0.2C1068.8,981.6,1068.4,982.2,1065.7,982.2z"/>
	<path class="st1" d="M840,925.1c0.2-0.7-0.3-1.6,0.5-1.8c0.7-0.2,1.1,0.6,1.4,1.2c3.1,5.3,6.2,10.6,9.3,16c7.5,13,15,26,22.5,39.1
		c0.4,0.7,1.2,1.5,0.4,2.3s-2,0.5-2.8-0.2c-1.8-1.5-3.7-3-4.9-5.1c-5.9-10.3-11.9-20.6-17.8-30.9c-2-3.5-4-7-6.1-10.5
		C840.6,932,840.6,928.4,840,925.1z"/>
	<path class="st1" d="M1099.3,943.6c-0.2,0.7,0.3,1.8-0.5,2s-1.2-0.8-1.6-1.4c-4.3-7.4-8.5-14.7-12.8-22.1c-2.9-5-5.7-10-8.6-15
		c-0.3-0.5-1-1.3-0.4-1.8c0.7-0.6,1.3,0.2,1.9,0.5c3.4,2.3,6.2,4.9,8.2,8.6c3.5,6.6,7.4,13,11.2,19.4
		C1098.7,937,1099,940.3,1099.3,943.6z"/>
	<path class="st1" d="M1135.1,982.2c-1.4,0.2-2.4-0.6-3.2-1.9c-5.6-9.7-11.1-19.3-16.7-29c-1-1.8-0.6-2.4,1.4-2.5s3.2,0.9,4.2,2.6
		c4.9,8.7,9.9,17.3,14.9,26c0.5,0.8,1,1.6,1.4,2.5c0.9,1.6,0.5,2.3-1.3,2.4C1135.7,982.2,1135.5,982.2,1135.1,982.2z"/>
	<path class="st1" d="M1121.3,982.2c-1.4,0.2-2.5-0.6-3.3-2c-4.8-8.4-9.7-16.8-14.5-25.1c-1.2-2-0.8-3.1,1.3-3.8
		c1.3-0.4,2-0.2,2.8,1.2c1.9,3.2,3.7,6.4,5.5,9.6c3.2,5.6,6.5,11.2,9.7,16.8c0.1,0.2,0.2,0.4,0.4,0.6
		C1124.3,981.5,1123.9,982.2,1121.3,982.2z"/>
	<path class="st1" d="M1009.2,885.5c0,0.3,0,0.5-0.2,0.6s-0.4,0-0.5-0.2c-0.4-0.5-0.8-0.9-1.1-1.4c-5.1-8.5-10-17.1-14.8-25.8
		c-0.4-0.6-1.3-1.6-0.5-2.1c0.6-0.4,1.3,0.7,1.8,1.3c3.8,4.3,6.9,9.1,9.7,14.1c2.2,4,4.1,8.2,5.4,12.5
		C1009,884.9,1009.1,885.3,1009.2,885.5z"/>
	<path class="st1" d="M1141.8,970.2c-0.1,0.4,0.2,1-0.3,1.2c-0.6,0.2-0.9-0.4-1.2-0.8c-1.8-3-3.6-6.1-5.3-9.1c-1-1.7-1.9-3.3-2.8-5
		c-0.3-0.5-0.9-1.2-0.4-1.7c0.6-0.6,1.3,0.2,1.7,0.6c3.3,2.8,5.7,6.3,7.2,10.4C1141.2,967.2,1141.7,968.7,1141.8,970.2z"/>
	<path class="st1" d="M435.6,936.2c0,2-1.4,3.5-3.5,3.5c-1.9,0-3.4-1.4-3.4-3.4c0-1.8,1.6-3.4,3.4-3.5
		C434.1,932.8,435.6,934.3,435.6,936.2z"/>
	<path class="st1" d="M456.2,939.7c-1.9,0-3.4-1.5-3.4-3.4c0-1.8,1.6-3.4,3.5-3.4s3.4,1.5,3.4,3.4
		C459.7,938.3,458.2,939.7,456.2,939.7z"/>
	<path class="st1" d="M483.6,936.2c0,2-1.4,3.5-3.4,3.5c-1.9,0-3.4-1.4-3.4-3.4c0-1.8,1.5-3.4,3.4-3.5
		C482.1,932.8,483.6,934.3,483.6,936.2z"/>
	<path class="st1" d="M507.6,936.3c0,2-1.5,3.4-3.6,3.4c-1.9,0-3.3-1.6-3.3-3.5c0-1.8,1.7-3.4,3.6-3.3
		C506.2,932.8,507.7,934.4,507.6,936.3z"/>
	<path class="st1" d="M531.6,936.2c0,2-1.4,3.5-3.5,3.5c-1.9,0-3.4-1.4-3.4-3.4c0-1.8,1.6-3.4,3.4-3.5
		C530.1,932.8,531.6,934.3,531.6,936.2z"/>
	<path class="st1" d="M447.6,948.3c0,2-1.5,3.4-3.6,3.4c-1.9,0-3.4-1.6-3.3-3.5c0-1.8,1.7-3.4,3.5-3.4
		C446.2,944.8,447.7,946.4,447.6,948.3z"/>
	<path class="st1" d="M471.6,948.3c0,2-1.5,3.4-3.5,3.4c-1.9,0-3.4-1.5-3.4-3.5c0-1.8,1.6-3.4,3.5-3.4
		C470.2,944.8,471.7,946.3,471.6,948.3z"/>
	<path class="st1" d="M495.6,948.3c0,2-1.5,3.4-3.5,3.4c-1.9,0-3.4-1.5-3.3-3.5c0-1.8,1.7-3.4,3.5-3.4
		C494.2,944.8,495.7,946.4,495.6,948.3z"/>
	<path class="st1" d="M516.1,975.7c-1.9,0-3.4-1.5-3.4-3.5c0-1.8,1.6-3.4,3.5-3.4s3.4,1.5,3.4,3.4
		C519.6,974.3,518.2,975.7,516.1,975.7z"/>
	<path class="st1" d="M495.6,972.3c0,2-1.5,3.4-3.6,3.4c-1.9,0-3.4-1.6-3.3-3.5c0-1.8,1.7-3.4,3.5-3.4
		C494.2,968.8,495.7,970.4,495.6,972.3z"/>
	<path class="st1" d="M471.6,972.2c0,2-1.5,3.4-3.5,3.4c-1.9,0-3.4-1.5-3.4-3.4c0-1.8,1.6-3.4,3.5-3.4S471.6,970.3,471.6,972.2z"/>
	<path class="st1" d="M447.6,972.2c0,2-1.5,3.4-3.5,3.4c-1.9,0-3.4-1.5-3.4-3.4c0-1.8,1.6-3.4,3.5-3.4S447.6,970.3,447.6,972.2z"/>
	<path class="st1" d="M519.6,948.2c0,2-1.5,3.4-3.5,3.4c-1.9,0-3.4-1.5-3.4-3.4c0-1.8,1.6-3.4,3.5-3.4S519.6,946.3,519.6,948.2z"/>
	<path class="st1" d="M435.6,960.3c0,2-1.5,3.4-3.5,3.4c-1.9,0-3.4-1.5-3.4-3.5c0-1.8,1.6-3.4,3.5-3.4
		C434.2,956.8,435.7,958.3,435.6,960.3z"/>
	<path class="st1" d="M456.2,963.7c-1.9,0-3.4-1.4-3.4-3.4c0-1.9,1.6-3.5,3.5-3.5s3.3,1.5,3.3,3.4
		C459.7,962.2,458.2,963.7,456.2,963.7z"/>
	<path class="st1" d="M483.6,960.3c0,2-1.5,3.4-3.6,3.4c-1.9,0-3.4-1.6-3.3-3.5c0-1.8,1.7-3.4,3.5-3.4
		C482.2,956.8,483.7,958.4,483.6,960.3z"/>
	<path class="st1" d="M507.6,960.2c0,2-1.5,3.4-3.5,3.4c-1.9,0-3.4-1.5-3.4-3.4c0-1.8,1.6-3.4,3.5-3.4S507.6,958.3,507.6,960.2z"/>
	<path class="st1" d="M471.6,876.3c0,2-1.5,3.4-3.6,3.4c-1.9,0-3.4-1.6-3.3-3.5c0-1.8,1.7-3.4,3.5-3.4
		C470.2,872.8,471.7,874.4,471.6,876.3z"/>
	<path class="st1" d="M495.6,876.2c0,2-1.5,3.5-3.5,3.4c-1.9,0-3.4-1.5-3.4-3.4c0-1.8,1.6-3.4,3.5-3.4S495.6,874.3,495.6,876.2z"/>
	<path class="st1" d="M432.2,891.7c-1.9,0-3.4-1.5-3.4-3.4s1.7-3.5,3.6-3.5s3.3,1.5,3.3,3.4C435.7,890.2,434.2,891.7,432.2,891.7z"
		/>
	<path class="st1" d="M459.6,888.2c0,2-1.4,3.5-3.5,3.5c-1.9,0-3.4-1.4-3.4-3.4c0-1.8,1.6-3.4,3.4-3.5
		C458.1,884.8,459.6,886.3,459.6,888.2z"/>
	<path class="st1" d="M483.6,888.2c0,2-1.4,3.5-3.5,3.5c-1.9,0-3.4-1.5-3.4-3.4c0-1.8,1.6-3.4,3.4-3.5
		C482.1,884.8,483.6,886.3,483.6,888.2z"/>
	<path class="st1" d="M507.6,888.2c0,2-1.4,3.5-3.5,3.5c-1.9,0-3.4-1.4-3.4-3.4c0-1.8,1.6-3.4,3.4-3.5
		C506.1,884.8,507.6,886.3,507.6,888.2z"/>
	<path class="st1" d="M423.6,900.2c0,2-1.5,3.4-3.5,3.4c-1.9,0-3.4-1.5-3.4-3.4c0-1.8,1.6-3.4,3.5-3.4S423.6,898.3,423.6,900.2z"/>
	<path class="st1" d="M447.6,900.3c0,2-1.5,3.4-3.6,3.4c-1.9,0-3.3-1.6-3.3-3.5c0-1.8,1.7-3.4,3.6-3.3
		C446.2,896.8,447.7,898.4,447.6,900.3z"/>
	<path class="st1" d="M468.1,903.7c-1.9,0-3.4-1.5-3.4-3.4c0-1.8,1.6-3.4,3.5-3.4s3.4,1.5,3.4,3.4
		C471.7,902.3,470.2,903.7,468.1,903.7z"/>
	<path class="st1" d="M495.6,900.3c0,2-1.5,3.4-3.5,3.4c-1.9,0-3.4-1.5-3.4-3.5c0-1.8,1.6-3.4,3.5-3.4
		C494.2,896.8,495.7,898.3,495.6,900.3z"/>
	<path class="st1" d="M519.6,900.2c0,2-1.4,3.5-3.5,3.5c-1.9,0-3.4-1.5-3.4-3.4c0-1.8,1.6-3.4,3.5-3.4
		C518.1,896.8,519.6,898.3,519.6,900.2z"/>
	<path class="st1" d="M435.6,912.2c0,2-1.4,3.5-3.5,3.4c-1.9,0-3.4-1.5-3.4-3.4c0-1.8,1.6-3.4,3.5-3.4S435.6,910.3,435.6,912.2z"/>
	<path class="st1" d="M459.6,912.2c0,2-1.4,3.5-3.5,3.4c-1.9,0-3.4-1.5-3.4-3.4c0-1.8,1.6-3.4,3.5-3.4S459.6,910.3,459.6,912.2z"/>
	<path class="st1" d="M483.6,912.2c0,2-1.5,3.4-3.5,3.4c-1.9,0-3.4-1.5-3.4-3.4c0-1.8,1.6-3.4,3.5-3.4S483.6,910.3,483.6,912.2z"/>
	<path class="st1" d="M507.6,912.3c0,2-1.5,3.4-3.6,3.4c-1.9,0-3.4-1.5-3.3-3.5c0-1.8,1.7-3.4,3.5-3.4
		C506.2,908.8,507.7,910.4,507.6,912.3z"/>
	<path class="st1" d="M531.6,912.3c0,2-1.5,3.4-3.5,3.4c-1.9,0-3.4-1.5-3.3-3.5c0-1.8,1.7-3.4,3.5-3.4
		C530.2,908.8,531.7,910.3,531.6,912.3z"/>
	<path class="st1" d="M423.6,924.2c0,2-1.4,3.5-3.4,3.5c-1.9,0-3.4-1.4-3.4-3.4c0-1.8,1.5-3.4,3.4-3.5
		C422.1,920.8,423.6,922.3,423.6,924.2z"/>
	<path class="st1" d="M447.6,924.2c0,2-1.4,3.5-3.5,3.5c-1.9,0-3.4-1.5-3.4-3.4c0-1.8,1.6-3.4,3.4-3.5
		C446.1,920.8,447.6,922.3,447.6,924.2z"/>
	<path class="st1" d="M516.2,927.7c-1.9,0-3.4-1.5-3.4-3.4s1.7-3.5,3.6-3.5c1.9,0,3.3,1.5,3.3,3.4
		C519.7,926.2,518.2,927.7,516.2,927.7z"/>
	<path class="st1" d="M471.6,924.2c0,2-1.5,3.4-3.5,3.4c-1.9,0-3.4-1.5-3.4-3.4c0-1.8,1.6-3.4,3.5-3.4S471.6,922.3,471.6,924.2z"/>
	<path class="st1" d="M492.2,927.7c-1.9,0-3.4-1.4-3.4-3.4c0-1.9,1.6-3.5,3.5-3.5c1.8,0,3.3,1.5,3.4,3.4
		C495.7,926.2,494.2,927.7,492.2,927.7z"/>
	<path class="st1" d="M444.2,879.7c-1.9,0-3.4-1.5-3.4-3.4c0-1.8,1.6-3.3,3.5-3.3s3.3,1.4,3.3,3.3
		C447.7,878.2,446.2,879.7,444.2,879.7z"/>
	<path class="st1" d="M528.3,956.8c1.8,0,2.6,1.1,1.9,2.8c-0.5,1.1-1,2.1-1.7,3c-0.8,1-1.7,1-2.7,0.1c-0.9-0.9-1.3-2.4-0.8-3.7
		C525.5,957.7,526.9,956.8,528.3,956.8z"/>
	<path class="st1" d="M480.1,867.5c-0.6-0.1-1.2,0.1-1.3-0.6c-0.1-0.5,0.5-0.6,0.9-0.5c0.5,0,1.3,0,1.4,0.6
		C481.1,867.5,480.4,867.4,480.1,867.5z"/>
</g>
<g>
	<path class="st3" d="M786.3,639.8c0-22.8,0-45.6,0-68.4c0-1.2,0.1-2.5,0.2-3.7c0-0.4,0.1-0.8,0.5-1c0.4-0.1,0.7,0.2,0.9,0.5
		c0.3,0.4,0.6,0.9,0.8,1.3c5.9,12,11.7,24.1,17.6,36.1c1.8,3.7,3.6,7.4,5.4,11.1c6.1,12.4,12.1,24.8,18.2,37.2
		c4.7,9.7,9.5,19.4,14.2,29.1c4.7,9.7,9.5,19.4,14.2,29.1c1,2,0.5,2.7-1.7,2.8c-2.3,0-4.6,0-6.8,0c-20.2,0-40.3,0-60.5,0
		c-2.5,0-2.9-0.4-3.1-2.9c0-0.6,0-1.2,0-1.8C786.3,686.1,786.3,663,786.3,639.8z"/>
	<path class="st3" d="M610.3,639.9c0,23.5,0,46.9,0,70.4c0,3.4-0.2,3.6-3.6,3.6c-21.9,0-43.7,0-65.6,0c-0.2,0-0.5,0-0.7,0
		c-2.8,0-3.2-0.6-2-3.2c1.8-3.8,3.7-7.6,5.5-11.4c4.4-8.9,8.8-17.9,13.2-26.8c6.6-13.5,13.2-27.1,19.8-40.6
		c4.8-9.8,9.5-19.5,14.3-29.3c5.3-10.9,10.6-21.9,15.9-32.8c0.4-0.8,0.8-1.6,1.3-2.4c0.3-0.4,0.5-1,1.1-0.9c0.6,0.2,0.6,0.8,0.6,1.3
		c0.1,1.2,0.1,2.3,0.1,3.5C610.3,594.2,610.3,617,610.3,639.9z"/>
</g>
<path class="st3" d="M337.2,235.6c-0.3-33.7,24.6-58,49.2-63.8c4.1-1,8.3-1.6,12.5-2c0.5-0.1,1-0.1,1.4,0.1c0.7,0.4,1.1,1,0.5,1.8
	c-0.3,0.5-0.7,0.9-1.1,1.3c-7,9.3-11.4,19.6-11.3,31.5c0.1,15.2,9.2,35.2,26.1,44c6.5,3.4,13.4,5.1,20.6,5.7
	c10.9,1,20.9-1.7,30.2-7.5c0.3-0.2,0.7-0.5,1-0.6c0.8-0.3,1.4,0.1,1.4,1c0,0.5-0.1,0.9-0.2,1.4c-5.4,26.5-25.3,46.5-51.7,51.8
	c-33.3,6.7-63.2-12.3-74.5-40.5C338.4,252,337.2,243.9,337.2,235.6z"/>
<path class="st1" d="M599.3,771.6c0-4.7,0.2-9.5-0.1-14.2c-0.5-8.3,0.6-16.6-0.2-24.9c-0.3-3,0.3-6,0.3-9.1c0-3-0.5-6.1-0.3-9.1
	c0.2-3.1,0.2-6.2,0.3-9.3c0.1-5.2,0.1-10.4,0.3-15.6c0.3-10.5,0.7-21.1,1.3-31.6c0.7-12.4,1.7-24.7,2.8-37.1
	c1.1-12.3,2.5-24.7,4.1-36.9c1.5-12.2,3.3-24.4,5.3-36.5c3.1-19.1,6.8-38.1,10.9-57c7.6-34.8,16.8-69.1,27.7-103
	c10.5-32.9,22.6-65.2,36.6-96.8c3-6.9,6.3-13.6,9.6-20.4c0.2-0.4,0.3-0.7,0.6-1.1c0.7-0.9,1.5-0.9,2.2,0c0.2,0.2,0.3,0.6,0.5,0.8
	c10.7,21.8,20,44.1,28.6,66.7c15.3,40.2,27.8,81.2,38.2,122.8c6.3,25.4,11.7,50.9,16.2,76.7c3.3,19.1,6.1,38.2,8.4,57.4
	c1.9,15.9,3.4,31.8,4.5,47.7c1.2,17.5,2.2,35.1,2.4,52.7c0.1,4.9,0,9.8,0.4,14.6c0.4,5.1,0,10.2-0.1,15.3c0,2.2,0,4.3,0.3,6.5
	c0.1,0.8,0.2,1.6,0.1,2.4c-0.7,4.2-0.3,8.4-0.2,12.7c0.1,3-0.1,6.1-0.1,9.1c0,11.7-0.1,23.4-0.1,35c0,0.5,0,1,0,1.4
	c-0.1,1.8-0.7,2.3-2.5,1.7c-5.6-1.8-11.2-3.7-16.8-5.6c-17-5.7-34.1-11.4-51.1-17.1c-0.7-0.2-1.4-0.4-2.1-0.6
	c-1.8-0.4-2.4,0-2.6,1.8c-0.2,1.6-0.1,3.2-0.2,4.8c0,2.3,0,4.6-0.1,7c-0.1,1.6-0.5,2-2.1,2c-2.2,0.1-4.3,0.2-6.5,0.2
	c-11.7,0-23.4,0-35,0c-1.4,0-2.7-0.1-4.1-0.2c-1.6-0.1-1.9-0.4-2.1-2.1c-0.4-3.1-0.1-6.2-0.2-9.3c0-0.8,0-1.6,0-2.4
	c-0.1-1.6-0.8-2.1-2.4-1.8c-1.6,0.4-3.2,0.9-4.8,1.4c-21.1,7-42.1,14.1-63.2,21.1c-4.5,1.5-4.7,1.4-4.7-3.3
	C599.3,782.9,599.3,777.3,599.3,771.6z"/>
<path class="st2" d="M699.3,713.5c30.6,0,61.3,0,91.9,0c0.8,0,1.6,0,2.4,0c2.7-0.1,3.3-0.7,3.4-3.5c0-1.8-0.1-3.7-0.1-5.5
	c-0.1-11.7-0.4-23.3-0.9-35c-0.7-16.3-1.9-32.6-3.4-48.8c-1.6-17.6-3.8-35.1-6.3-52.6c-3.1-21.6-6.8-43.1-11.3-64.5
	c-6.3-30.6-13.9-60.9-22.8-90.9c-3.2-10.9-6.6-21.7-10.2-32.5c-1.2-3.5-1.6-3.8-5.1-3.8c-2.5,0-5,0-7.4,0c-22.6,0-45.3,0-67.9,0
	c-3.3,0-3.8,0.4-4.8,3.5c-1,3-1.9,5.9-2.9,8.9c-10.7,33.3-19.7,67-27.2,101.1c-4.2,19.2-7.9,38.5-11.1,57.9
	c-2.1,12.7-3.9,25.4-5.5,38.2c-1.4,10.7-2.5,21.4-3.6,32.2c-1.3,13.7-2.4,27.4-3.1,41.1c-0.8,15-1.4,30-1.5,45.1
	c0,2.1,0,4.2,0.1,6.2c0.1,2.1,0.8,2.7,2.8,2.8c0.9,0.1,1.8,0,2.6,0C638.1,713.5,668.7,713.5,699.3,713.5z"/>
<path class="st0" d="M699.1,359.3c10.2,0,20.3,0,30.5,0c0.7,0,1.4,0,2.2,0c2.1-0.2,2.6-0.9,2.1-3c-0.1-0.6-0.4-1.2-0.6-1.8
	c-0.6-1.7-1.2-3.3-1.8-5c-8.9-24.3-18.6-48.3-29.7-71.7c-0.3-0.7-0.7-1.5-1.2-2.1c-0.8-1-1.6-1-2.4,0c-0.5,0.6-0.8,1.4-1.2,2.1
	c-11.9,25.1-22.2,50.8-31.6,76.9c-1.5,4.2-1.2,4.6,3.4,4.6C679,359.3,689,359.3,699.1,359.3z"/>
<path class="st2" d="M694.2,751.1c-25.9,0.1-57.1-0.1-88.3,0.2c-0.5,0-1,0-1.4,0c-1.9,0.1-2.4,0.6-2.5,2.5c-0.1,2.1-0.1,4.2-0.1,6.2
	c0,5,0.2,5.3,5.3,5.3c23.2-0.3,46.4,0.2,69.6-0.4c18.4-0.5,36.8-0.2,55.2,0.3c20,0.6,40,0.1,60,0.1c0.7,0,1.4,0,2.2,0
	c2.2-0.1,2.8-0.8,2.9-3c0.1-2.6,0.1-5.1,0-7.7c0-2.8-0.5-3.3-3.4-3.3c-7-0.1-14.1-0.1-21.1-0.2C748.2,751.1,723.9,751.1,694.2,751.1
	z"/>
<path class="st0" d="M699.5,734c-30.6,0-61.1,0-91.7,0c-1,0-1.9,0-2.9,0c-2.5,0.1-2.9,0.6-3,3c0,2.4,0,4.8,0,7.2
	c0,2.6,0.6,3.2,3.3,3.3c0.3,0,0.6,0,1,0c62.2,0,124.3,0,186.5,0c0.8,0,1.6,0,2.4-0.1c1.1-0.1,1.8-0.8,1.8-1.9c0.2-3.2,0.2-6.4,0-9.6
	c-0.1-1.1-0.8-1.7-1.9-1.8c-1.1-0.1-2.2-0.1-3.4-0.1C760.9,734,730.2,734,699.5,734z"/>
<path class="st2" d="M699.6,730.2c31,0,61.9,0,92.9,0c0.7,0,1.4,0,2.2,0c1.6-0.1,2.3-0.7,2.3-2.2c0.1-3,0.1-6.1,0-9.1
	c-0.1-1.5-0.6-1.9-2.1-2.1c-1-0.1-1.9-0.1-2.9-0.1c-61.7,0-123.3,0-185,0c-0.8,0-1.6,0-2.4,0.1c-1.8,0.2-2.4,0.7-2.5,2.5
	c-0.1,2.2-0.1,4.3-0.1,6.5c0,4.1,0.4,4.5,4.6,4.5C637.5,730.2,668.5,730.2,699.6,730.2z"/>
<path class="st1" d="M699.3,373.8c11.7,0,23.4,0,35,0c1,0,2.1,0,3.1-0.2c1.5-0.2,2-0.8,1.6-2.3c-0.7-2.5-1.6-4.9-2.4-7.3
	c-0.5-1.3-1.5-2-2.9-2.1c-0.6,0-1.3,0-1.9,0c-21.5,0-43,0-64.6,0c-0.8,0-1.6,0-2.4,0.1c-0.9,0.1-1.8,0.5-2.2,1.3
	c-1.3,2.7-2.3,5.4-2.8,8.4c-0.2,1.2,0.3,1.7,1.6,1.9c1.3,0.1,2.6,0.2,3.8,0.2C676.6,373.8,687.9,373.8,699.3,373.8z"/>
<path class="st1" d="M766.3,767.9c-8.8,0-17.6,0-26.4,0c-0.6,0-1.3,0-1.9,0c-0.6,0-1.2,0.1-1.3,0.8s0.3,1,0.9,1.2
	c1.4,0.5,2.9,1,4.3,1.5c16.7,5.6,33.5,11.2,50.2,16.8c0.7,0.2,1.4,0.5,2.1,0.6c1.9,0.4,2.5-0.1,2.7-1.9c0-0.3,0-0.6,0-1
	c0-4.9,0-9.8,0-14.6c0-2.9-0.5-3.4-3.3-3.4c-0.6,0-1.1,0-1.7,0C783.4,767.9,774.9,767.9,766.3,767.9z"/>
<path class="st1" d="M632.3,767.9c-8.6,0-17.3,0-25.9,0c-0.6,0-1.3,0-1.9,0c-1.8,0.2-2.5,0.7-2.5,2.6c-0.1,5.3-0.1,10.6,0,15.8
	c0,2.3,1,2.9,3.3,2.4c0.3-0.1,0.6-0.2,0.9-0.3c17.6-5.9,35.3-11.8,52.9-17.8c0.9-0.3,1.8-0.7,2.7-1.1c0.3-0.1,0.5-0.4,0.5-0.8
	c-0.1-0.3-0.3-0.6-0.6-0.6c-1.2-0.1-2.4-0.3-3.6-0.3C649.4,767.9,640.9,767.9,632.3,767.9z"/>
<path class="st1" d="M699.5,782.5c6.3,0,12.6,0,18.9,0c2.6,0,3.3-0.7,3.3-3.3c0.1-2.2,0-4.3,0-6.5c0-4-0.4-4.4-4.4-4.4
	c-12,0-24,0-36,0c-0.8,0-1.6,0.1-2.4,0.2c-1.1,0.1-1.7,0.8-1.8,1.9c-0.2,3.3-0.2,6.6,0,9.8c0.1,1.4,0.8,2,2.1,2.2
	c0.7,0.1,1.4,0.1,2.2,0.1C687.5,782.6,693.5,782.6,699.5,782.5z"/>
<path class="st0" d="M1118.7,480.4c-12.1-0.1-24.4-4-35.6-11.4c-12.5-8.3-22-19.2-27.8-33.1c-1.1-2.7-2.7-3.7-5.6-3.7
	c-12.8-0.2-25.6-0.7-38.3-2.4c-5.1-0.7-10.3-1.6-15.2-3.3c-1.7-0.6-3.4-1.3-4.9-2.5c-2.5-2.1-2.8-4.6-0.7-7.1c1.3-1.7,3.1-2.7,5-3.7
	c6.3-3.3,13-5.3,19.8-7.2c10.2-2.8,20.5-4.9,30.9-6.7c3.5-0.6,3.9-1,4.6-4.5c2.8-14.5,9.3-27.2,19.7-37.7
	c10.4-10.5,22.9-17.3,37.4-20.1c20.7-4,39.7,0.2,56.9,12.4c11.6,8.3,19.8,19.4,25,32.7c0.2,0.6,0.4,1.2,0.7,1.8
	c0.8,2.3,2.4,3.4,4.9,3.5c7.6,0,15.2,0.4,22.8,0.9c9,0.6,18,1.5,26.8,3.8c1.9,0.5,3.8,1.1,5.7,1.9c1,0.4,1.9,0.9,2.7,1.6
	c2.6,2.2,2.8,4.8,0.7,7.3c-1.1,1.3-2.5,2.2-4,3c-5,2.8-10.3,4.7-15.8,6.3c-11.8,3.5-23.9,6-36,8.2c-0.6,0.1-1.1,0.2-1.7,0.3
	c-2.1,0.2-3.2,1.5-3.7,3.5c-1,4.6-2.5,9.1-4.5,13.4c-8.4,18.3-22.2,30.8-40.9,38C1138.7,478.7,1129.5,480.2,1118.7,480.4z
	 M1080.3,418.7c0.9,0,1.8,0,2.6,0c10.9-0.5,21.7-1,32.5-1.8c9.9-0.7,19.8-1.5,29.6-2.6c9.1-1,18.1-2.1,27.1-3.3
	c5.5-0.7,10.9-1.6,16.3-2.5c3.4-0.6,3.9-1.3,3.8-4.9c-0.1-2.6-0.5-5.1-1-7.6c-4.3-24.2-18.1-41.2-39.8-52
	c-11.3-5.6-23.4-7.2-35.9-6.1c-10.8,1-21.1,3.9-30.2,9.9c-23.8,15.8-35.3,38-33.3,66.8c0.3,4,1,4.5,5.1,4.6
	C1065,419.3,1072.7,418.9,1080.3,418.7z M1083.8,431.7c-7.4,0.4-14.9,0.6-22.3,0.5c-4.4-0.1-5.1,0.8-3.3,4.8
	c12.2,27.2,42.5,45.9,75.1,40.1c27.2-4.8,45.6-20.7,55.3-46.6c0.8-2,1.5-4.1,1.7-6.2c0.2-1.7-0.4-2.4-2.1-2.4c-1,0-2.1,0.2-3.1,0.3
	c-4.8,0.7-9.6,1.5-14.5,2.1c-13.9,1.8-27.8,3.3-41.7,4.5C1114,430.2,1098.9,431.1,1083.8,431.7z M1199.4,398.2c-0.8,0-1.6,0-2.4,0
	c-1.9,0.1-2.5,0.8-2.6,2.7c0,1,0.1,2.1,0.2,3.1c0.3,2.6,0.9,3.1,3.4,2.7c4.6-0.8,9.2-1.9,13.6-3.5c0.6-0.2,1.2-0.4,1.7-0.8
	c0.9-0.7,0.7-1.8-0.3-2.4c-0.4-0.2-0.9-0.4-1.4-0.4C1207.7,398.8,1203.5,398.4,1199.4,398.2z M1044.6,418.8c1,0,1.9,0,2.9,0
	c1.9-0.1,2.6-0.8,2.6-2.7c0-1.2-0.1-2.4-0.3-3.6c-0.3-2-1.1-2.6-3.2-2.2c-4.6,0.8-9.1,1.8-13.4,3.4c-1.1,0.4-2.9,0.6-2.6,2.3
	c0.2,1.5,1.9,1.5,3.1,1.7C1037.3,418.2,1040.9,418.6,1044.6,418.8z"/>
<path class="st0" d="M596.2,341.5c-0.1,0.4-0.3,1-0.4,1.6c-1.3,4.4-2.6,8.7-4,13.1c-0.8,2.4-0.4,4.3,1.2,6.2c3,3.7,6,7.5,9,11.3
	c0.2,0.3,0.5,0.6,0.8,0.9c0.7,1.1,0.4,1.8-0.9,1.9c-1.9,0.1-3.8,0.1-5.7,0.2c-3.4,0.1-6.7,0.2-10.1,0.1c-2.3,0-3.9,0.9-5.2,2.8
	c-2.5,3.8-5,7.6-7.6,11.4c-0.3,0.4-0.5,0.8-0.8,1.2c-0.4,0.6-0.7,1.4-1.6,1.3c-0.9-0.1-1-0.9-1.2-1.6c-1.5-4.3-3.1-8.6-4.4-12.9
	c-1-3.4-3-5.2-6.4-5.9c-4.3-1-8.5-2.3-12.7-3.5c-0.4-0.1-0.8-0.2-1.1-0.4c-1.1-0.5-1.2-0.9-0.4-1.8c0.4-0.5,1-0.8,1.5-1.2
	c3.6-2.7,7.1-5.5,10.7-8.1c2.3-1.7,3.3-3.7,3.1-6.6c-0.3-4.7-0.4-9.4-0.7-14.1c0-0.2,0-0.3,0-0.5c0-0.7,0-1.3,0.7-1.7
	c0.7-0.4,1.2,0.1,1.7,0.4c3.7,2.6,7.4,5.3,11.2,7.9c0.5,0.3,0.9,0.7,1.4,1c1.9,1.3,4,1.4,6.2,0.6c4.1-1.6,8.2-3.1,12.3-4.7
	c0.7-0.3,1.4-0.5,2.1-0.6C595.9,339.7,596.3,340,596.2,341.5z"/>
<path class="st0" d="M1019.3,614.3c-3.4-0.8-6.8-1.6-10.2-2.5c-1.6-0.4-3.1-0.7-4.6-1.2c-2.6-0.8-4.8-0.2-6.8,1.7
	c-3.4,3.2-6.9,6.2-10.4,9.3c-0.6,0.6-1.3,1.6-2.2,1.3c-1.1-0.3-0.9-1.6-1-2.5c-0.4-4.7-0.8-9.4-1-14.1c-0.1-2.7-1.4-4.4-3.7-5.7
	c-4-2.2-7.9-4.6-11.8-6.8c-0.3-0.2-0.6-0.3-0.8-0.5c-0.5-0.4-1.2-0.6-1.2-1.4c0-0.9,0.8-1.1,1.5-1.4c4.5-1.9,9-3.8,13.5-5.5
	c2.5-1,3.9-2.6,4.4-5.2c0.9-4.5,1.9-9.1,2.9-13.6c0.1-0.4,0.2-0.8,0.3-1.2c0.5-1.8,1.1-1.9,2.4-0.5c3,3.4,6.1,6.8,8.8,10.4
	c2.3,3.1,5.1,4,8.8,3.4c3.9-0.6,7.9-0.9,11.9-1.3c0.3,0,0.6-0.1,1,0c0.7,0,1.5-0.3,2,0.5s-0.2,1.4-0.5,1.9
	c-2.3,3.7-4.6,7.5-6.9,11.2c-0.3,0.4-0.5,0.8-0.8,1.2c-1.5,2.1-1.5,4.3-0.5,6.6c1.8,4.1,3.6,8.2,5.4,12.3c0.3,0.7,0.6,1.3,0.8,2
	C1020.9,614,1020.5,614.5,1019.3,614.3z"/>
<path class="st0" d="M139.6,712.9c0.8,0.2,1.8,0.3,2.8,0.6c4,0.9,8,1.7,11.9,2.6c2.7,0.6,4.8,0,6.8-1.9c3.3-3.3,6.7-6.4,10.1-9.6
	c0.3-0.3,0.6-0.6,0.9-0.8c1.2-0.9,1.9-0.6,2.1,0.9c0.4,2.8,0.7,5.6,0.9,8.3c0.2,2.1,0.4,4.3,0.6,6.4c0.2,2.8,1.5,4.7,4,6
	c4.1,2.1,8.2,4.4,12.2,6.6c0.3,0.2,0.6,0.3,0.8,0.5c1.4,0.9,1.4,1.7-0.1,2.4c-3.2,1.5-6.4,2.9-9.6,4.3c-1.5,0.6-2.9,1.3-4.4,1.9
	c-2.4,0.9-3.6,2.7-4,5.2c-0.8,4.6-1.7,9.3-2.6,13.9c0,0.1,0,0.2-0.1,0.2c-0.2,0.7-0.1,1.8-1,2.1s-1.4-0.6-1.9-1.2
	c-3.2-3.6-6.5-7.1-9.6-10.7c-1.8-2.1-3.7-2.9-6.5-2.4c-4.8,0.8-9.7,1.3-14.5,1.9c-0.6,0.1-1.3,0.3-1.8-0.4s-0.1-1.4,0.3-2
	c2.3-3.9,4.3-7.8,6.8-11.6c2.1-3.1,2-6,0.3-9.2c-1.9-3.6-3.6-7.3-5.3-11c-0.2-0.5-0.5-1-0.7-1.5
	C137.8,713.3,138.1,712.9,139.6,712.9z"/>
<path class="st3" d="M487.1,587.7c-0.3,3-0.5,5.8-0.9,8.6c-0.3,2.6,0.5,4.5,2.5,6c2.2,1.7,4.3,3.6,6.4,5.4c1.5,1.4,1.3,2-0.7,2.5
	c-2.9,0.7-5.7,1.4-8.7,1.9c-2.2,0.4-3.5,1.6-4.3,3.7c-1,2.5-2,5-3,7.6c-0.2,0.6-0.5,1.2-0.9,1.7c-0.4,0.6-0.9,0.6-1.4,0
	c-0.4-0.4-0.7-0.9-1-1.4c-1.3-2.1-2.6-4.2-3.7-6.4c-1.3-2.6-3.2-3.8-6.1-3.8c-2.7,0-5.4-0.3-8.1-0.7c-2-0.3-2.2-0.8-0.9-2.4
	c1.7-2,3.4-4,5.3-5.9c2-2,2.6-4.2,1.8-7c-0.8-2.6-1.3-5.3-2-7.9c-0.2-0.6-0.3-1.3,0.3-1.8c0.6-0.5,1.2-0.1,1.8,0.1
	c2.6,1.1,5.1,2.2,7.7,3.4c2.3,1.1,4.4,0.9,6.5-0.5c2.2-1.5,4.6-2.9,6.9-4.3c0.6-0.3,1.2-0.9,2-0.4
	C487.3,586.6,487,587.3,487.1,587.7z"/>
<path class="st1" d="M369.6,730.7c5,0,10.1,0,15.1,0c0.7,0,1.4-0.1,2.1,0.2c0.5,0.2,0.9,0.5,0.9,1c0,0.6-0.4,1.1-1,1.1
	c-1.4,0.1-2.7,0.2-4.1,0.2c-9.3,0-18.6,0-27.8,0c-0.7,0-1.5,0-2.2,0.1c-1.4,0.2-1.8,1.2-1,2.4c0.4,0.5,0.8,1,1.3,1.4
	c3.6,3.6,7.1,7.1,10.7,10.7c0.6,0.6,1.2,1.3,1.7,2c0.4,0.5,0.5,1,0,1.5c-0.4,0.5-1,0.5-1.5,0.3c-0.7-0.3-1.2-0.8-1.7-1.4
	c-3.8-3.8-7.6-7.6-11.4-11.4c-0.4-0.4-0.8-0.8-1.2-1.2c-1.1-0.8-2.2-0.4-2.5,0.9c-0.1,0.4,0,0.8,0,1.2c0,10.3,0,20.6,0,30.9
	c0,0.6,0,1.1-0.1,1.7c-0.1,0.7-0.4,1.3-1.1,1.3c-0.8,0-1.1-0.5-1.2-1.2c-0.1-1.1-0.2-2.2-0.2-3.3c0-9.4,0-18.7,0-28.1
	c0-0.9,0-1.8-0.2-2.6c-0.3-1.3-1-1.6-2.1-0.9c-0.5,0.3-0.9,0.7-1.3,1.1c-3.8,3.8-7.6,7.5-11.4,11.3c-0.6,0.6-1.1,1.2-1.8,1.5
	c-0.5,0.2-0.9,0.1-1.3-0.2c-0.4-0.4-0.5-0.9-0.2-1.3c0.3-0.5,0.6-0.9,1-1.3c4-4,8-8.1,12-12.1c0.7-0.7,1.5-1.3,1.1-2.4
	c-0.5-1.1-1.5-0.9-2.5-0.9c-9.7,0-19.4,0-29,0c-1.2,0-2.4-0.1-3.6-0.3c-0.5-0.1-0.9-0.4-1-0.9c-0.1-0.7,0.3-1.1,0.9-1.2
	c0.8-0.2,1.6-0.2,2.4-0.2c9.6,0,19.2,0,28.8,0c0.9,0,1.8,0,2.6-0.1c1.6-0.3,1.9-1.2,1-2.6c-0.4-0.5-0.9-1-1.3-1.4
	c-3.6-3.6-7.2-7.2-10.9-10.9c-0.6-0.6-1.2-1.1-1.5-1.8c-0.2-0.5-0.2-0.9,0.2-1.3c0.4-0.4,0.8-0.4,1.3-0.2c0.8,0.4,1.4,1,2,1.6
	c3.7,3.7,7.4,7.3,11,11c0.3,0.3,0.6,0.7,1,1c1.3,1,2.5,0.5,2.7-1.1c0.1-0.6,0-1.3,0-1.9c0-9.4,0-18.9,0-28.3c0-1.1,0.1-2.2,0.2-3.3
	c0.1-0.6,0.4-1,1.1-1c0.6,0,1.1,0.4,1.2,1c0.1,0.8,0.1,1.6,0.1,2.4c0,9.4,0,18.9,0,28.3c0,1.1,0,2.3,0.2,3.3
	c0.2,1.2,1.2,1.6,2.2,0.9c0.8-0.5,1.5-1.2,2.1-1.9c3.5-3.5,7-7,10.5-10.5c0.5-0.5,0.9-0.9,1.4-1.3c0.5-0.4,1.2-0.5,1.7,0
	c0.6,0.6,0.4,1.2,0,1.7c-0.3,0.4-0.7,0.9-1.1,1.2c-3.9,4-7.9,7.9-11.8,11.9c-0.7,0.7-1.2,1.3-0.9,2.3c0.4,1,1.3,1,2.2,1
	C358.9,730.7,364.3,730.7,369.6,730.7z"/>
<path class="st1" d="M432.5,448.6c0,4.9,0,9.8,0,14.6c0,0.7,0,1.4-0.1,2.2c-0.1,0.7-0.4,1.3-1.2,1.3c-0.7,0-1.1-0.6-1.2-1.3
	c-0.1-0.5-0.1-1-0.1-1.4c0-10.3,0-20.6-0.1-30.9c0-0.2,0-0.3,0-0.5c0-0.9-0.1-1.8-1.1-2.2c-1-0.3-1.7,0.2-2.3,0.9
	c-1.4,1.7-3.1,3-4.6,4.6c-2.4,2.4-4.7,4.8-7.1,7.1c-0.5,0.5-1.1,1-1.6,1.4c-0.4,0.3-0.9,0.3-1.3-0.1c-0.5-0.4-0.6-0.9-0.3-1.5
	c0.3-0.6,0.8-1,1.2-1.5c3.9-4,7.9-7.9,11.9-11.9c0.7-0.6,1.3-1.3,1-2.3c-0.4-1.1-1.4-1.1-2.4-1.1c-10,0-20,0-30,0
	c-0.9,0-1.8,0-2.6-0.1c-0.6-0.1-1.1-0.5-1.1-1.1s0.4-1,1-1.2c0.6-0.1,1.3-0.2,1.9-0.2c9.9,0,19.8-0.1,29.7-0.1c0.7,0,1.4,0,2.2-0.1
	c1.3-0.2,1.8-1.2,1.1-2.3c-0.3-0.5-0.8-1-1.3-1.4c-3.4-3.5-6.9-6.9-10.3-10.4c-0.7-0.7-1.4-1.5-2.1-2.3c-0.4-0.5-0.4-1,0.1-1.5
	s1-0.6,1.5-0.1c0.8,0.7,1.6,1.3,2.3,2c3.5,3.5,7,7,10.5,10.5c0.3,0.3,0.6,0.7,1,1c1.2,0.9,2.4,0.4,2.6-1.1c0.1-0.6,0-1.3,0-1.9
	c0-9.8,0.1-19.7,0.1-29.5c0-0.6,0-1.3,0.1-1.9c0.1-0.7,0.4-1.3,1.2-1.3c0.8,0,1.1,0.5,1.2,1.2c0,0.8,0.1,1.6,0.1,2.4
	c0,9.5,0,19,0,28.5c0,0.9,0,1.8,0.2,2.6c0.3,1.4,1.1,1.7,2.3,0.9c0.8-0.5,1.5-1.2,2.2-1.9c3.5-3.5,7-7,10.5-10.5
	c0.5-0.5,1-1.1,1.7-1.4c0.6-0.3,1.1-0.1,1.5,0.4c0.3,0.4,0.3,0.9,0,1.3c-0.4,0.5-0.8,1-1.2,1.5c-3.9,4-7.9,7.9-11.8,11.9
	c-0.7,0.7-1.3,1.3-0.9,2.3s1.3,1,2.2,1c8.6,0,17.1-0.1,25.7-0.1c2.1,0,4.2,0.1,6.2,0.2c0.5,0,1,0.1,1.4,0.2c0.5,0.1,0.8,0.5,0.8,1.1
	c0,0.5-0.3,0.9-0.8,1c-1.1,0.3-2.2,0.2-3.3,0.2c-9.5,0-19,0-28.5,0c-0.6,0-1.1,0-1.7,0c-0.8,0-1.7,0.1-2,1s0.2,1.5,0.8,2.1
	c0.4,0.4,0.8,0.8,1.2,1.2c3.3,3.3,6.7,6.7,10,10c0.7,0.7,1.4,1.5,2.1,2.3c0.4,0.5,0.5,1,0,1.5c-0.5,0.6-1.1,0.5-1.7,0.1
	c-0.7-0.5-1.4-1.1-2-1.7c-3.7-3.7-7.3-7.4-11-11.1c-0.3-0.3-0.5-0.6-0.8-0.8c-1.3-0.9-2.6-0.4-2.8,1.2c-0.1,0.5,0,1.1,0,1.7
	C432.5,438.5,432.5,443.5,432.5,448.6z"/>
<path class="st1" d="M1110.6,640.8c0-3.4,0-6.7,0-10.1c0-0.5,0-1,0-1.4c0-0.9-0.2-1.6-1.1-1.9c-0.8-0.3-1.4,0.1-1.9,0.6
	c-0.5,0.4-0.9,0.9-1.4,1.4c-2.1,2.1-4.3,4.3-6.5,6.4c-0.5,0.5-1.1,0.9-1.7,1.3c-0.4,0.3-0.9,0.1-1.3-0.2c-0.4-0.4-0.5-0.9-0.1-1.3
	c0.5-0.6,1-1.3,1.5-1.8c2.2-2.3,4.5-4.5,6.8-6.8c0.8-0.8,1.9-1.6,1.3-2.8c-0.5-1.1-1.8-0.9-2.8-0.9c-6.6,0-13.1,0-19.7,0
	c-1,0-2.1-0.1-3.1-0.3c-0.6-0.1-1.1-0.4-1.1-1.1c-0.1-0.8,0.6-1.1,1.2-1.3c0.7-0.1,1.4-0.1,2.1-0.1c6.6,0,13.1,0,19.7,0
	c0.6,0,1.1,0,1.7,0c0.8,0,1.7,0,2-0.9c0.4-1-0.1-1.7-0.8-2.3c-2.4-2.4-4.8-4.7-7.1-7.1c-0.6-0.6-1.1-1.2-1.5-1.8
	c-0.3-0.5-0.5-1,0-1.5c0.6-0.6,1.2-0.5,1.7-0.1c0.6,0.4,1.1,0.9,1.6,1.4c2.2,2.2,4.4,4.4,6.6,6.6c0.8,0.8,1.5,2.1,2.7,1.6
	c1.5-0.5,1.1-2.1,1.1-3.4c0-6.8,0.1-13.6,0.1-20.4c0-0.7,0-1.5,0.2-2.1c0.1-0.6,0.6-1,1.2-0.9c0.5,0.1,0.9,0.4,0.9,0.9
	c0.1,0.7,0.1,1.4,0.1,2.1c0,6.6,0,13.1,0,19.7c0,1,0,1.9,0.2,2.9c0.4,1.3,1,1.6,2.1,0.9c0.6-0.4,1.1-0.9,1.6-1.4
	c2.2-2.2,4.4-4.4,6.6-6.6c0.5-0.5,0.9-0.9,1.4-1.3c0.6-0.4,1.3-0.7,1.9,0c0.5,0.6,0.3,1.2-0.2,1.7c-0.4,0.4-0.8,0.8-1.2,1.2
	c-2.3,2.3-4.7,4.6-6.9,7c-0.8,0.8-1.9,1.6-1.4,2.8c0.5,1.3,1.9,0.9,3,0.9c6.9,0,13.8,0,20.6,0c0.9,0,1.8,0,2.6,0.3
	c0.5,0.2,0.8,0.5,0.8,1.1c0,0.5-0.4,0.9-0.9,1c-1.1,0.3-2.2,0.4-3.3,0.4c-6.3,0-12.6,0-19,0c-0.6,0-1.1,0-1.7,0
	c-0.9,0.1-1.9-0.1-2.3,0.9c-0.3,1,0.4,1.7,1,2.3c2.4,2.4,4.8,4.7,7.1,7.1c0.6,0.6,1.1,1.2,1.5,1.8c0.4,0.5,0.4,1-0.1,1.5
	s-1,0.4-1.5,0.1c-0.6-0.4-1.2-0.9-1.7-1.4c-2.3-2.2-4.5-4.5-6.8-6.8c-0.4-0.4-0.8-0.8-1.2-1.2c-1.1-0.8-2.2-0.4-2.6,0.9
	c-0.2,0.7-0.1,1.4-0.1,2.1c0,6.9,0,13.8,0,20.6c0,0.7-0.1,1.4-0.2,2.1c-0.1,0.5-0.5,0.8-1,0.8s-0.9-0.4-1-0.8
	c-0.1-0.6-0.2-1.3-0.2-1.9C1110.7,648,1110.7,644.4,1110.6,640.8C1110.7,640.8,1110.6,640.8,1110.6,640.8z"/>
<path class="st0" d="M1008.3,247.6c-0.1,1.2-0.2,2.4-0.3,3.6c-0.2,1.8,0.5,3.3,1.9,4.4c1,0.9,2.1,1.7,3,2.7c0.8,0.9,0.7,1.3-0.4,1.7
	c-0.9,0.3-1.8,0.7-2.8,0.8c-2.9,0.3-4.6,1.9-5.5,4.6c-0.2,0.6-0.4,1.2-0.7,1.8s-0.4,1.5-1.3,1.6c-0.9,0.1-1.1-0.7-1.5-1.3
	c-0.5-0.7-1-1.5-1.4-2.3c-1-2.2-2.7-3.2-5.1-3.2c-1,0-1.9-0.1-2.9-0.2c-0.7,0-1.3-0.1-1.6-0.8c-0.2-0.6,0.2-1.1,0.6-1.5
	c0.7-0.8,1.4-1.7,2.2-2.5c1.5-1.5,1.8-3.3,1.3-5.3c-0.3-1.2-0.6-2.5-0.8-3.7c-0.1-0.9,0.4-1.4,1.3-1.1c1.1,0.4,2.3,0.8,3.3,1.3
	c2.1,1.1,4.1,1,6.1-0.5c0.8-0.6,1.6-1.1,2.4-1.5C1007.8,245.4,1008.4,245.8,1008.3,247.6z"/>
<path class="st1" d="M449.8,799.6c-1.2,4,0.3,6.8,3.6,9c0.7,0.4,1.7,1,1.4,2c-0.3,1-1.5,0.8-2.2,1.1c-0.5,0.2-1.1,0.2-1.7,0.3
	c-2.6,0.4-4.4,1.8-5.2,4.3c-0.3,1-0.7,1.9-1.2,2.8c-0.5,1-1.2,1-1.8,0.1c-0.7-1-1.4-2.1-2-3.3c-1-1.9-2.4-2.9-4.6-3
	c-1.1,0-2.2-0.1-3.3-0.3c-1.6-0.2-1.9-0.9-0.8-2.2c0.7-0.9,1.4-1.7,2.2-2.5c1.4-1.4,1.9-3.1,1.3-5c-0.3-1-0.5-2-0.7-3
	c-0.4-2.1,0.1-2.5,2.1-1.8c0.7,0.3,1.4,0.5,2,0.8c2.5,1.4,4.9,1.2,7.1-0.6c0.6-0.5,1.4-0.8,2.1-1.2c1.3-0.6,1.7-0.3,1.8,1.1
	C449.9,798.8,449.9,799.2,449.8,799.6z"/>
<path class="st0" d="M306.5,580.5c0,0.5-0.2,0.8-0.6,1c-0.6,0.3-1.2,0.4-1.8,0.5c-5.3,0.7-8.9,3.8-10.8,8.7c-1.5,3.8-2,7.7-2.2,11.7
	c0,0.7-0.1,1.4-0.2,2.1c-0.1,0.7-0.2,1.3-1,1.3s-0.9-0.7-1.1-1.3c-0.3-0.8-0.2-1.6-0.2-2.4c-0.1-3.3-0.6-6.5-1.5-9.7
	c-1.7-5.8-5.3-9.6-11.4-10.6c-0.2,0-0.5-0.1-0.7-0.1c-0.6-0.2-1.3-0.3-1.4-1.1c-0.1-0.9,0.7-1.1,1.4-1.3c0.5-0.1,0.9-0.2,1.4-0.3
	c4.7-0.9,7.9-3.6,9.8-7.9c1.6-3.7,2.2-7.7,2.4-11.7c0-1.1,0.1-2.2,0.4-3.3c0.1-0.5,0.5-0.8,1-0.8s0.8,0.4,0.9,0.9
	c0.2,1.8,0.3,3.7,0.4,5.5c0.3,3,0.8,5.9,1.9,8.6c1.9,4.9,5.4,8,10.8,8.8c0.6,0.1,1.3,0.3,1.9,0.5
	C306.2,579.7,306.4,580.1,306.5,580.5z M297.6,580.4c0-0.7-0.4-1.2-0.9-1.6c-2.2-1.8-4-3.9-5.1-6.5c-0.8-1.8-2.4-2.2-3.4,0
	c-1.1,2.5-3,4.5-5,6.4c-1.8,1.6-1.8,2.1-0.1,3.6c2.2,1.9,4,4.1,5.3,6.7c0.8,1.6,2.1,1.6,2.8,0.1c1.4-2.8,3.3-5.1,5.6-7.1
	C297.3,581.7,297.7,581.1,297.6,580.4z"/>
<path class="st3" d="M904.3,451.1c0.8,0.1,1,0.7,1,1.4c0.1,1.8,0.2,3.5,0.4,5.3c0.3,3,0.8,5.9,2,8.6c2,4.8,5.4,7.8,10.6,8.6
	c1,0.1,2.5,0,2.5,1.3c0.1,1.5-1.5,1.3-2.5,1.5c-5.3,0.8-8.8,3.9-10.7,8.9c-1.4,3.6-1.9,7.4-2.1,11.3c-0.1,1-0.1,1.9-0.2,2.9
	c-0.1,0.5-0.4,0.9-0.9,0.9c-0.6,0-0.9-0.4-1-0.8c-0.2-1-0.3-2.1-0.4-3.1c-0.1-3.4-0.6-6.7-1.6-9.9c-1.8-5.5-5.3-9.2-11.3-10.1
	c-0.2,0-0.5-0.1-0.7-0.1c-0.6-0.2-1.3-0.4-1.4-1.1c-0.1-0.9,0.7-1.2,1.4-1.4c0.5-0.1,0.9-0.2,1.4-0.3c4.7-0.9,7.9-3.6,9.8-7.9
	c1.7-3.9,2.3-8,2.4-12.1c0-1,0-1.9,0.4-2.8C903.5,451.5,903.8,451.1,904.3,451.1z M912.1,476.4c0-0.6-0.3-1.1-0.7-1.5
	c-2.4-1.9-4.2-4.3-5.6-7.1c-0.9-1.7-2-1.7-3,0c-1.4,2.6-3.3,4.9-5.5,6.9c-1.5,1.3-1.4,1.9,0.1,3.3c2.2,1.9,4,4.1,5.3,6.7
	c0.9,1.7,2.1,1.8,2.9,0.1c1.4-2.7,3.2-4.9,5.5-6.9C911.6,477.6,912.1,477.1,912.1,476.4z"/>
<path class="st1" d="M944.6,726.7c-0.1,0.6-0.6,0.9-1.1,1c-0.8,0.2-1.6,0.3-2.4,0.4c-4.3,0.9-7.3,3.4-9.2,7.4
	c-1.9,4.1-2.5,8.4-2.6,12.8c0,0.9-0.1,1.8-0.2,2.6c-0.1,0.5-0.4,0.9-0.9,0.9c-0.6,0-0.8-0.4-1.1-0.8c-0.3-0.6-0.3-1.2-0.3-1.9
	c-0.2-3.2-0.4-6.4-1.2-9.5c-1.7-6.6-5.4-11-12.4-11.9c-0.7-0.1-1.5-0.3-1.6-1.2s0.6-1.2,1.4-1.3c0.5-0.1,0.9-0.2,1.4-0.3
	c4.8-0.8,8.1-3.7,10-8.1c1.8-4.1,2.2-8.5,2.4-12.9c0-0.7,0-1.4,0.3-2.1c0.2-0.4,0.5-0.7,0.9-0.7c0.6,0,0.9,0.3,1,0.8
	c0.1,0.8,0.2,1.6,0.2,2.4c0.1,3.9,0.6,7.6,1.9,11.3c1.9,5.1,5.3,8.5,10.8,9.3c0.6,0.1,1.3,0.2,1.9,0.4
	C944.3,725.7,944.6,726.1,944.6,726.7z M935.9,726.5c-0.1-0.8-0.5-1.3-1.1-1.7c-2.3-1.6-3.8-3.8-5.1-6.3c-0.2-0.4-0.5-0.9-0.8-1.2
	c-0.6-0.6-1.3-0.7-1.9,0c-0.4,0.4-0.6,0.9-0.9,1.4c-1.3,2.3-2.9,4.4-5,6.1c-1.6,1.4-1.7,2.1-0.1,3.5c2.1,1.9,3.9,4,5.3,6.5
	c1.1,2,2.2,2,3.2,0.1c1.4-2.5,3.1-4.9,5.4-6.6C935.5,727.8,935.9,727.2,935.9,726.5z"/>
<path class="st1" d="M996,512.2c0,3.3-2.4,5.8-5.6,5.9c-3.4,0.1-6-2.4-6.1-5.8c0-3.3,2.5-5.9,5.9-5.9
	C993.5,506.5,995.9,508.9,996,512.2z"/>
<path class="st0" d="M166.1,549.6c0,3.2-2.6,5.8-5.7,5.8c-3.2,0.1-5.9-2.7-5.9-5.9c0-3.3,2.6-5.9,5.9-5.9S166.2,546.2,166.1,549.6z"
	/>
<path class="st1" d="M617.5,214.1c0,3.4-2.7,6-6,5.9c-3.2-0.1-5.7-2.6-5.7-5.9c0-3.4,2.6-5.9,6-5.8
	C615.1,208.3,617.5,210.8,617.5,214.1z"/>
<path class="st1" d="M1215.3,599.6c0,3.3-2.5,5.8-5.7,5.9c-3.4,0.1-6-2.5-6-5.8c0-3.4,2.6-5.9,6-5.8
	C1212.9,593.9,1215.3,596.3,1215.3,599.6z"/>
<path class="st1" d="M295.6,336.5c0,3.2-2.6,5.8-5.8,5.8c-3.2,0-6-2.7-5.9-5.9c0-3.3,2.7-5.9,5.9-5.9
	C293.2,330.5,295.7,333.1,295.6,336.5z"/>
<path class="st3" d="M236.3,460.4c-1.2,0-2.4-1.3-2.4-2.6c0-1.3,1.2-2.4,2.5-2.3s2.5,1.3,2.5,2.5
	C238.8,459.1,237.5,460.4,236.3,460.4z"/>
<path class="st1" d="M272.5,865.5c1.4,0,2.5,1,2.5,2.3s-1.1,2.5-2.4,2.5s-2.5-1.1-2.5-2.4C270.1,866.6,271.1,865.5,272.5,865.5z"/>
<path class="st1" d="M1291.6,500.2c1.4,0,2.4,1,2.4,2.4s-1,2.5-2.4,2.5c-1.3,0-2.4-1.1-2.4-2.4
	C1289.2,501.3,1290.2,500.2,1291.6,500.2z"/>
<path class="st0" d="M904.3,340.4c1.4,0,2.5,1.1,2.5,2.4s-1.1,2.4-2.4,2.5c-1.3,0-2.4-1.1-2.4-2.4
	C901.8,341.4,902.8,340.4,904.3,340.4z"/>
<path class="st1" d="M140.2,565c0,1.3-1.3,2.5-2.5,2.4c-1.3-0.1-2.4-1.3-2.4-2.6c0-1.4,1.1-2.4,2.5-2.3
	C139.1,562.6,140.2,563.7,140.2,565z"/>
<path class="st1" d="M389,528.7c1.3,0,2.5,1.2,2.5,2.4c0,1.3-1.2,2.4-2.5,2.4c-1.4,0-2.5-1.1-2.5-2.4
	C386.5,529.9,387.7,528.7,389,528.7z"/>
<path class="st1" d="M547.7,489.1c-0.1,1.3-1.3,2.3-2.6,2.2c-1.4-0.1-2.4-1.2-2.3-2.5c0.1-1.3,1.3-2.4,2.6-2.3
	C546.7,486.6,547.8,487.8,547.7,489.1z"/>
<path class="st1" d="M1049.8,536.9c0,1.4-1.1,2.4-2.4,2.3c-1.4,0-2.4-1.1-2.3-2.5c0-1.3,1.2-2.4,2.5-2.3
	C1048.9,534.4,1049.8,535.5,1049.8,536.9z"/>
<path class="st0" d="M252,828.3c-0.1,1.3-1.2,2.4-2.5,2.3c-1.3,0-2.4-1.2-2.3-2.5c0-1.3,1.2-2.4,2.5-2.3
	C251,825.8,252,827,252,828.3z"/>
<path class="st1" d="M673.9,625.3c-1-11,8.7-25.6,25.3-25.5c15.1,0.2,25.6,11.6,25.4,25.7c-0.2,15.8-13.6,25.7-26.5,25.1
	C683.9,650.1,673.2,637.6,673.9,625.3z"/>
<path class="st1" d="M699.2,489.2c12.6-0.4,23.8,10.1,23.8,23.6c0,11.5-8.6,23.8-23.7,23.8c-14.7,0-23.9-11.8-23.8-24
	C675.5,499.1,687.2,488.6,699.2,489.2z"/>
<g>
</g>
<g>
	<path class="st1" d="M1158.8,983.7c-4.8,0-9.7,0-14.5,0c-2.8,0-3.8-1.2-3.4-4c1.4-9.8-1.4-18.1-9.4-24.3
		c-8.4-6.5-19.1-6.9-28.2-1.5c-0.5,0.3-1,0.6-1.5,0.9c-0.7,0.5-1.5,0.8-2.3,0.2c-0.9-0.5-1-1.3-0.9-2.3c0.4-4.6,0.1-9.3-0.8-13.8
		c-1.8-8.8-5.5-16.6-11.4-23.4c-9.3-10.8-21.1-16.7-35.2-17.9c-12.5-1-23.7,2.5-33.9,9.8c-0.2,0.2-0.4,0.3-0.7,0.5
		c-1.9,1.2-3.5,0.4-3.7-1.8s-0.5-4.4-0.8-6.5c-2.6-15.2-8.7-28.8-18.6-40.6c-8.1-9.8-17.9-17.4-29.4-22.9
		c-9.1-4.4-18.8-6.9-28.8-7.8c-11.8-1.1-23.5,0-34.7,3.8c-11.5,3.8-21.9,9.7-30.9,17.8c-13,11.8-21.7,26.2-26.1,43.2
		c-2,7.7-2.7,15.6-2.4,23.6c0.5,12.7,3.3,24.9,9.2,36.2c3.5,6.8,7.8,13,13,18.6c2.8,3,5.7,6,8.8,8.6c0.6,0.5,1,1.2,0.7,2
		c-0.3,0.9-0.9,1.4-1.9,1.5c-0.3,0-0.6,0-0.8,0c-9.2,0-18.4,0-27.6,0c-0.6,0-1.1,0-1.6-0.2s-0.7-0.6-0.7-1.1s0.3-0.8,0.7-1
		c0.7-0.3,1.5-0.3,2.2-0.3c7.2,0,14.4,0,21.6,0c0.8,0,1.6,0.1,1.9-0.8c0.3-0.9-0.2-1.5-0.8-2c-6.6-6.2-12-13.3-16.4-21.3
		c-5.4-9.9-9-20.4-10.3-31.5c-2-16.6,0.2-32.7,7.2-48c4.5-9.7,10.4-18.5,18-26.1c8.2-8.2,17.6-14.4,28.2-19c8.8-3.8,18.1-6,27.6-6.7
		c14.4-1,28.4,0.9,41.8,6.7c9,3.8,17,9.1,24.3,15.5c8.8,7.7,15.8,16.9,20.9,27.4c3.9,8.2,6.6,16.8,7.9,25.8c0.1,0.7,0.2,1.5,0.5,2.2
		c0.4,1.1,1,1.4,2,0.8c1.4-0.7,2.8-1.6,4.2-2.4c7.2-3.9,14.9-6.1,23-6.5c14.1-0.8,26.6,3.5,37.5,12.5c11.2,9.3,17.4,21.3,19,35.7
		c0.2,1.9,0.2,3.9,0.4,5.8c0.1,1.6,0.8,2,2.3,1.4c2-0.8,3.9-1.8,6.1-2.2c10.1-2.1,19,0.2,26.3,7.7c6,6.1,8.4,13.5,7.7,22
		c-0.2,2.4,0.3,3.1,2.7,3.1c8.7,0,17.4,0,26,0c0.7,0,1.4,0.1,2.1,0.2c0.7,0.1,1,0.5,1,1.1c0,0.5-0.3,1-0.9,1.2
		c-0.5,0.2-0.9,0.2-1.4,0.2C1168.5,983.7,1163.7,983.7,1158.8,983.7z"/>
	<path class="st1" d="M532.8,984c-7.7,0-15.4,0-23,0c-0.5,0-1.2,0.2-1.5-0.5c-0.3-0.8,0.4-1,0.9-1.4c14.5-10.5,23.6-24.5,26.3-42.3
		c1.8-11.6,0.6-23-4.1-33.9c-6-13.7-15.6-24.2-28.7-31.4c-8.1-4.4-16.8-6.6-26-7.1c-17-1-31.9,4.4-44.8,15.4
		c-10.1,8.7-16.6,19.7-19.9,32.6c-0.6,2.2,0.2,3.6,2,4.9c5.4,3.8,9.8,8.7,12.9,14.6c2.8,5.4,4.4,11.2,4.6,17.3
		c0,0.9-0.1,1.7-1.1,1.8s-1.3-0.8-1.4-1.6c-0.3-3.5-1-6.9-2.1-10.3c-2.9-9.1-8.6-15.9-16.6-20.9c-5.9-3.7-12.3-5.6-19.2-5.7
		c-10.3-0.2-19.5,3-27.2,9.9c-8,7.1-12.2,16.1-12.9,26.7c-0.7,10.4,2.5,19.6,9.1,27.6c0.7,0.9,1.8,1.8,1.2,3.2
		c-0.6,1.4-2,1.1-3.3,1.2c-5.2,0.3-10.5,0.1-15.7,0.1c-1,0-2.1-0.1-3.1-0.2c-0.7-0.1-1.1-0.5-1.1-1.2s0.5-1.1,1.2-1.2
		c0.7-0.1,1.5-0.2,2.3-0.2c4.2,0,8.4,0,12.6,0c0.7,0,1.6,0.1,2-0.7c0.5-0.9,0-1.5-0.4-2.2c-4.4-6.2-6.9-13.2-7.5-20.8
		c-0.7-9.1,1.3-17.6,6.2-25.2c6.6-10.3,16.1-16.8,28.2-19.2c7.8-1.5,15.3-0.2,22.7,2.4c0.4,0.1,0.7,0.3,1.1,0.4
		c2,0.7,2.7,0.4,3.2-1.7c0.9-3.4,1.9-6.8,3.4-10.1c6.2-13.7,15.8-24.4,29-31.7c8.7-4.8,18-7.1,27.9-7.7c17.7-1.1,33,4.5,46.4,15.9
		c9.7,8.2,16.4,18.4,19.9,30.6c2.1,7.3,3.1,14.9,2.7,22.5c-0.6,13.4-5.2,25.4-13.3,36.2c-2.4,3.1-5,6-7.8,8.7
		c-0.5,0.5-1,0.9-0.7,1.7s1.1,0.8,1.8,0.8c12.1,0,24.2,0,36.4,0c0.6,0,1.3,0.1,1.9,0.2c0.6,0.1,0.9,0.4,0.9,1.1
		c0,0.6-0.3,1.1-0.9,1.3c-0.4,0.1-0.9,0.1-1.3,0.1C548.2,984,540.5,984,532.8,984z"/>
</g>
</svg>
