<?xml version="1.0" encoding="iso-8859-1"?>
<!-- Generator: Adobe Illustrator 19.0.0, SVG Export Plug-In . SVG Version: 6.00 Build 0)  -->
<svg version="1.1" id="Capa_1" xmlns="http://www.w3.org/2000/svg" xmlns:xlink="http://www.w3.org/1999/xlink" x="0px" y="0px"
	 viewBox="0 0 512 512" style="enable-background:new 0 0 512 512;" xml:space="preserve">
<g>
	<g>
		<path d="M370.799,0H141.193c-16.683,0-30.259,13.577-30.259,30.268v451.465c0,16.691,13.576,30.268,30.259,30.268h229.606
			c16.691,0,30.268-13.576,30.268-30.268V30.268C401.067,13.577,387.49,0,370.799,0z M384,481.732
			c0,7.279-5.922,13.201-13.201,13.201H141.193c-7.27,0-13.193-5.922-13.193-13.201V30.268c0-7.279,5.922-13.201,13.193-13.201
			h229.606c7.279,0,13.201,5.922,13.201,13.201V481.732z"/>
	</g>
</g>
<g>
	<g>
		<path d="M370.799,0H141.193c-16.683,0-30.259,13.577-30.259,30.268v55.066h290.133V30.268C401.067,13.577,387.49,0,370.799,0z
			 M384,68.267H128V30.268c0-7.279,5.922-13.201,13.193-13.201h229.606c7.279,0,13.201,5.922,13.201,13.201V68.267z"/>
	</g>
</g>
<g>
	<g>
		<path d="M110.933,426.667v55.066c0,16.691,13.576,30.268,30.259,30.268h229.606c16.691,0,30.268-13.576,30.268-30.268v-55.066
			H110.933z M384,481.732c0,7.279-5.922,13.201-13.201,13.201H141.193c-7.27,0-13.193-5.922-13.193-13.201v-37.999h256V481.732z"/>
	</g>
</g>
<g>
	<g>
		<path d="M256,426.667c-23.526,0-42.667,19.14-42.667,42.667C213.333,492.86,232.474,512,256,512
			c23.526,0,42.667-19.14,42.667-42.667C298.667,445.807,279.526,426.667,256,426.667z M256,494.933
			c-14.114,0-25.6-11.486-25.6-25.6s11.486-25.6,25.6-25.6s25.6,11.486,25.6,25.6S270.114,494.933,256,494.933z"/>
	</g>
</g>
<g>
	<g>
		<path d="M281.6,34.133h-51.2c-4.71,0-8.533,3.823-8.533,8.533c0,4.71,3.823,8.533,8.533,8.533h51.2
			c4.71,0,8.533-3.823,8.533-8.533C290.133,37.956,286.31,34.133,281.6,34.133z"/>
	</g>
</g>
<g>
	<g>
		<path d="M346.214,300.211l-85.333-59.733c-2.927-2.057-6.844-2.057-9.779,0l-85.333,59.733c-3.055,2.133-4.361,5.999-3.243,9.557
			c1.118,3.55,4.412,5.965,8.141,5.965h170.667c3.729,0,7.023-2.415,8.124-5.965C350.583,306.219,349.269,302.345,346.214,300.211z
			 M197.734,298.667L256,257.886l58.257,40.781H197.734z"/>
	</g>
</g>
<g>
	<g>
		<path d="M345.276,197.231c-2.825-1.459-6.229-1.246-8.832,0.58l-73.139,51.2c-2.287,1.596-3.644,4.207-3.644,6.989
			s1.357,5.393,3.644,6.989l73.139,51.2c1.459,1.024,3.166,1.544,4.89,1.544c1.348,0,2.697-0.324,3.942-0.964
			c2.816-1.468,4.591-4.386,4.591-7.569V204.8C349.867,201.617,348.092,198.699,345.276,197.231z M332.8,290.807L283.068,256
			l49.732-34.807V290.807z"/>
	</g>
</g>
<g>
	<g>
		<path d="M248.696,249.011l-73.139-51.2c-2.603-1.826-6.008-2.039-8.832-0.58c-2.816,1.468-4.591,4.386-4.591,7.569v102.4
			c0,3.183,1.775,6.101,4.591,7.569c1.246,0.64,2.594,0.964,3.942,0.964c1.724,0,3.43-0.521,4.89-1.544l73.139-51.2
			c2.287-1.596,3.644-4.207,3.644-6.989C252.339,253.218,250.982,250.607,248.696,249.011z M179.2,290.807v-69.615L228.932,256
			L179.2,290.807z"/>
	</g>
</g>
<g>
	<g>
		<path d="M324.267,110.933H187.733c-4.71,0-8.533,3.823-8.533,8.533v97.28c0,2.782,1.357,5.393,3.652,6.997l56.073,39.253
			c2.927,2.057,6.844,2.057,9.779,0l7.296-5.111l7.305,5.103c1.468,1.033,3.174,1.544,4.89,1.544c1.707,0,3.422-0.512,4.89-1.544
			l56.073-39.253c2.287-1.596,3.644-4.207,3.644-6.989v-97.28C332.8,114.756,328.977,110.933,324.267,110.933z M315.725,212.309
			l-47.539,33.28l-7.296-5.111c-1.468-1.033-3.174-1.545-4.89-1.545s-3.422,0.512-4.898,1.536l-7.296,5.111l-47.539-33.28V128
			h119.458V212.309z"/>
	</g>
</g>
<g>
	<g>
		<path d="M273.067,153.6h-34.133c-4.71,0-8.533,3.823-8.533,8.533c0,4.71,3.823,8.533,8.533,8.533h34.133
			c4.71,0,8.533-3.823,8.533-8.533C281.6,157.423,277.777,153.6,273.067,153.6z"/>
	</g>
</g>
<g>
	<g>
		<path d="M290.133,187.733h-68.267c-4.71,0-8.533,3.823-8.533,8.533s3.823,8.533,8.533,8.533h68.267
			c4.71,0,8.533-3.823,8.533-8.533S294.844,187.733,290.133,187.733z"/>
	</g>
</g>
<g>
	<g>
		<path d="M358.4,349.867H205.056c-4.71,0-8.533,3.823-8.533,8.533s3.823,8.533,8.533,8.533H358.4c4.71,0,8.533-3.823,8.533-8.533
			S363.11,349.867,358.4,349.867z"/>
	</g>
</g>
<g>
	<g>
		<path d="M170.667,349.867H153.6c-4.71,0-8.533,3.823-8.533,8.533s3.823,8.533,8.533,8.533h17.067c4.71,0,8.533-3.823,8.533-8.533
			S175.377,349.867,170.667,349.867z"/>
	</g>
</g>
<g>
	<g>
		<path d="M187.733,384H153.6c-4.71,0-8.533,3.823-8.533,8.533c0,4.71,3.823,8.533,8.533,8.533h34.133
			c4.71,0,8.533-3.823,8.533-8.533C196.267,387.823,192.444,384,187.733,384z"/>
	</g>
</g>
<g>
	<g>
		<path d="M358.4,384h-17.067c-4.71,0-8.533,3.823-8.533,8.533c0,4.71,3.823,8.533,8.533,8.533H358.4
			c4.71,0,8.533-3.823,8.533-8.533C366.933,387.823,363.11,384,358.4,384z"/>
	</g>
</g>
<g>
	<g>
		<path d="M307.2,384h-85.333c-4.71,0-8.533,3.823-8.533,8.533c0,4.71,3.823,8.533,8.533,8.533H307.2
			c4.71,0,8.533-3.823,8.533-8.533C315.733,387.823,311.91,384,307.2,384z"/>
	</g>
</g>
<g>
</g>
<g>
</g>
<g>
</g>
<g>
</g>
<g>
</g>
<g>
</g>
<g>
</g>
<g>
</g>
<g>
</g>
<g>
</g>
<g>
</g>
<g>
</g>
<g>
</g>
<g>
</g>
<g>
</g>
</svg>
