<?xml version="1.0"?>
<svg xmlns="http://www.w3.org/2000/svg" height="512px" viewBox="0 -10 512 511" width="512px" class=""><g><path d="m506.339844 133.542969-123.191406-59.339844c-2.714844-1.308594-5.976563-1.304687-8.6875.007813l-118.460938 57.234374-33.339844-16.109374c1.847656-7.332032 2.800782-14.859376 2.800782-22.496094 0-50.914063-41.425782-92.339844-92.34375-92.339844-50.917969 0-92.339844 41.425781-92.339844 92.339844 0 7.621094.949218 15.128906 2.785156 22.445312l-37.902344 18.257813c-3.460937 1.667969-5.660156 5.171875-5.660156 9.011719v339.546874c0 3.441407 1.769531 6.640626 4.679688 8.46875 1.621093 1.019532 3.46875 1.53125 5.320312 1.53125 1.480469 0 2.964844-.328124 4.339844-.988281l118.808594-57.246093 118.5 57.238281c2.714843 1.3125 5.988281 1.3125 8.703124 0l118.460938-57.238281 20.816406 10.027343c1.398438.675781 2.875.992188 4.332032.992188 3.722656 0 7.292968-2.085938 9.015624-5.660157 2.398438-4.976562.308594-10.953124-4.667968-13.351562l-19.5-9.390625v-100.792969l103.191406 49.941406v100.558594l-15.089844-7.269531c-4.976562-2.398437-10.953125-.308594-13.347656 4.667969-2.398438 4.976562-.308594 10.953125 4.667969 13.351562l29.429687 14.175782c1.375.660156 2.859375.988281 4.339844.988281 1.855469 0 3.699219-.511719 5.320312-1.53125 2.914063-1.832031 4.679688-5.027344 4.679688-8.46875v-339.554688c0-3.839843-2.199219-7.339843-5.660156-9.007812zm-14.339844 149.550781-103.191406-50.460938v-133.5l103.191406 49.703126zm-236-103.8125c5.523438 0 10-4.476562 10-10v-20.453125l41.410156-20.007813v128.074219l-41.410156 19.335938v-30.957031c0-5.523438-4.476562-10-10-10s-10 4.476562-10 10v29.886718l-82.488281-44.578125c10.089843-18.617187 21.515625-39.75 31.390625-58.140625 6.398437-11.875 12.929687-24.035156 19.261718-36.121094l.769532-1.398437c.160156-.285156.320312-.578125.480468-.875l30.585938 14.78125v20.453125c0 5.523438 4.476562 10 10 10zm-122.882812-158.78125c39.890624 0 72.34375 32.453125 72.34375 72.339844 0 8.785156-1.582032 17.390625-4.6875 25.589844-.0625.160156-.117188.320312-.179688.480468-.453125 1.019532-1.828125 3.714844-3.9375 7.738282-.027344.054687-.058594.109374-.085938.160156-.027343.046875-.050781.097656-.078124.144531-1.394532 2.664063-2.808594 5.335937-4.222657 8.011719-4.398437 8.285156-10.230469 19.175781-16.839843 31.460937-.234376.4375-.476563.886719-.710938 1.320313l-4.621094 8.582031c-5.914062 10.992187-24.261718 44.789063-36.980468 68.207031-18.675782-34.363281-40.738282-75.117187-54.464844-100.792968-8.785156-16.449219-11.753906-22.226563-12.714844-24.199219-.132812-.277344-.242188-.507813-.316406-.683594-3.214844-8.328125-4.84375-17.082031-4.84375-26.019531 0-39.886719 32.453125-72.339844 72.339844-72.339844zm-113.117188 128.335938 30.855469-14.863282c.691406 1.324219 1.507812 2.890625 2.484375 4.742188 5.261718 9.992187 15.058594 28.332031 33.511718 62.472656.050782.09375.101563.1875.152344.28125 4.972656 9.203125 9.921875 18.339844 14.511719 26.8125l-81.515625 35.21875zm0 202.867187 103.15625-44.464844v109.242188l-103.15625 49.703125zm123.15625-42.792969 41.402344 22.664063v104.914062l-41.402344-20zm122.84375 157.253906v-100.539062l102.808594-49.910156v100.773437zm117.167969-175.421874c-2.757813-1.332032-5.96875-1.332032-8.726563.003906l-122.808594 59.621094c-3.449218 1.671874-5.671874 5.304687-5.632812 9.132812v106.664062l-41.441406-20.023437v-120.492187c0-3.652344-1.992188-7.015626-5.195313-8.769532l-61.40625-33.613281c-2.53125-1.585937-6.082031-1.546875-8.757812-.410156l-109.199219 47.070312v-44.640625l29.757812-12.855468 61.332032-26.5c6.964844 12.832031 12.023437 22.089843 13.085937 24.035156 3.53125 7.121094 13.980469 7.355468 17.765625.351562 3-5.515625 7.171875-13.191406 12.035156-22.152344l97.269532 52.566407c2.746094 1.488281 6.152344 1.585937 8.984375.265625l61.410156-28.671875c3.519531-1.640625 5.769531-5.175781 5.769531-9.058594v-144.109375l41.398438-20.003906v139.71875c0 3.820312 2.175781 7.308594 5.609375 8.984375l117.582031 57.5v38.058593zm0 0" data-original="#000000" class="active-path" data-old_color="#000000" fill="#FF7214"/><path d="m133.117188 135.371094c23.449218 0 42.527343-19.078125 42.527343-42.527344s-19.078125-42.527344-42.527343-42.527344c-23.449219 0-42.527344 19.078125-42.527344 42.527344s19.078125 42.527344 42.527344 42.527344zm0-65.054688c12.421874 0 22.527343 10.105469 22.527343 22.527344s-10.105469 22.527344-22.527343 22.527344c-12.421876 0-22.527344-10.105469-22.527344-22.527344s10.105468-22.527344 22.527344-22.527344zm0 0" data-original="#000000" class="active-path" data-old_color="#000000" fill="#FF7214"/><path d="m248.929688 213.351562c3 3 7.691406 3.753907 11.492187 1.890626 3.578125-1.753907 5.832031-5.632813 5.554687-9.613282-.292968-4.234375-3.289062-7.898437-7.390624-9.003906-4.132813-1.113281-8.675782.625-10.984376 4.238281-2.503906 3.921875-1.972656 9.1875 1.328126 12.488281zm0 0" data-original="#000000" class="active-path" data-old_color="#000000" fill="#FF7214"/><path d="m435.820312 442.613281c-4.226562.855469-7.46875 4.378907-7.980468 8.65625-.5 4.195313 1.84375 8.390625 5.660156 10.183594 3.777344 1.773437 8.386719.988281 11.339844-1.96875 2.949218-2.957031 3.746094-7.550781 1.972656-11.324219-1.925781-4.09375-6.550781-6.4375-10.992188-5.546875zm0 0" data-original="#000000" class="active-path" data-old_color="#000000" fill="#FF7214"/></g> </svg>
