<?xml version="1.0"?>
<svg xmlns="http://www.w3.org/2000/svg" viewBox="-77 0 512 512.00004" width="512px" height="512px"><g><path d="m266.261719 23.867188h50.089843c11.222657 0 21.429688 4.5625 28.828126 11.964843 7.394531 7.394531 11.988281 17.601563 11.988281 28.828125v23.953125c0 5.554688-4.535157 10.089844-10.117188 10.089844-5.558593 0-10.09375-4.535156-10.09375-10.089844v-23.953125c0-5.671875-2.324219-10.800781-6.066406-14.542968-3.738281-3.742188-8.871094-6.066407-14.539063-6.066407h-50.089843c-1.644531 5.300781-4.59375 10.035157-8.421875 13.890625-6.148438 6.152344-14.625 9.949219-23.980469 9.949219h-110.550781c-9.355469 0-17.832032-3.796875-23.980469-9.949219-3.855469-3.855468-6.773437-8.589844-8.449219-13.890625h-50.058594c-5.667968 0-10.828124 2.324219-14.570312 6.066407-3.742188 3.742187-6.066406 8.871093-6.066406 14.542968v302.203125c0 5.585938-4.507813 10.121094-10.089844 10.121094-5.558594 0-10.09375-4.535156-10.09375-10.121094v-302.203125c0-11.226562 4.59375-21.433594 11.992188-28.828125 7.367187-7.398437 17.574218-11.964843 28.828124-11.964843h50.0625c1.671876-5.300782 4.589844-10.0625 8.445313-13.890626 6.148437-6.148437 14.625-9.976562 23.980469-9.976562h110.550781c9.355469 0 17.832031 3.828125 23.980469 9.976562 3.828125 3.828126 6.777344 8.589844 8.421875 13.890626zm70.695312 105.109374c0-5.582031 4.535157-10.089843 10.09375-10.089843 5.582031 0 10.117188 4.507812 10.117188 10.089843 0 5.585938-4.535157 10.09375-10.117188 10.09375-5.558593 0-10.09375-4.507812-10.09375-10.09375zm0 40.394532c0-5.582032 4.535157-10.089844 10.09375-10.089844 5.582031 0 10.117188 4.507812 10.117188 10.089844v301.835937c0 11.226563-4.59375 21.433594-11.988281 28.832031-7.398438 7.367188-17.605469 11.960938-28.828126 11.960938h-275.53125c-11.253906 0-21.460937-4.59375-28.832031-11.960938-7.394531-7.398437-11.988281-17.605468-11.988281-28.832031v-23.554687c0-5.585938 4.535156-10.09375 10.089844-10.09375 5.585937 0 10.09375 4.507812 10.09375 10.09375v23.554687c0 5.644531 2.324218 10.800781 6.066406 14.542969s8.898438 6.066406 14.570312 6.066406h275.527344c5.671875 0 10.800782-2.324218 14.542969-6.066406s6.066406-8.898438 6.066406-14.542969zm-336.957031 237.886718c0-5.582031 4.535156-10.089843 10.089844-10.089843 5.585937 0 10.09375 4.507812 10.09375 10.089843 0 5.585938-4.507813 10.09375-10.09375 10.09375-5.554688 0-10.089844-4.507812-10.089844-10.09375zm304.214844-10.089843c5.585937 0 10.09375 4.507812 10.09375 10.089843 0 5.585938-4.507813 10.09375-10.09375 10.09375h-251.261719c-5.585937 0-10.09375-4.507812-10.09375-10.09375 0-5.582031 4.507813-10.089843 10.09375-10.089843zm0-55.644531c5.585937 0 10.09375 4.507812 10.09375 10.089843 0 5.558594-4.507813 10.09375-10.09375 10.09375h-251.261719c-5.585937 0-10.09375-4.535156-10.09375-10.09375 0-5.582031 4.507813-10.089843 10.09375-10.089843zm0-55.675782c5.585937 0 10.09375 4.535156 10.09375 10.09375 0 5.585938-4.507813 10.121094-10.09375 10.121094h-251.261719c-5.585937 0-10.09375-4.535156-10.09375-10.121094 0-5.558594 4.507813-10.09375 10.09375-10.09375zm0-55.644531c5.585937 0 10.09375 4.507813 10.09375 10.09375 0 5.582031-4.507813 10.089844-10.09375 10.089844h-102.867188c-5.554687 0-10.089844-4.507813-10.089844-10.089844 0-5.585937 4.535157-10.09375 10.089844-10.09375zm0-55.671875c5.585937 0 10.09375 4.535156 10.09375 10.121094 0 5.554687-4.507813 10.089844-10.09375 10.089844h-102.867188c-5.554687 0-10.089844-4.535157-10.089844-10.089844 0-5.585938 4.535157-10.121094 10.089844-10.121094zm0-55.644531c5.585937 0 10.09375 4.507812 10.09375 10.089843 0 5.585938-4.507813 10.09375-10.09375 10.09375h-102.867188c-5.554687 0-10.089844-4.507812-10.089844-10.09375 0-5.582031 4.535157-10.089843 10.089844-10.089843zm-219.457032 0h47.707032c5.554687 0 10.089844 4.507812 10.089844 10.089843v21.714844h21.6875c5.582031 0 10.117187 4.507813 10.117187 10.09375v47.707032c0 5.582031-4.535156 10.089843-10.117187 10.089843h-21.6875v21.714844c0 5.585937-4.535157 10.09375-10.089844 10.09375h-47.707032c-5.585937 0-10.121093-4.507813-10.121093-10.09375v-21.714844h-21.683594c-5.585937 0-10.09375-4.507812-10.09375-10.089843v-47.710938c0-5.582031 4.507813-10.089844 10.09375-10.089844h21.683594v-21.714844c0-5.582031 4.535156-10.089843 10.121093-10.089843zm37.585938 20.183593h-27.496094v21.710938c0 5.585938-4.535156 10.09375-10.089844 10.09375h-21.714843v27.523438h21.714843c5.554688 0 10.089844 4.507812 10.089844 10.09375v21.710937h27.496094v-21.710937c0-5.585938 4.535156-10.09375 10.121094-10.09375h21.683594v-27.523438h-21.683594c-5.585938 0-10.121094-4.507812-10.121094-10.09375zm-12.785156-105.109374c0 3.65625 1.449218 7.113281 4.027344 9.691406 2.496093 2.496094 5.953124 4.054687 9.722656 4.054687h110.550781c3.769531 0 7.203125-1.558593 9.695313-4.054687 2.496093-2.492188 4.054687-5.921875 4.054687-9.691406 0-3.773438-1.558594-7.230469-4.054687-9.726563-2.492188-2.492187-5.925782-4.050781-9.695313-4.050781h-110.550781c-3.769532 0-7.230469 1.558594-9.722656 4.050781-2.496094 2.496094-4.027344 5.953125-4.027344 9.726563zm0 0" data-original="#000000" class="active-path" data-old_color="#000000" fill="#FF7214"/></g> </svg>
