<?xml version="1.0"?>
<svg xmlns="http://www.w3.org/2000/svg" xmlns:xlink="http://www.w3.org/1999/xlink" version="1.1" id="Capa_1" x="0px" y="0px" viewBox="0 0 512 512" style="enable-background:new 0 0 512 512;" xml:space="preserve" width="512px" height="512px"><g><g>
	<g>
		<path d="M394.409,462.737c-5.522,0-10,4.478-10,10c0,10.621-8.642,19.263-19.264,19.263H146.89    c-10.622,0-19.263-8.642-19.263-19.263V183.682l20.249,33.003v62.758c0,0.049,0.007,0.096,0.007,0.145v39.897    c0,0.023-0.003,0.045-0.003,0.068V458.45c0,5.522,4.477,10,10,10h0.003h60.247h41.257c0.02,0,0.038,0.003,0.058,0.003h53.322    c0.02,0,0.038-0.003,0.058-0.003h41.328c5.522,0,10-4.478,10-10V144.83c0.001-0.046,0.007-0.09,0.007-0.135V89.299    c0-0.046-0.006-0.09-0.007-0.135V54.65c0-5.522-4.478-10-10-10h-41.328c-0.02,0-0.038-0.003-0.058-0.003h-53.322    c-0.02,0-0.038,0.003-0.058,0.003H157.883c-5.523,0-10,4.478-10,10v17.427c-7.443,3.114-14.297,7.629-20.256,13.392V39.263    c0-10.621,8.642-19.263,19.263-19.263h218.255c10.622,0,19.264,8.642,19.264,19.263v353.555c0,5.522,4.478,10,10,10    s10-4.478,10-10V39.263C404.409,17.613,386.796,0,365.146,0H146.89c-21.65,0-39.263,17.613-39.263,39.263v91.903    c-0.011,0.496-0.036,0.989-0.036,1.486c0,0.649,0.017,1.295,0.036,1.942v338.143c0,21.649,17.613,39.263,39.263,39.263h218.255    c21.65,0,39.264-17.613,39.264-39.263C404.409,467.215,399.932,462.737,394.409,462.737z M269.445,215.51V64.65h33.322v24.648    c0,5.522,4.478,10,10,10h31.386v35.396h-31.386c-5.522,0-10,4.478-10,10V448.45h-33.322V279.442c0-5.522-4.478-10-10-10h-91.563    v-22.107c4.803,3.032,11.049,1.319,13.978-3.41c1.671-2.697,3.318-5.408,4.977-8.112c0.594-0.968,1.188-1.936,1.781-2.904    l4.542-7.399h66.284C264.968,225.51,269.445,221.032,269.445,215.51z M167.883,289.442h81.563V448.45H228.13v-68.648    c0-35.339-26.234-64.654-60.247-69.526V289.442z M167.883,448.45V330.552c22.932,4.651,40.247,24.966,40.247,49.25v68.648H167.883    z M322.768,448.45V154.694h21.386V448.45H322.768z M344.153,79.299h-21.386V64.65h21.386V79.299z M167.883,67.235V64.65h81.563    V205.51H205.43l22.096-36.011c3.171-4.932,5.915-10.026,7.799-15.599c1.926-5.698,3.101-11.624,3.429-17.633    c0.196-3.6,0.088-7.224-0.303-10.807c-1.605-14.81-8.139-28.531-18.824-39.216c-9.986-9.986-22.625-16.35-36.326-18.45    C178.208,67.021,173.019,66.819,167.883,67.235z M140.955,100.387c5.647-5.647,12.518-9.619,20.011-11.695    c6.315-1.751,12.991-2.116,19.464-1.098c19.469,3.103,34.873,18.56,37.886,38.059c0.925,6.024,0.645,12.23-0.842,18.141    c-0.703,2.794-1.671,5.521-2.89,8.132c-1.23,2.634-2.906,4.933-4.318,7.45l-37.042,60.38l-37.058-60.399    c-0.151-0.268-0.314-0.53-0.491-0.784c-4.947-7.149-7.712-15.454-8.049-24.119v-3.285    C127.997,119.537,132.688,108.654,140.955,100.387z" data-original="#000000" class="active-path" data-old_color="#000000" fill="#FF7214"/>
		<path d="M403.64,428.45c-1.558-3.742-5.291-6.2-9.344-6.169c-4.078,0.031-7.807,2.664-9.245,6.471    c-1.533,4.058-0.182,8.826,3.273,11.458c3.261,2.484,7.804,2.719,11.306,0.589C403.771,438.281,405.505,432.925,403.64,428.45z" data-original="#000000" class="active-path" data-old_color="#000000" fill="#FF7214"/>
		<path d="M173.221,158.95c15.019,0,27.238-12.219,27.238-27.237c0-15.02-12.219-27.238-27.238-27.238    s-27.238,12.219-27.238,27.238C145.983,146.731,158.202,158.95,173.221,158.95z M173.221,124.475c3.991,0,7.238,3.247,7.238,7.238    c0,3.99-3.247,7.237-7.238,7.237c-3.991,0-7.238-3.247-7.238-7.237C165.983,127.722,169.23,124.475,173.221,124.475z" data-original="#000000" class="active-path" data-old_color="#000000" fill="#FF7214"/>
	</g>
</g></g> </svg>
