<?xml version="1.0"?>
<svg xmlns="http://www.w3.org/2000/svg" xmlns:xlink="http://www.w3.org/1999/xlink" version="1.1" id="Capa_1" x="0px" y="0px" viewBox="0 0 512 512" style="enable-background:new 0 0 512 512;" xml:space="preserve" width="512px" height="512px"><g><g>
	<g>
		<path d="M394.51,436h-0.01c-5.523,0-9.995,4.478-9.995,10c0,5.522,4.482,10,10.005,10s10-4.478,10-10    C404.51,440.478,400.033,436,394.51,436z" data-original="#000000" class="active-path" data-old_color="#000000" fill="#FF7214"/>
	</g>
</g><g>
	<g>
		<path d="M502,436h-12.003V193.509c0-26.188-21.306-47.495-47.495-47.495H405c-5.523,0-10,4.478-10,10c0,5.522,4.477,10,10,10    h37.502c15.161,0,27.495,12.334,27.495,27.495V436h-27.499c-5.523,0-10,4.478-10,10c0,5.522,4.477,10,10,10H492v8.254    C492,479.553,479.553,492,464.253,492H47.747C32.447,492,20,479.553,20,464.254V456h329.735c5.523,0,10-4.478,10-10    c0-5.522-4.477-10-10-10H41.997V193.509c0-15.161,12.334-27.495,27.494-27.495H112.5c5.523,0,10-4.478,10-10    c0-5.522-4.477-10-10-10H69.491c-26.188,0-47.494,21.307-47.494,47.495V436H10c-5.523,0-10,4.478-10,10v18.254    C0,490.581,21.419,512,47.747,512h416.507C490.581,512,512,490.581,512,464.254V446C512,440.478,507.523,436,502,436z" data-original="#000000" class="active-path" data-old_color="#000000" fill="#FF7214"/>
	</g>
</g><g>
	<g>
		<path d="M278.334,464h-44.167c-5.523,0-10,4.478-10,10c0,5.522,4.477,10,10,10h44.167c5.523,0,10-4.478,10-10    C288.334,468.478,283.857,464,278.334,464z" data-original="#000000" class="active-path" data-old_color="#000000" fill="#FF7214"/>
	</g>
</g><g>
	<g>
		<path d="M256,210.039c-56.794,0-103,46.205-103,102.999c0,56.794,46.206,102.999,103,102.999s103-46.205,103-102.999    C359,256.244,312.794,210.039,256,210.039z M173,313.038c0-6.538,0.784-12.894,2.22-19h22.218v38H175.22    C173.784,325.932,173,319.576,173,313.038z M182.761,352.038h14.677v5.414c0,5.787,0.857,11.375,2.427,16.658    C192.997,367.792,187.197,360.334,182.761,352.038z M197.439,268.624v5.414h-14.677c4.435-8.296,10.235-15.754,17.104-22.072    C198.295,257.249,197.439,262.837,197.439,268.624z M246,394.691c-16.429-4.417-28.562-19.434-28.562-37.239v-5.414H246V394.691z     M246,332.038h-28.562v-38H246V332.038z M246,274.038h-28.562v-5.414c0-17.804,12.133-32.822,28.562-37.239V274.038z     M329.239,274.038h-14.677v-5.414c0-5.787-0.857-11.375-2.427-16.658C319.003,258.284,324.803,265.742,329.239,274.038z     M294.562,357.452c0,17.805-12.133,32.822-28.562,37.239v-42.653h28.562V357.452z M294.562,332.038H266v-38h28.562V332.038z     M294.562,274.038H266v-42.653c16.429,4.417,28.562,19.434,28.562,37.239V274.038z M312.134,374.11    c1.571-5.283,2.427-10.871,2.427-16.658v-5.414h14.677C324.803,360.334,319.003,367.792,312.134,374.11z M314.562,332.038v-38    h22.218c1.436,6.107,2.22,12.462,2.22,19c0,6.538-0.784,12.894-2.22,19H314.562z" data-original="#000000" class="active-path" data-old_color="#000000" fill="#FF7214"/>
	</g>
</g><g>
	<g>
		<path d="M256,126.987c-5.523,0-10,4.478-10,10V169c0,5.522,4.477,10,10,10s10-4.478,10-10v-32.013    C266,131.465,261.523,126.987,256,126.987z" data-original="#000000" class="active-path" data-old_color="#000000" fill="#FF7214"/>
	</g>
</g><g>
	<g>
		<path d="M151.16,122.84c-1.86-1.87-4.43-2.93-7.07-2.93c-2.63,0-5.21,1.06-7.07,2.93c-1.86,1.86-2.93,4.43-2.93,7.07    c0,2.63,1.07,5.199,2.93,7.069c1.86,1.86,4.44,2.931,7.07,2.931s5.21-1.07,7.07-2.931c1.87-1.87,2.93-4.439,2.93-7.069    C154.09,127.269,153.03,124.7,151.16,122.84z" data-original="#000000" class="active-path" data-old_color="#000000" fill="#FF7214"/>
	</g>
</g><g>
	<g>
		<path d="M202.164,173.835l-26.748-26.747c-3.905-3.904-10.236-3.904-14.142,0c-3.905,3.905-3.905,10.237,0,14.143l26.748,26.747    c1.953,1.952,4.512,2.929,7.071,2.929s5.119-0.977,7.071-2.929C206.069,184.073,206.069,177.741,202.164,173.835z" data-original="#000000" class="active-path" data-old_color="#000000" fill="#FF7214"/>
	</g>
</g><g>
	<g>
		<path d="M361.977,135.834c-3.905-3.904-10.237-3.904-14.142,0l-39.333,39.334c-3.905,3.905-3.905,10.237,0,14.143    c1.953,1.953,4.512,2.929,7.071,2.929c2.559,0,5.119-0.977,7.071-2.929l39.333-39.334    C365.882,146.072,365.882,139.74,361.977,135.834z" data-original="#000000" class="active-path" data-old_color="#000000" fill="#FF7214"/>
	</g>
</g><g>
	<g>
		<path d="M279.309,20h3.482c5.523,0,10-4.478,10-10s-4.477-10-10-10h-3.482C260.942,0,246,14.942,246,33.309V36h-0.002    c-5.523,0-10,4.478-10,10s4.477,10,10,10H246v39.821c0,5.522,4.477,10,10,10s10-4.478,10-10V56h13.576c5.523,0,10-4.478,10-10    s-4.477-10-10-10H266v-2.691C266,25.971,271.97,20,279.309,20z" data-original="#000000" class="active-path" data-old_color="#000000" fill="#FF7214"/>
	</g>
</g><g>
	<g>
		<path d="M488.372,27.685c-1.846-2.83-4.996-4.536-8.374-4.537l-8.355-0.001c-5.529-4.362-12.447-6.8-19.57-6.8    c-14.343,0-26.481,9.618-30.304,22.744c-10.17-4.573-19.14-11.459-26.353-20.302c-2.07-2.537-5.244-3.898-8.518-3.649    c-3.265,0.252-6.201,2.087-7.857,4.912c-3.468,5.913-5.301,12.7-5.301,19.629c0,4.74,0.854,9.355,2.461,13.658    c-1.693,1.824-2.67,4.244-2.67,6.803v0.353c0,11.303,5.082,23.357,13.358,31.755c-2.135,0.151-4.273,0.106-6.493-0.14    c-4.619-0.508-8.979,2.225-10.529,6.603c-1.55,4.377,0.12,9.247,4.031,11.754c11.496,7.368,24.796,11.263,38.464,11.263    c20.914,0,39.749-8.3,53.034-23.37c11.628-13.19,18.298-30.669,18.298-47.954c0-0.078-0.001-0.156-0.003-0.234l-0.013-0.566    l5.471-12.429C490.51,34.084,490.218,30.514,488.372,27.685z M464.476,43.584c-0.591,1.343-0.879,2.798-0.845,4.264l0.063,2.669    c-0.054,20.428-14.705,48.767-47.067,51.063c0.25-0.188,0.498-0.379,0.746-0.572c3.361-2.629,4.685-7.102,3.294-11.136    s-5.188-6.742-9.455-6.742c-5.566,0-10.373-4.181-13.563-9.425c3.922-0.402,7.295-3.095,8.509-6.931    c1.344-4.247-0.284-8.872-3.993-11.341c-3.443-2.292-5.981-5.598-7.328-9.384c9.914,7.732,21.315,13.344,33.714,16.521    c4.579,1.172,9.394-1.094,11.486-5.336c1.01-2.048,1.289-4.379,0.79-6.607c-0.208-0.928-0.309-1.82-0.309-2.727    c0-6.371,5.184-11.555,11.555-11.555c3.186,0,6.254,1.325,8.419,3.636c1.206,1.287,2.716,2.219,4.37,2.725L464.476,43.584z" data-original="#000000" class="active-path" data-old_color="#000000" fill="#FF7214"/>
	</g>
</g><g>
	<g>
		<path d="M119.91,65.693H94.927c-5.523,0-10,4.478-10,10c0,5.522,4.477,10,10,10h12.956c-3.908,9.211-13.042,15.688-23.662,15.688    c-14.165,0-25.688-11.523-25.688-25.688c0-14.164,11.523-25.688,25.688-25.688c5.523,0,10-4.478,10-10c0-5.522-4.477-10-10-10    c-25.192,0-45.688,20.495-45.688,45.688s20.496,45.688,45.689,45.688c25.192,0,45.688-20.496,45.688-45.688    C129.91,70.171,125.433,65.693,119.91,65.693z" data-original="#000000" class="active-path" data-old_color="#000000" fill="#FF7214"/>
	</g>
</g><g>
	<g>
		<path d="M169.05,29.284h-4.174v-4.175c0-5.522-4.477-10-10-10c-5.523,0-10,4.478-10,10v4.175h-4.174c-5.523,0-10,4.478-10,10    s4.477,10,10,10h4.174v4.174c0,5.522,4.477,10,10,10c5.523,0,10-4.478,10-10v-4.174h4.174c5.523,0,10-4.478,10-10    S174.573,29.284,169.05,29.284z" data-original="#000000" class="active-path" data-old_color="#000000" fill="#FF7214"/>
	</g>
</g><g>
	<g>
		<path d="M428.079,302.623H394.5c-5.523,0-10,4.478-10,10c0,5.522,4.477,10,10,10h33.579c5.523,0,10-4.477,10-10    C438.079,307.101,433.602,302.623,428.079,302.623z" data-original="#000000" class="active-path" data-old_color="#000000" fill="#FF7214"/>
	</g>
</g><g>
	<g>
		<path d="M119.91,302.623H86.331c-5.523,0-10,4.478-10,10c0,5.522,4.477,10,10,10h33.579c5.523,0,10-4.478,10-10    C129.91,307.101,125.433,302.623,119.91,302.623z" data-original="#000000" class="active-path" data-old_color="#000000" fill="#FF7214"/>
	</g>
</g></g> </svg>
