<?xml version="1.0" encoding="iso-8859-1"?>
<!-- Generator: Adobe Illustrator 19.0.0, SVG Export Plug-In . SVG Version: 6.00 Build 0)  -->
<svg version="1.1" id="Capa_1" xmlns="http://www.w3.org/2000/svg" xmlns:xlink="http://www.w3.org/1999/xlink" x="0px" y="0px"
	 viewBox="0 0 512 512" style="enable-background:new 0 0 512 512;" xml:space="preserve">
<rect x="291.6" y="117.86" style="fill:#EAECF0;" width="210.4" height="244.5"/>
<rect x="291.6" y="157.6" style="fill:#3688C8;" width="210.4" height="48.02"/>
<path style="fill:#ED7161;" d="M399.941,252.828c-7.056-5.543-15.953-8.848-25.622-8.848c-22.926,0-41.512,18.585-41.512,41.511
	c0,22.926,18.585,41.512,41.512,41.512c9.669,0,18.565-3.306,25.622-8.848"/>
<circle style="fill:#FFD36C;" cx="426.56" cy="285.49" r="41.512"/>
<path style="fill:#3688C8;" d="M10,420.625h281.603v64.474c0,9.334-7.567,16.901-16.901,16.901H26.901
	C17.567,502,10,494.433,10,485.099V420.625z"/>
<rect x="10" y="77.37" style="fill:#EAECF0;" width="281.6" height="343.25"/>
<path style="fill:#48C8F5;" d="M291.603,77.373H10V26.901C10,17.567,17.567,10,26.901,10h247.802
	c9.334,0,16.901,7.567,16.901,16.901v50.472H291.603z"/>
<path d="M502,107.86H301.603V26.901C301.603,12.068,289.535,0,274.702,0H26.9C12.067,0,0,12.068,0,26.901V485.1
	C0,499.933,12.067,512,26.9,512h247.802c14.833,0,26.901-12.067,26.901-26.9V372.363H502c5.522,0,10-4.478,10-10V117.86
	C512,112.338,507.522,107.86,502,107.86z M492,127.86v19.743H301.603V127.86H492z M492,195.622H301.603v-28.019H492V195.622z
	 M20,87.373h261.603v323.252H20V87.373z M20,26.901C20,23.096,23.096,20,26.9,20h247.802c3.806,0,6.901,3.096,6.901,6.901v40.472H20
	V26.901z M281.603,485.1c0,3.805-3.096,6.9-6.901,6.9H26.9c-3.805,0-6.9-3.096-6.9-6.9v-54.475h261.603V485.1z M301.603,352.363
	V215.622H492v136.741L301.603,352.363L301.603,352.363z"/>
<path d="M426.564,233.98c-9.517,0-18.439,2.594-26.097,7.113c-7.884-4.671-16.804-7.113-26.147-7.113
	c-28.403,0-51.512,23.108-51.512,51.512c0,28.403,23.108,51.512,51.512,51.512c9.343,0,18.263-2.442,26.147-7.113
	c7.658,4.518,16.58,7.113,26.097,7.113c28.403,0,51.511-23.108,51.511-51.512C478.074,257.088,454.967,233.98,426.564,233.98z
	 M342.808,285.491c0-17.376,14.136-31.512,31.512-31.512c3.551,0,7.001,0.576,10.26,1.696c-5.997,8.42-9.528,18.713-9.528,29.816
	c0,11.102,3.531,21.395,9.528,29.816c-3.26,1.12-6.71,1.696-10.26,1.696C356.943,317.003,342.808,302.867,342.808,285.491z
	 M426.564,317.003c-17.376,0-31.512-14.136-31.512-31.512s14.136-31.512,31.512-31.512c17.375,0,31.511,14.136,31.511,31.512
	C458.074,302.867,443.939,317.003,426.564,317.003z"/>
<path d="M170.802,471.313h-40c-5.523,0-10-4.478-10-10s4.477-10,10-10h40c5.522,0,10,4.478,10,10S176.324,471.313,170.802,471.313z"
	/>
<path d="M219.84,53.689c-0.65,0-1.309-0.069-1.95-0.199c-0.64-0.131-1.27-0.32-1.87-0.57c-0.609-0.25-1.189-0.56-1.73-0.92
	c-0.55-0.36-1.06-0.78-1.52-1.24c-1.859-1.86-2.93-4.44-2.93-7.07c0-0.659,0.07-1.31,0.2-1.96c0.12-0.64,0.319-1.27,0.569-1.87
	s0.561-1.18,0.921-1.729c0.359-0.54,0.779-1.05,1.239-1.521c0.46-0.46,0.971-0.869,1.52-1.239c0.54-0.36,1.12-0.67,1.73-0.92
	c0.601-0.25,1.23-0.44,1.87-0.57c1.29-0.26,2.61-0.26,3.9,0c0.64,0.13,1.27,0.32,1.88,0.57c0.6,0.25,1.18,0.56,1.72,0.92
	c0.55,0.37,1.061,0.779,1.521,1.239c0.46,0.471,0.88,0.98,1.239,1.521c0.37,0.55,0.67,1.13,0.92,1.729
	c0.25,0.601,0.45,1.23,0.58,1.87c0.12,0.65,0.19,1.301,0.19,1.96c0,2.63-1.07,5.21-2.93,7.07c-0.46,0.46-0.971,0.88-1.521,1.24
	c-0.54,0.359-1.12,0.67-1.72,0.92c-0.61,0.25-1.24,0.44-1.88,0.57C221.149,53.62,220.49,53.689,219.84,53.689z"/>
<path d="M179.957,53.687H81.763c-5.523,0-10-4.478-10-10s4.477-10,10-10h98.194c5.523,0,10,4.478,10,10
	S185.48,53.687,179.957,53.687z"/>
<path style="fill:#FCB651;" d="M209.615,186.918c-20.623,0-38.41-12.095-46.686-29.572h-24.254
	c-8.276,17.478-26.064,29.572-46.686,29.572c-7.68,0-14.966-1.679-21.517-4.685v98.919c0,40.443,80.33,73.533,80.33,73.533
	s80.33-33.09,80.33-73.533v-98.919C224.581,185.239,217.295,186.918,209.615,186.918z"/>
<path d="M150.802,364.685c-1.295,0-2.589-0.251-3.809-0.754c-0.857-0.353-21.226-8.803-41.886-22.515
	c-29.618-19.656-44.636-39.932-44.636-60.265v-98.919c0-3.406,1.734-6.579,4.601-8.418c2.868-1.837,6.475-2.092,9.57-0.67
	c5.455,2.504,11.29,3.773,17.345,3.773c16.009,0,30.787-9.362,37.648-23.853c1.654-3.492,5.173-5.72,9.038-5.72h24.254
	c3.865,0,7.384,2.227,9.038,5.72c6.861,14.49,21.64,23.853,37.648,23.853c6.054,0,11.89-1.27,17.345-3.773
	c3.097-1.423,6.702-1.168,9.57,0.67c2.867,1.839,4.602,5.012,4.602,8.418v98.919c0,20.333-15.018,40.608-44.636,60.265
	c-20.66,13.712-41.028,22.162-41.886,22.515C153.391,364.434,152.097,364.685,150.802,364.685z M80.472,195.848v85.304
	c0,25.842,48.54,52.9,70.33,62.645c21.786-9.743,70.33-36.803,70.33-62.645v-85.304c-3.767,0.712-7.612,1.07-11.517,1.07
	c-21.519,0-41.531-11.42-52.632-29.572H144.62c-11.101,18.152-31.113,29.572-52.632,29.572
	C88.084,196.918,84.237,196.56,80.472,195.848z"/>
<path d="M142.689,288.524c-2.56,0-5.118-0.977-7.071-2.929l-24.893-24.893c-3.905-3.905-3.905-10.237,0-14.143
	c3.906-3.904,10.236-3.904,14.143,0l17.821,17.821l34.046-34.046c3.906-3.904,10.236-3.904,14.143,0
	c3.905,3.905,3.905,10.237,0,14.143l-41.117,41.117C147.808,287.548,145.249,288.524,142.689,288.524z"/>
<g>
</g>
<g>
</g>
<g>
</g>
<g>
</g>
<g>
</g>
<g>
</g>
<g>
</g>
<g>
</g>
<g>
</g>
<g>
</g>
<g>
</g>
<g>
</g>
<g>
</g>
<g>
</g>
<g>
</g>
</svg>
