<svg id="Capa_1" enable-background="new 0 0 512 512" height="512" viewBox="0 0 512 512" width="512" xmlns="http://www.w3.org/2000/svg"><g id="XMLID_1153_"><g id="XMLID_1076_"><g id="XMLID_2017_"><path id="XMLID_1887_" d="m462 35h-412c-22.091 0-40 17.909-40 40v362c0 22.091 17.909 40 40 40h412c22.091 0 40-17.909 40-40v-362c0-22.091-17.909-40-40-40z" fill="#e1e3e9"/><path id="XMLID_1886_" d="m54 79h404v260h-404z" fill="#f6838d"/><g id="XMLID_1976_"><path id="XMLID_1979_" d="m308.247 222.029-69.425 44.499c-10.3 6.602-23.827-.795-23.827-13.029v-88.998c0-12.235 13.527-19.631 23.827-13.029l69.425 44.499c9.499 6.089 9.499 19.969 0 26.058z" fill="#fff"/></g><g id="XMLID_1988_"><path id="XMLID_1982_" d="m182.065 399v18c0 11.046 8.954 20 20 20 11.046 0 20-8.954 20-20v-18c0-11.046-8.954-20-20-20-11.046 0-20 8.954-20 20z" fill="#79b2ff"/></g></g></g><g id="XMLID_231_"><path id="XMLID_232_" d="m462 25h-161c-5.523 0-10 4.477-10 10s4.477 10 10 10h161c16.542 0 30 13.458 30 30v362c0 16.542-13.458 30-30 30h-412c-16.542 0-30-13.458-30-30v-362c0-16.542 13.458-30 30-30h161c5.523 0 10-4.477 10-10s-4.477-10-10-10h-161c-27.57 0-50 22.43-50 50v362c0 27.57 22.43 50 50 50h412c27.57 0 50-22.43 50-50v-362c0-27.57-22.43-50-50-50z"/><path id="XMLID_235_" d="m468 339v-260c0-5.523-4.477-10-10-10h-404c-5.523 0-10 4.477-10 10v260c0 5.523 4.477 10 10 10h404c5.523 0 10-4.477 10-10zm-20-10h-384v-240h384z"/><path id="XMLID_238_" d="m218.249 275.852c3.818 2.088 8.024 3.125 12.222 3.125 4.789 0 9.568-1.35 13.748-4.029l69.425-44.499c7.344-4.707 11.728-12.725 11.728-21.448s-4.384-16.741-11.728-21.448l-69.425-44.499c-7.845-5.028-17.796-5.375-25.97-.905-8.175 4.47-13.253 13.035-13.253 22.353v88.998c-.001 9.316 5.078 17.881 13.253 22.352zm6.746-111.351c0-2.93 1.992-4.336 2.849-4.804.496-.271 1.463-.694 2.668-.694.875 0 1.876.223 2.914.888l69.425 44.499c2.275 1.458 2.521 3.71 2.521 4.61s-.246 3.152-2.521 4.61l-69.425 44.499c-2.468 1.582-4.726.664-5.582.194-.856-.468-2.849-1.874-2.849-4.804z"/><path id="XMLID_241_" d="m232.04 398c-.53-16.08-13.768-29-29.975-29s-29.444 12.92-29.975 29h-35.59c-5.523 0-10 4.477-10 10s4.477 10 10 10h35.59c.53 16.08 13.768 29 29.975 29s29.444-12.92 29.975-29h215.96c5.523 0 10-4.477 10-10s-4.477-10-10-10zm-19.975 19c0 5.514-4.486 10-10 10s-10-4.486-10-10v-18c0-5.514 4.486-10 10-10s10 4.486 10 10z"/><path id="XMLID_242_" d="m54.333 388v40c0 5.523 4.477 10 10 10s10-4.477 10-10v-40c0-5.523-4.477-10-10-10s-10 4.477-10 10z"/><path id="XMLID_243_" d="m94.333 388v40c0 5.523 4.477 10 10 10s10-4.477 10-10v-40c0-5.523-4.477-10-10-10s-10 4.477-10 10z"/><path id="XMLID_244_" d="m256 45c2.63 0 5.21-1.07 7.07-2.93s2.93-4.44 2.93-7.07-1.07-5.21-2.93-7.07-4.44-2.93-7.07-2.93-5.21 1.07-7.07 2.93-2.93 4.44-2.93 7.07 1.07 5.21 2.93 7.07 4.44 2.93 7.07 2.93z"/></g></g></svg>